<ttFont>
<head>
    <!-- Most of this table will be recalculated by the compiler -->
    <tableVersion value="1.0"/>
    <fontRevision value="2.004"/>
    <checkSumAdjustment value="0xe11c0bed"/>
    <magicNumber value="0x5f0f3cf5"/>
    <flags value="00000000 00000011"/>
    <unitsPerEm value="1000"/>
    <created value="Thu Oct  8 09:59:14 2009"/>
    <modified value="Thu Oct  8 09:59:14 2009"/>
    <xMin value="-470"/>
    <yMin value="-549"/>
    <xMax value="1456"/>
    <yMax value="1514"/>
    <macStyle value="00000000 00000000"/>
    <lowestRecPPEM value="3"/>
    <fontDirectionHint value="2"/>
    <indexToLocFormat value="0"/>
    <glyphDataFormat value="0"/>
  </head>
          <CharString index="0">
            rmoveto
            21 -11 19 -18 11 vhcurveto
            12 -21 -25 4 -29 hhcurveto
            -47 -43 -25 -41 -19 14 -11 16 15 14 11 18 17 -11 11 -14 2 hvcurveto
            11 13 20 7 23 hhcurveto
            45 8 -13 0 hvcurveto
            -25 callsubr
          </CharString>
          <CharString index="1">
            652 258 rmoveto
            -25 hlineto
            -154 -25 -23 -73 -172 hhcurveto
            -133 hlineto
            -47 -2 7 33 hvcurveto
            411 90 vlineto
            97 11 -32 -85 hvcurveto
            25 265 -25 hlineto
            -86 -11 -31 -97 vhcurveto
            -90 374 hlineto
            33 2 7 47 vhcurveto
            129 hlineto
            153 27 -55 -139 74 callsubr
            -563 -68 callgsubr
            577 hlineto
            return
          </CharString>
          <CharString index="2">
            71 callsubr
            -8 2 -5 -9 -2 -6 -8 -2 vhcurveto
            -103 -35 -90 0 -10 hhcurveto
            -50 -40 30 37 -23 hvcurveto
            -30 48 0 66 36 vvcurveto
            279 143 callgsubr
            99 -54 97 77 callgsubr
            -92 -103 -125 -134 105 -97 115 122 45 75 callgsubr
            -237 hlineto
            149 6 84 25 34 hhcurveto
            103 10 -135 -39 hvcurveto
            return
          </CharString>
          <CharString index="3">
            rmoveto
            23 13 -16 29 -27 hhcurveto
            -11 -8 -6 -6 -10 hvcurveto
            -227 -162 12 -22 251 126 12 7 6 3 5 8 rlinecurve
            endchar
          </CharString>
          <CharString index="4">
            -72 callgsubr
            -294 160 -206 172 175 158 209 291 vhcurveto
            -88 callsubr
            return
          </CharString>
          <CharString index="5">
            89 -23 53 -18 35 vhcurveto
            -36 68 -56 20 -32 11 -92 31 rcurveline
            -37 13 -25 9 -26 40 rrcurveto
            -27 41 -7 56 38 vvcurveto
            104 54 91 79 150 33 -158 -131 10 vhcurveto
            -20 1 1 -4 11 hhcurveto
            13 0 5 19 hvcurveto
            293 vlineto
            17 0 7 -11 -9 -1 -4 -11 -5 vhcurveto
            -32 -74 rlineto
            78 -50 -69 11 -43 hhcurveto
            -110 -86 -114 -145 -48 7 -52 32 -59 hvcurveto
            36 -66 54 -19 43 -15 104 -36 rcurveline
            92 -32 11 -119 -55 vvcurveto
            -115 -54 -99 -80 -215 -4 252 47 -1 vhcurveto
            9 -6 2 -6 -13 0 -7 -18 vhcurveto
            -292 vlineto
            -17 0 -7 11 8 1 2 14 6 vhcurveto
            7 14 3 11 25 52 rrcurveto
            -48 35 57 -45 93 hhcurveto
            114 83 126 152 hvcurveto
            return
          </CharString>
          <CharString index="6">
            vlineto
            36 2 11 77 vhcurveto
            24 97 callgsubr
            -74 0 -38 hhcurveto
            -38 -75 -45 callgsubr
            -53 callsubr
            return
          </CharString>
          <CharString index="7">
            333 hmoveto
            31 -26 vlineto
            -79 -3 34 callgsubr
            3 11 79 vhcurveto
            26 97 callgsubr
            -79 0 -39 hhcurveto
            13 callsubr
            26 vlineto
            79 3 -32 callgsubr
            -3 -11 -79 vhcurveto
            -26 -31 hlineto
            3 35 79 0 38 hhcurveto
            39 79 0 -3 35 hvcurveto
            return
          </CharString>
          <CharString index="8">
            735 242 rmoveto
            31 vlineto
            -122 -3 rlineto
            -40 -85 0 3 -36 hvcurveto
            -31 32 vlineto
            90 3 -11 -37 hvcurveto
            -64 vlineto
            -116 -137 -5 -16 -57 -208 39 433 421 191 50 64 164 45 -213 -138 11 vhcurveto
            -21 2 0 -3 14 hhcurveto
            16 0 3 21 hvcurveto
            358 vlineto
            17 0 7 -11 -7 -1 -1 -13 -6 vhcurveto
            -48 -101 rlineto
            62 -40 -57 53 -90 hhcurveto
            -185 -165 -212 -290 -289 162 -214 190 64 85 23 62 36 hvcurveto
            -22 13 40 -40 11 hhcurveto
            9 0 8 15 hvcurveto
            174 vlineto
            39 4 5 65 vhcurveto
            return
          </CharString>
          <CharString index="9">
            27 -23 26 -30 -34 -20 -28 -25 -27 23 -26 30 34 20 28 25 vhcurveto
            return
          </CharString>
          <CharString index="10">
            508 400 105 callgsubr
            -23 -29 -1 -23 hhcurveto
            -87 3 rlineto
            -31 vlineto
            31 -1 16 -17 -25 vvcurveto
            -10 -1 -2 -5 -12 vhcurveto
            -101 -246 -111 269 rlineto
            -4 10 -2 4 4 vvcurveto
            26 37 0 19 63 callsubr
            rlineto
            -27 -40 1 2 -30 hvcurveto
            -31 vlineto
            48 19 0 -35 14 hvcurveto
            150 -365 -25 -59 rlineto
            -55 -22 -28 -69 -64 hhcurveto
            -5 -23 0 18 -19 hvcurveto
            31 4 8 22 16 vvcurveto
            26 -19 16 -23 -20 -22 -13 -30 -45 42 -36 50 63 41 57 57 24 vhcurveto
            176 427 rlineto
            63 26 51 1 16 hhcurveto
            return
          </CharString>
          <CharString index="11">
            716 hmoveto
            31 -24 vlineto
            -77 -2 11 36 hvcurveto
            805 -101 callsubr
            -368 -299 368 -101 callsubr
            -805 -69 callsubr
            406 299 -406 -78 callsubr
            return
          </CharString>
          <CharString index="12">
            rmoveto
            -116 254 rlineto
            15 -7 -6 14 -21 hhcurveto
            -16 -20 -14 -20 -10 3 -5 8 -12 hvcurveto
            154 -235 rlineto
            return
          </CharString>
          <CharString index="13">
            rmoveto
            -22 hlineto
            -127 -70 -34 -57 -59 -70 33 128 vhcurveto
            -22 hlineto
            -143 73 -53 77 69 81 44 152 vhcurveto
            return
          </CharString>
          <CharString index="14">
            1010 930 105 callgsubr
            -30 -31 -1 -30 hhcurveto
            117 callsubr
            70 -1 24 -33 -22 vvcurveto
            0 0 -4 -4 -16 vhcurveto
            -159 -684 rlineto
            -1 hlineto
            -167 715 -3 13 rlineto
            32 64 0 26 84 callgsubr
            -67 0 -38 hhcurveto
            -122 3 rlineto
            -31 vlineto
            73 4 -5 -37 9 hvcurveto
            28 -116 -141 -602 rlineto
            -1 hlineto
            -165 708 rlineto
            -4 15 0 2 3 vvcurveto
            32 62 0 27 84 callgsubr
            -67 0 -38 hhcurveto
            -121 3 rlineto
            -31 vlineto
            59 18 0 -40 9 hvcurveto
            207 -891 rlineto
            -14 3 4 -7 11 hhcurveto
            12 3 7 13 3 hvcurveto
            167 717 rlineto
            1 hlineto
            167 -717 rlineto
            -13 3 3 -7 12 hhcurveto
            11 4 7 14 3 hvcurveto
            201 863 rlineto
            38 9 22 30 61 hhcurveto
            return
          </CharString>
          <CharString index="15">
            -20 -91 callgsubr
            return
          </CharString>
          <CharString index="16">
            685 730 rmoveto
            -19 225 rlineto
            -611 hlineto
            -19 -225 rlineto
            25 hlineto
            161 14 15 33 151 hhcurveto
            18 26 0 -2 10 hvcurveto
            21 -4 0 -11 -23 vvcurveto
            -805 vlineto
            -34 0 -14 -105 vhcurveto
            -40 -31 hlineto
            3 41 102 0 46 hhcurveto
            46 103 100 callsubr
            -40 vlineto
            -105 0 14 34 hvcurveto
            805 vlineto
            20 0 14 18 4 vhcurveto
            2 11 27 0 19 hhcurveto
            151 15 -33 -161 14 hvcurveto
            return
          </CharString>
          <CharString index="17">
            703 400 105 callgsubr
            -22 -29 -1 -22 hhcurveto
            -93 3 rlineto
            -31 vlineto
            36 -1 22 -18 -29 vvcurveto
            -6 0 -2 -5 -13 vhcurveto
            -91 -256 -99 279 rlineto
            -4 12 -1 2 5 vvcurveto
            27 39 0 20 vhcurveto
            31 vlineto
            -104 -3 rlineto
            -30 -29 1 2 -30 hvcurveto
            -31 vlineto
            37 16 -2 -13 10 hvcurveto
            5 -6 11 -30 7 -19 -86 -242 rcurveline
            -95 267 rlineto
            -5 12 0 2 4 vvcurveto
            27 39 0 20 63 callsubr
            -93 3 rlineto
            -31 vlineto
            50 12 -3 -32 12 hvcurveto
            126 -354 rlineto
            -14 5 3 -8 13 hhcurveto
            13 2 6 14 5 hvcurveto
            101 283 102 -284 rlineto
            -11 4 3 -8 13 hhcurveto
            13 3 9 10 4 hvcurveto
            117 328 18 50 31 13 35 1 rlinecurve
            return
          </CharString>
          <CharString index="18">
            vlineto
            -45 -11 0 -67 vhcurveto
            -31 vlineto
            return
          </CharString>
          <CharString index="19">
            -103 19 rmoveto
            -350 -122 -143 -107 -108 -122 143 350 350 136 111 93 95 135 -113 -348 vhcurveto
            return
          </CharString>
          <CharString index="20">
            343 rmoveto
            16 0 6 -13 -12 0 -7 -8 vhcurveto
            -202 -4 -89 -139 -133 hhcurveto
            -60 -195 46 425 120 10 95 41 94 hvcurveto
            61 27 69 102 108 hhcurveto
            164 45 -216 -135 10 hvcurveto
            -21 2 0 -3 14 hhcurveto
            16 0 3 21 hvcurveto
            358 vlineto
            17 0 7 -11 -7 -1 -1 -13 -6 vhcurveto
            -48 -101 rlineto
            80 -51 -61 35 -75 hhcurveto
            -183 -166 -210 -292 return
          </CharString>
          <CharString index="21">
            360 128 rmoveto
            53 -30 30 -12 12 vhcurveto
            -33 32 -39 8 -42 8 rrcurveto
            -56 11 -67 13 58 vvcurveto
            35 26 41 86 110 5 -90 -31 2 vhcurveto
            1 -9 11 0 0 vvcurveto
            13 0 5 19 hvcurveto
            101 vlineto
            17 0 7 -11 -5 -2 0 -12 -13 vhcurveto
            -3 -4 -10 -9 -4 -3 rrcurveto
            28 -38 -41 0 -15 hhcurveto
            -122 -38 -67 -56 -35 16 -28 27 -22 hvcurveto
            32 -26 28 -6 72 -14 rrcurveto
            return
          </CharString>
          <CharString index="22">
            rmoveto
            123 -69 110 -110 24 vhcurveto
            126 50 26 136 66 vvcurveto
            112 -89 77 -96 -110 -66 -105 -93 -46 35 -8 16 30 21 22 28 32 -23 19 -28 -6 -9 -1 -2 -5 vhcurveto
            hintmask 0000100011000000
            87 20 66 42 56 hhcurveto
            34 62 -23 -143 -227 -70 -7 -61 -6 hvcurveto
            hintmask 0000000100000000
            -24 -3 -5 -1 -3 -1 rrcurveto
            0 -8 -1 -9 vvcurveto
            -11 7 0 17 vhcurveto
            43 hlineto
            hintmask 1010000010100000
            20 48 0 -88 32 hvcurveto
            18 -52 2 -55 -46 vvcurveto
            -191 -66 -49 -46 -76 -68 64 98 -20 vhcurveto
            hintmask 0100000000000000
            -3 6 9 0 5 hhcurveto
            hintmask 0010010000000000
            35 21 25 31 hvcurveto
            hintmask 1100010000000000
            38 -31 18 -25 -3 -53 0 -61 -111 75 -127 127 vhcurveto
            hintmask 0010000000100000
            116 97 117 151 hvcurveto
            endchar
          </CharString>
          <CharString index="23">
            736 hmoveto
            31 vlineto
            -50 -22 2 53 -25 hvcurveto
            -242 505 204 276 45 61 55 1 21 1 rlinecurve
            31 vlineto
            -3 -27 -31 0 -27 hhcurveto
            -35 -57 0 3 -34 hvcurveto
            -31 vlineto
            50 -2 15 -28 -15 vvcurveto
            -8 -3 -7 -7 -9 vhcurveto
            -341 -460 rlineto
            482 -101 callsubr
            -805 -69 callsubr
            281 vlineto
            118 159 201 -421 6 -12 0 -2 2 -9 rlinecurve
            0 1 -3 -4 vvcurveto
            -36 -48 0 -21 vhcurveto
            -31 vlineto
            3 36 66 0 38 hhcurveto
            return
          </CharString>
          <CharString index="24">
            -82 callgsubr
            hintmask 00011000
            return
          </CharString>
          <CharString index="25">
            535 95 callgsubr
            355 vlineto
            -147 -81 callgsubr
            -178 vlineto
            return
          </CharString>
          <CharString index="26">
            60 -24 45 -43 -35 -18 -27 -26 -26 17 -27 36 20 14 10 6 6 vhcurveto
            1 2 2 1 0 0 2 -14 -4 vvcurveto
            -32 -7 -72 -63 -62 vhcurveto
            -12 -12 0 -2 -3 vvcurveto
            -7 5 -4 5 11 83 76 118 vhcurveto
            return
          </CharString>
          <CharString index="27">
            -6 -6 0 -1 -6 hvcurveto
            -183 -18 -116 -137 -75 -149 rrcurveto
            -78 -155 -29 -173 -177 vvcurveto
            -171 34 -171 77 -153 vhcurveto
            -148 74 133 -148 182 hhcurveto
            184 134 152 147 73 hvcurveto
            76 151 33 171 169 vvcurveto
            -40 8 rmoveto
            -204 -46 -216 -123 -165 vhcurveto
            -66 -89 -96 -79 -119 -5 rrcurveto
            -9 hlineto
            -203 -131 207 148 -57 hvcurveto
            -42 106 -18 109 -8 113 return
          </CharString>
          <CharString index="28">
            237 rmoveto
            129 -61 57 -48 44 vhcurveto
            -51 48 rlineto
            63 45 70 77 103 vvcurveto
            107 -75 97 -105 -113 -68 -112 -114 vhcurveto
            hintmask 0000101000000000
            -114 64 -59 3 -3 vhcurveto
            63 -58 rlineto
            hintmask 1110011010000000
            -96 -66 -61 -91 -110 vvcurveto
            -127 87 -112 120 128 80 127 132 vhcurveto
            -71 502 rmoveto
            -104 -65 -72 -41 -32 vhcurveto
            -117 107 rlineto
            -4 4 -46 42 77 vvcurveto
            84 58 74 78 vhcurveto
            hintmask 1000100100000000
            85 52 -88 -92 hvcurveto
            21 -542 rmoveto
            -101 -66 -90 -91 -98 -60 102 110 114 58 91 67 44 vhcurveto
            112 -103 rlineto
            hintmask 0000000010000000
            33 -31 45 -42 -94 vvcurveto
            endchar
          </CharString>
          <CharString index="29">
            -42 callsubr
            35 74 0 38 hhcurveto
            38 75 0 -3 35 hvcurveto
            return
          </CharString>
          <CharString index="30">
            rmoveto
            113 -7 95 -30 97 vhcurveto
            91 -29 -54 76 -84 hhcurveto
            -78 -45 -50 -52 -33 hvcurveto
            -48 -75 -7 -65 -70 vvcurveto
            -71 7 -66 49 -77 vhcurveto
            -50 31 39 -45 74 hhcurveto
            81 32 66 41 12 hvcurveto
            -30 vlineto
            -243 -65 -151 -96 -40 -48 16 50 -19 vhcurveto
            0 7 -2 7 22 24 15 31 31 -24 15 -22 -13 -33 -6 -43 -75 51 -60 88 136 115 198 296 vhcurveto
            -91 110 rmoveto
            -138 -32 -99 -89 -113 0 190 95 72 0 63 17 53 vhcurveto
            51 17 31 50 57 hhcurveto
            59 32 -73 -89 12 hvcurveto
            4 -34 5 -76 -65 vvcurveto
            endchar
          </CharString>
          <CharString index="31">
            rmoveto
            -227 162 rlineto
            6 -10 -8 6 -11 hhcurveto
            -27 -16 -29 -23 13 hvcurveto
            -24 callgsubr
          </CharString>
          <CharString index="32">
            104 71 56 64 63 11 -54 -57 vhcurveto
            -233 -60 callsubr
            return
          </CharString>
          <CharString index="33">
            hmoveto
            31 vlineto
            -52 -25 0 30 -1 hvcurveto
            191 vlineto
            86 0 31 -31 36 vhcurveto
            17 -14 -33 20 -58 hhcurveto
            return
          </CharString>
          <CharString index="34">
            -65 callsubr
            36 71 0 39 hhcurveto
            39 71 0 -3 36 hvcurveto
            31 return
          </CharString>
          <CharString index="35">
            -36 -2 -11 -77 vhcurveto
            -24 return
          </CharString>
          <CharString index="36">
            -95 -72 -34 -45 -49 -41 35 50 55 42 83 165 6 vhcurveto
            return
          </CharString>
          <CharString index="37">
            hstemhm
            28 83 272 87 -83 83 -65 83 hintmask 0101000100000000
            -27 callsubr
            hintmask 1010001001000000
            -31 callsubr
            hintmask 1101001001000000
            -42 callgsubr
            hintmask 0000110000000000
            return
          </CharString>
          <CharString index="38">
            -78 callsubr
            -9 callgsubr
            return
          </CharString>
          <CharString index="39">
            rmoveto
            -16 15 rlineto
            hintmask 00010000
            -19 -26 -14 -20 -42 hhcurveto
            hintmask 00001000
            -59 callgsubr
            hintmask 00010000
            17 -15 rlineto
            hintmask 00001000
            23 23 25 16 33 hhcurveto
            hintmask 00010000
            -77 callgsubr
          </CharString>
          <CharString index="40">
            71 callsubr
            -10 0 -3 -9 -2 -4 -6 -2 vhcurveto
            -93 -29 -65 -12 -37 hhcurveto
            -53 -88 43 161 163 82 42 53 9 63 -1 -36 35 hvcurveto
            -41 -3 -6 -30 -13 vvcurveto
            -26 18 -20 28 26 20 17 30 68 -76 39 -77 -125 -92 -108 -124 return
          </CharString>
          <CharString index="41">
            -32 23 46 -30 62 hhcurveto
            94 0 133 8 hvcurveto
            -225 592 rmoveto
            -54 -3 -58 -34 -44 vhcurveto
            -19 -14 -42 -44 -84 hhcurveto
            -106 398 hlineto
            23 0 12 22 3 vhcurveto
            return
          </CharString>
          <CharString index="42">
            17 callgsubr
            hlineto
            3 return
          </CharString>
          <CharString index="43">
            -23 callsubr
            -160 hmoveto
            -100 callgsubr
            endchar
          </CharString>
          <CharString index="44">
            721 478 rmoveto
            220 -86 128 -37 44 vhcurveto
            68 134 -22 12 -64 -125 rlineto
            28 -29 -64 64 -98 hhcurveto
            -176 -157 -213 -292 -215 83 -125 39 -47 hvcurveto
            -66 -134 21 -12 63 125 rlineto
            -25 25 67 -67 100 hhcurveto
            175 158 209 291 hvcurveto
            -163 369 rmoveto
            -354 -705 rlineto
            -51 99 -8 118 119 vvcurveto
            90 3 130 51 110 vhcurveto
            92 43 67 61 79 hhcurveto
            79 55 -57 -57 36 hvcurveto
            74 -369 rmoveto
            -80 -2 -126 -45 -106 vhcurveto
            -110 -48 -73 -56 -75 hhcurveto
            -80 -58 60 54 -32 hvcurveto
            354 705 rlineto
            52 -106 7 -120 -115 vvcurveto
            return
          </CharString>
          <CharString index="45">
            -139 -81 callgsubr
            -268 -89 callsubr
            114 3 rlineto
            40 47 0 -3 40 83 callgsubr
            154 vlineto
            return
          </CharString>
          <CharString index="46">
            rmoveto
            -16 15 rlineto
            hintmask 00100000
            -19 -26 -14 -20 -42 hhcurveto
            hintmask 00010000
            -59 callgsubr
            hintmask 00100000
            17 -15 rlineto
            hintmask 00010000
            23 23 25 16 33 hhcurveto
            hintmask 00100000
            -77 callgsubr
          </CharString>
          <CharString index="47">
            -89 callsubr
            113 3 return
          </CharString>
          <CharString index="48">
            210 -50 rmoveto
            492 vlineto
            -152 -11 rlineto
            -31 vlineto
            77 9 -7 -49 hvcurveto
            -396 vlineto
            -45 -9 -86 -64 -5 -23 0 13 -26 vhcurveto
            15 4 20 14 27 vvcurveto
            26 -18 20 -28 -28 -18 -20 -26 -52 56 -28 57 75 62 64 91 vhcurveto
            return
          </CharString>
          <CharString index="49">
            rmoveto
            -243 hlineto
            -122 -2 13 19 -4 hvcurveto
            -25 hlineto
            -33 -206 rlineto
            25 hlineto
            3 16 9 63 13 12 rrcurveto
            6 7 78 0 13 hhcurveto
            221 hlineto
            -118 -244 rlineto
            -114 -236 -17 -227 -99 vvcurveto
            -18 0 -43 46 46 0 45 10 vhcurveto
            86 vlineto
            11 1 111 8 85 vhcurveto
            12 138 26 84 20 41 144 298 rcurveline
            6 11 0 2 22 vvcurveto
            endchar
          </CharString>
          <CharString index="50">
            44 9 30 45 50 vvcurveto
            -101 -249 rmoveto
            -53 -2 -55 -29 -44 vhcurveto
            -36 -23 -41 -22 -43 hhcurveto
            -43 -41 22 36 -23 hvcurveto
            -30 44 -1 55 53 vvcurveto
            50 2 53 29 41 vhcurveto
            36 24 40 21 43 hhcurveto
            43 40 -21 -36 24 hvcurveto
            return
          </CharString>
          <CharString index="51">
            26 -17 27 -36 -20 -14 -10 -6 -6 vhcurveto
            -1 -2 -2 -1 0 0 -2 14 4 vvcurveto
            32 7 72 63 62 vhcurveto
            12 12 0 2 3 vvcurveto
            7 -5 4 -5 -11 -83 -76 -118 -60 24 -45 43 35 18 27 26 vhcurveto
            return
          </CharString>
          <CharString index="52">
            rmoveto
            -22 15 -135 -213 -134 213 -22 -15 156 -281 rlineto
            endchar
          </CharString>
          <CharString index="53">
            750 0 -39 callgsubr
            return
          </CharString>
          <CharString index="54">
            77 2 -11 -36 hvcurveto
            return
          </CharString>
          <CharString index="55">
            84 callsubr
            -3 callgsubr
            hintmask 1110011110000000
            -106 callsubr
            hintmask 0001100000000000
            return
          </CharString>
          <CharString index="56">
            392 44 callgsubr
            147 -21 296 -20 7 callgsubr
            hintmask 11000100
            -62 callsubr
            hintmask 00100010
            -44 callgsubr
            return
          </CharString>
          <CharString index="57">
            rmoveto
            -45 -27 -20 -43 -42 -28 19 46 45 27 20 43 42 28 -19 -46 vhcurveto
            26 1 rmoveto
            46 -41 41 -54 -58 -39 -43 -44 -51 44 -38 51 56 41 40 49 vhcurveto
            return
          </CharString>
          <CharString index="58">
            722 -11 22 -22 25 97 21 0 22 75 21 -19 21 174 22 hstemhm
            45 77 41 57 118 57 232 66 hintmask 0110011011100000
            693 119 rmoveto
            10 -8 2 -5 -9 -1 -4 -16 -5 vhcurveto
            -50 -15 -46 -47 -62 hhcurveto
            -10 -137 0 217 hvcurveto
            273 143 callgsubr
            111 -58 85 -109 -44 -56 -16 -61 -51 hvcurveto
            48 -29 -60 29 -64 hhcurveto
            -80 -71 -46 -67 -30 20 -17 26 28 18 20 26 12 -5 33 -46 1 hvcurveto
            32 25 47 14 36 hhcurveto
            51 55 -41 -87 hvcurveto
            hintmask 1000100100100000
            -48 vlineto
            -162 -119 -62 -96 -79 92 -24 67 81 62 40 49 24 hvcurveto
            -81 59 78 -8 30 hhcurveto
            113 42 75 callgsubr
            hintmask 1000011100100000
            -231 hlineto
            146 10 83 28 36 hhcurveto
            95 5 -135 -39 2 hvcurveto
            -289 -120 rmoveto
            -64 -57 -57 -72 -47 -40 34 47 vhcurveto
            hintmask 0001100001000000
            54 42 77 162 6 vhcurveto
            -24 0 -20 9 -31 vhcurveto
            3 -11 0 -8 -3 vvcurveto
            endchar
          </CharString>
          <CharString index="59">
            -54 callsubr
            -20 return
          </CharString>
          <CharString index="60">
            hhcurveto
            21 61 14 81 hvcurveto
            -167 51 rmoveto
            return
          </CharString>
          <CharString index="61">
            720 478 rmoveto
            126 -28 126 -69 105 vhcurveto
            -16 23 -17 22 -20 20 rrcurveto
            43 10 30 45 49 vvcurveto
            33 -22 29 -31 18 callsubr
            5 4 0 1 4 vhcurveto
            -11 -21 -20 -16 -24 -5 rrcurveto
            return
          </CharString>
          <CharString index="62">
            104 callsubr
            0 31 799 31 7 31 0 31 hstemhm
            hintmask 10101000
            729 hmoveto
            31 -17 vlineto
            -67 -7 11 28 -13 hvcurveto
            -226 470 158 325 rlineto
            49 24 48 16 58 hhcurveto
            31 vlineto
            -111 -3 rlineto
            -40 -47 0 3 -40 hvcurveto
            -31 vlineto
            56 -2 21 -34 -16 vvcurveto
            -7 -3 -5 -2 -5 vhcurveto
            -139 -286 -148 310 rlineto
            hintmask 00010000
            -5 10 0 4 0 vvcurveto
            13 33 17 42 1 vhcurveto
            hintmask 10101000
            121 callsubr
            -69 0 -38 hhcurveto
            -127 3 rlineto
            -31 17 vlineto
            60 13 -8 -30 14 hvcurveto
            198 -413 -185 -382 rlineto
            -45 -22 -41 -21 -68 hhcurveto
            -31 vlineto
            111 3 rlineto
            37 55 0 -3 36 hvcurveto
            31 vlineto
            -49 1 -28 29 22 vvcurveto
            6 0 2 6 11 vhcurveto
            165 341 177 -368 rlineto
            hintmask 01000000
            2 -3 2 -6 -4 vvcurveto
            -12 -29 -18 -46 -1 vhcurveto
            hintmask 10000000
            -31 vlineto
            3 36 69 0 38 hhcurveto
            endchar
          </CharString>
          <CharString index="63">
            1014 0 31 453 31 415 31 hstem
            70 100 344 76 222 25 95 25 3 25 vstem
            985 258 rmoveto
            -25 hlineto
            -149 -25 -15 -78 -171 hhcurveto
            -110 hlineto
            -47 -2 7 33 hvcurveto
            413 108 vlineto
            100 14 -31 -86 hvcurveto
            25 265 -25 hlineto
            -86 -14 -31 -100 vhcurveto
            -108 375 hlineto
            33 2 7 47 vhcurveto
            112 hlineto
            143 22 -59 -135 74 callsubr
            -373 hlineto
            -17 -14 0 12 -55 hvcurveto
            10 -42 -18 0 -8 hhcurveto
            -173 -159 -210 -295 -294 160 -206 172 17 20 2 8 36 hvcurveto
            11 45 14 1 22 hhcurveto
            387 hlineto
            -429 481 rmoveto
            -2 -290 rlineto
            -96 -4 -4 -95 -102 hhcurveto
            -131 -101 228 270 268 108 195 124 96 6 -85 -69 5 hvcurveto
            3 -29 2 -33 -264 vvcurveto
            endchar
          </CharString>
          <CharString index="64">
            527 95 callgsubr
            885 28 callsubr
            -494 vlineto
            36 -29 -43 26 -54 hhcurveto
            -118 -105 -98 -129 -127 98 -99 114 64 45 34 32 25 hvcurveto
            -66 vlineto
            129 vmoveto
            -18 0 -2 -11 -17 vhcurveto
            return
          </CharString>
          <CharString index="65">
            vlineto
            -65 callsubr
            return
          </CharString>
          <CharString index="66">
            36 -39 -52 21 -54 hhcurveto
            -59 -57 -25 -44 -41 hvcurveto
            -42 -44 -22 -60 -62 vvcurveto
            -59 23 -57 41 -42 vhcurveto
            -41 42 56 -24 59 hhcurveto
            59 56 24 41 41 hvcurveto
            return
          </CharString>
          <CharString index="67">
            722 0 65 -41 65 872 22 hstemhm
            56 103 0 103 197 103 0 103 hintmask 01000000
            677 162 rmoveto
            -25 hlineto
            -5 -26 -5 -26 -8 -21 rrcurveto
            hintmask 10110010
            -16 -5 -3 -8 -59 hhcurveto
            -82 hlineto
            11 88 36 80 44 96 rrcurveto
            49 110 40 95 106 vvcurveto
            197 -143 146 -161 -165 -140 -148 -195 -104 38 -92 48 -106 vhcurveto
            47 -105 36 -79 11 -89 rrcurveto
            -82 hlineto
            -58 -4 9 12 -4 hvcurveto
            -8 19 -9 49 -2 8 rrcurveto
            -25 hlineto
            33 -162 rlineto
            160 hlineto
            hintmask 01101010
            23 2 0 24 98 -31 126 -24 95 hvcurveto
            -24 93 -24 104 101 vvcurveto
            232 116 88 85 89 113 -93 -227 -101 -24 -103 -26 -104 vhcurveto
            hintmask 01000100
            -21 -84 -32 -127 -98 vvcurveto
            hintmask 10000000
            -24 1 0 25 vhcurveto
            159 hlineto
            endchar
          </CharString>
          <CharString index="68">
            764 1 31 425 31 443 31 hstemhm
            34 189 -172 86 471 100 hintmask 00110000
            708 472 rmoveto
            93 -14 93 -37 86 vhcurveto
            -40 94 -73 103 -106 18 rrcurveto
            3 -19 -19 0 -19 hhcurveto
            -347 -31 hlineto
            13 14 1 13 hhcurveto
            hintmask 01001000
            35 28 -6 -39 hvcurveto
            -399 -92 vlineto
            hintmask 00010000
            -7 -1 -4 -8 -7 vvcurveto
            hintmask 11001000
            -11 7 -4 10 vhcurveto
            86 -382 hlineto
            -39 -34 -4 -36 vhcurveto
            hintmask 11110100
            -33 -31 347 hlineto
            248 79 282 189 hvcurveto
            -100 19 rmoveto
            -119 -1 -126 -63 -105 vhcurveto
            -64 -39 -57 -45 -83 hhcurveto
            -103 hlineto
            -21 -18 5 27 hvcurveto
            393 177 vlineto
            6 5 3 6 2 hvcurveto
            7 vlineto
            10 -6 5 -10 vhcurveto
            -174 409 hlineto
            32 21 2 22 vhcurveto
            93 hlineto
            210 39 -261 -168 hvcurveto
            endchar
          </CharString>
          <CharString index="69">
            793 rmoveto
            11 -8 9 -12 -11 -4 -7 -12 -7 vhcurveto
            -86 -49 -78 -31 -70 hhcurveto
            -81 -58 40 48 -36 hvcurveto
            20 -16 -20 28 -40 hhcurveto
            -79 -68 -115 -156 -156 68 -115 79 79 51 130 141 49 -4 51 -20 61 hvcurveto
            -24 32 49 -24 65 hhcurveto
            67 53 26 26 32 hvcurveto
            1 hlineto
            -462 -940 rlineto
            -7 -13 0 -2 -3 142 callsubr
            vhcurveto
            return
          </CharString>
          <CharString index="70">
            500 -102 19 72 76 callsubr
            66 19 hstemhm
            35 69 -44 69 266 69 hintmask 00111000
            464 213 rmoveto
            98 -54 67 -38 28 vhcurveto
            67 116 -10 7 -2 0 -7 4 rlinecurve
            -66 -115 rlineto
            15 -23 -38 15 -43 hhcurveto
            -119 -96 -106 -129 hvcurveto
            hintmask 11000110
            -80 40 -67 54 -38 vhcurveto
            -69 -119 10 -7 2 0 7 -4 rlinecurve
            68 118 rlineto
            -13 23 37 -14 42 hhcurveto
            119 96 100 124 hvcurveto
            -126 179 rmoveto
            -192 -333 rlineto
            hintmask 01101010
            -37 42 -5 57 56 vvcurveto
            42 2 56 27 45 vhcurveto
            52 30 50 17 36 hhcurveto
            40 31 -18 -16 18 hvcurveto
            57 -178 rmoveto
            -33 0 -60 -29 -46 vhcurveto
            -46 -29 -48 -18 -39 hhcurveto
            -25 -34 7 24 -28 hvcurveto
            191 332 rlineto
            39 -46 2 -73 -41 vvcurveto
            endchar
          </CharString>
          <CharString index="71">
            rmoveto
            -16 15 rlineto
            hintmask 01000000
            -19 -26 -14 -20 -42 hhcurveto
            hintmask 00100000
            -59 callgsubr
            hintmask 01000000
            17 -15 rlineto
            hintmask 00100000
            23 23 25 16 33 hhcurveto
            hintmask 01000000
            -77 callgsubr
          </CharString>
          <CharString index="72">
            vlineto
            -73 callsubr
            return
          </CharString>
          <CharString index="73">
            -3 rlineto
            31 vlineto
            return
          </CharString>
          <CharString index="74">
            1 28 24 22 40 20 rrcurveto
            return
          </CharString>
          <CharString index="75">
            247 hmoveto
            31 vlineto
            -66 -4 5 39 92 callgsubr
            return
          </CharString>
          <CharString index="76">
            -41 callsubr
            hintmask 0000000010000000
            29 callgsubr
            return
          </CharString>
          <CharString index="77">
            2 -2 3 -1 2 vhcurveto
            -64 64 -48 78 -30 86 rrcurveto
            4 -1 -4 2 -4 hhcurveto
            -2 hlineto
            -6 -4 -4 -6 hvcurveto
            0 0 -1 -1 vvcurveto
            18 -81 32 -77 44 -71 -44 -71 -32 -78 -18 -81 rrcurveto
            0 0 -1 -1 50 callsubr
            6 vhcurveto
            2 hlineto
            4 4 3 4 1 hvcurveto
            30 85 48 78 64 65 rrcurveto
            1 1 2 3 3 vvcurveto
            return
          </CharString>
          <CharString index="78">
            146 callsubr
            111 3 111 -4 callsubr
            324 return
          </CharString>
          <CharString index="79">
            -67 -11 0 45 hvcurveto
            return
          </CharString>
          <CharString index="80">
            488 473 rmoveto
            33 -21 30 -31 -36 -17 -26 -27 -26 17 -27 36 4 5 1 1 4 vhcurveto
            -11 -21 -20 -16 -24 -5 rrcurveto
            return
          </CharString>
          <CharString index="81">
            31 41 31 -27 31 218 31 return
          </CharString>
          <CharString index="82">
            7 -6 1 -10 -19 vvcurveto
            -11 -15 -10 -8 -6 vhcurveto
            -28 -23 -20 -30 -33 vvcurveto
            -19 vlineto
            -6 5 -4 5 6 4 4 6 -1 vhcurveto
            19 vlineto
            -33 callsubr
            -33 callgsubr
          </CharString>
          <CharString index="83">
            rmoveto
            32 -361 -32 vlineto
            endchar
          </CharString>
          <CharString index="84">
            rmoveto
            -100 callgsubr
            return
          </CharString>
          <CharString index="85">
            rmoveto
            -49 callgsubr
            return
          </CharString>
          <CharString index="86">
            rmoveto
            19 callgsubr
            -160 hmoveto
            19 callgsubr
            endchar
          </CharString>
          <CharString index="87">
            -144 -81 callgsubr
            -798 -89 callsubr
            109 3 110 -4 callsubr
            103 vlineto
            64 55 rlineto
            77 -106 42 -56 -18 vvcurveto
            -19 -17 -4 -19 vhcurveto
            -31 vlineto
            108 3 rlineto
            29 29 -1 -2 29 hvcurveto
            return
          </CharString>
          <CharString index="88">
            -48 -30 -45 -22 -43 hhcurveto
            -45 -36 26 38 -24 hvcurveto
            -26 41 -3 57 41 vvcurveto
            37 2 60 29 45 vhcurveto
            31 21 38 33 54 hhcurveto
            35 42 -15 -45 31 hvcurveto
            11 -17 0 -2 -18 vvcurveto
            return
          </CharString>
          <CharString index="89">
            582 258 rmoveto
            -25 hlineto
            -102 -11 -14 -125 -176 hhcurveto
            -82 hlineto
            return
          </CharString>
          <CharString index="90">
            459 rmoveto
            82 0 133 -38 110 vhcurveto
            30 -11 -45 130 -116 hhcurveto
            -130 -43 -159 -35 -10 hvcurveto
            -24 -90 -4 -93 -108 vvcurveto
            -70 0 -125 29 -99 vhcurveto
            -39 12 44 -148 125 hhcurveto
            93 60 83 102 28 hvcurveto
            25 89 5 81 126 vvcurveto
            -83 16 rmoveto
            -101 0 -83 -8 -87 vhcurveto
            -165 -15 -58 -39 -46 hhcurveto
            -41 -29 30 36 -18 hvcurveto
            -33 69 -7 97 243 vvcurveto
            89 0 95 8 75 vhcurveto
            103 11 36 85 72 hhcurveto
            83 27 -106 -73 9 hvcurveto
            9 -73 0 -128 -67 vvcurveto
            endchar
          </CharString>
          <CharString index="91">
            -31 24 hlineto
            -40 callgsubr
            return
          </CharString>
          <CharString index="92">
            -94 callsubr
            -5 62 rmoveto
            -12 -22 -251 126 -12 7 -6 3 -5 8 rlinecurve
            23 -13 16 29 27 hhcurveto
            11 8 -6 -6 10 hvcurveto
            endchar
          </CharString>
          <CharString index="93">
            23 callsubr
            194 hmoveto
            -56 callsubr
            endchar
          </CharString>
          <CharString index="94">
            500 666 100 hstem
            103 100 93 100 vstem
            -1 callsubr
            endchar
          </CharString>
          <CharString index="95">
            27 callgsubr
            369 42 return
          </CharString>
          <CharString index="96">
            vlineto
            4 callgsubr
            return
          </CharString>
          <CharString index="97">
            306 12 callgsubr
            410 86 34 22 hstem
            112 63 95 87 vstem
            357 886 rmoveto
            45 -34 52 -56 -95 -60 -148 -136 vhcurveto
            -268 -79 -31 79 146 callsubr
            114 3 rlineto
            40 47 0 -3 40 83 callgsubr
            322 114 31 -117 271 vlineto
            90 28 169 64 29 19 -23 -11 6 vhcurveto
            -12 55 callsubr
            endchar
          </CharString>
          <CharString index="98">
            364 rmoveto
            99 -5 102 -48 88 vhcurveto
            58 -32 -60 39 -66 hhcurveto
            -66 -60 -39 -58 -32 hvcurveto
            -48 -88 -5 -102 -99 vvcurveto
            -99 5 -102 48 -88 vhcurveto
            -58 32 60 -39 66 hhcurveto
            66 60 39 58 32 hvcurveto
            48 88 5 102 99 vvcurveto
            -84 hmoveto
            -92 -2 -93 -30 -87 vhcurveto
            -47 -16 -31 -45 -48 hhcurveto
            -48 -31 45 47 -16 hvcurveto
            -30 87 -2 93 92 vvcurveto
            92 2 93 30 87 vhcurveto
            47 16 31 45 48 hhcurveto
            48 31 -45 -47 16 hvcurveto
            30 -87 2 -93 -92 vvcurveto
            endchar
          </CharString>
          <CharString index="99">
            174 rmoveto
            -25 hlineto
            -5 -30 -7 -44 -10 -15 rrcurveto
            -8 -7 -66 0 -22 hhcurveto
            -198 hlineto
            195 274 rlineto
            67 94 78 105 131 vvcurveto
            143 -76 120 -136 -143 -44 -170 -99 -19 4 -41 49 31 21 23 29 38 -31 15 -22 -8 -4 -1 -2 -6 vhcurveto
            94 9 41 102 95 hhcurveto
            105 24 -120 -109 -105 -34 -104 -91 -150 hvcurveto
            -175 -288 rlineto
            -8 -12 0 -2 -23 vvcurveto
            371 hlineto
            endchar
          </CharString>
          <CharString index="100">
            29 -23 15 -23 -23 -23 -15 -29 vhcurveto
            -6 vlineto
            35 -395 rlineto
            22 hlineto
            34 395 rlineto
            1 2 0 4 0 vvcurveto
            return
          </CharString>
          <CharString index="101">
            18 5 20 75 46 hhcurveto
            56 48 -110 -139 hvcurveto
            return
          </CharString>
          <CharString index="102">
            -115 rmoveto
            -55 callgsubr
            return
          </CharString>
          <CharString index="103">
            -3 rlineto
            26 callsubr
            return
          </CharString>
          <CharString index="104">
            -39 -34 17 24 -30 hvcurveto
            -81 71 -11 116 99 vvcurveto
            140 37 188 165 vhcurveto
            117 -12 34 -129 11 -89 rrcurveto
            -12 2 -4 -19 20 hhcurveto
            11 4 6 10 hvcurveto
            261 vlineto
            7 -3 8 -8 -13 -16 -33 -17 -12 vhcurveto
            -6 -8 -6 -8 -4 -9 rrcurveto
            39 -33 -41 36 -68 hhcurveto
            -182 -108 -190 -168 -169 107 -190 183 hvcurveto
            return
          </CharString>
          <CharString index="105">
            500 -11 76 callsubr
            return
          </CharString>
          <CharString index="106">
            203 3 callgsubr
            return
          </CharString>
          <CharString index="107">
            278 12 callgsubr
            -31 42 return
          </CharString>
          <CharString index="108">
            vlineto
            -147 -11 rlineto
            -31 vlineto
            return
          </CharString>
          <CharString index="109">
            -103 callgsubr
            hintmask 01100000
            return
          </CharString>
          <CharString index="110">
            652 258 rmoveto
            -25 hlineto
            -154 -25 -23 -73 -172 hhcurveto
            -133 hlineto
            -47 -2 7 33 hvcurveto
            411 90 vlineto
            97 11 -32 -85 hvcurveto
            25 265 -25 hlineto
            -86 -11 -31 -97 vhcurveto
            -90 374 hlineto
            33 2 7 47 vhcurveto
            129 hlineto
            153 27 -55 -139 16 hvcurveto
            25 hlineto
            hintmask 0000010000000000
            54 callgsubr
            -563 -31 24 hlineto
            return
          </CharString>
          <CharString index="111">
            hmoveto
            26 callsubr
            896 vlineto
            return
          </CharString>
          <CharString index="112">
            54 -1 29 -23 -31 vvcurveto
            -38 -43 -17 -93 vhcurveto
            -31 -22 return
          </CharString>
          <CharString index="113">
            589 46 callgsubr
            hstem
            return
          </CharString>
          <CharString index="114">
            85 -276 hlineto
            -123 93 -12 36 71 28 71 64 vhcurveto
            return
          </CharString>
          <CharString index="115">
            1012 rmoveto
            10 -2 -9 7 -9 hhcurveto
            hintmask 11000000
            -5 -1 -19 -4 -2 -41 -6 -25 rlinecurve
            -52 -223 -273 -1186 rlineto
            -3 -18 -9 -21 -18 vvcurveto
            -11 1 9 -8 11 hhcurveto
            2 hlineto
            22 4 4 49 5 27 274 1187 rcurveline
            51 224 rlineto
            5 15 5 19 14 vvcurveto
            endchar
          </CharString>
          <CharString index="116">
            22 0 31 86 22 331 22 438 31 return
          </CharString>
          <CharString index="117">
            10 11 11 10 12 9 rrcurveto
            121 1 100 98 126 vvcurveto
            -98 callgsubr
            return
          </CharString>
          <CharString index="118">
            4 0 2 4 15 vhcurveto
            54 218 rlineto
            246 hlineto
            62 -249 rlineto
            1 -6 2 -7 0 vvcurveto
            -32 -62 0 -27 vhcurveto
            -31 vlineto
            3 31 56 0 39 hhcurveto
            -47 -33 -34 -39 129 callgsubr
            -258 471 rmoveto
            -230 hlineto
            115 458 rlineto
            return
          </CharString>
          <CharString index="119">
            rmoveto
            -214 264 hlineto
            138 63 128 86 27 25 -10 -7 13 vhcurveto
            -20 vlineto
            -8 -3 -17 -11 -26 vvcurveto
            -17 8 -15 17 -7 vhcurveto
            endchar
          </CharString>
          <CharString index="120">
            -39 -78 -46 callgsubr
            return
          </CharString>
          <CharString index="121">
            vlineto
            -53 -9 rlineto
            7 -12 -28 13 -38 hhcurveto
            -118 -94 -133 -156 32 callsubr
            return
          </CharString>
          <CharString index="122">
            -89 callsubr
            112 3 113 -4 callsubr
            168 vlineto
            -7 5 42 -54 76 hhcurveto
            119 104 98 129 hvcurveto
            -83 hmoveto
            -121 -70 -84 -74 -40 -38 20 41 -27 vhcurveto
            -14 21 0 1 20 vvcurveto
            223 vlineto
            return
          </CharString>
          <CharString index="123">
            -25 hlineto
            -1 -82 -30 -107 -98 -4 rrcurveto
            -22 vlineto
            return
          </CharString>
          <CharString index="124">
            -77 29 callsubr
            return
          </CharString>
          <CharString index="125">
            -35 -18 -26 -26 -27 18 -26 35 return
          </CharString>
          <CharString index="126">
            -5 callsubr
            20 return
          </CharString>
          <CharString index="127">
            hmoveto
            31 -32 vlineto
            -90 -3 11 37 hvcurveto
            839 22 callgsubr
            -781 15 callgsubr
          </CharString>
          <CharString index="128">
            31 -24 24 -31 -16 -16 -6 -13 -10 vhcurveto
            -1 5 0 5 5 vvcurveto
            67 29 65 50 44 vhcurveto
            2 2 2 3 3 vvcurveto
            6 -8 8 -7 vhcurveto
            0 -4 -1 -2 -1 vhcurveto
            -55 -49 -33 -73 -74 vvcurveto
            -43 16 -63 53 31 24 24 31 vhcurveto
            return
          </CharString>
          <CharString index="129">
            43 -16 63 -53 -31 -24 -24 -31 -31 24 -24 31 16 16 6 13 10 vhcurveto
            1 -5 0 -5 -5 vvcurveto
            -67 -29 -65 -50 -44 vhcurveto
            -2 -2 -2 -3 -3 vvcurveto
            -6 8 -8 7 vhcurveto
            0 4 1 2 1 vhcurveto
            55 49 33 73 74 vvcurveto
            return
          </CharString>
          <CharString index="130">
            725 rmoveto
            -56 callsubr
            return
          </CharString>
          <CharString index="131">
            -97 callgsubr
            50 305 rmoveto
            -16 15 rlineto
            return
          </CharString>
          <CharString index="132">
            750 -22 30 858 28 -6 178 -172 30 6 28 return
          </CharString>
          <CharString index="133">
            31 vlineto
            -28 callsubr
            return
          </CharString>
          <CharString index="134">
            57 -22 37 -36 -31 -17 -24 -23 vhcurveto
            hintmask 01100010
            -24 16 -24 32 14 11 5 9 11 vhcurveto
            0 2 -1 -12 vvcurveto
            -58 -25 -55 -40 -42 vhcurveto
            50 callgsubr
            -4 50 callsubr
            5 11 71 71 104 vhcurveto
            endchar
          </CharString>
          <CharString index="135">
            vlineto
            -144 -81 callgsubr
            return
          </CharString>
          <CharString index="136">
            -2 11 36 hvcurveto
            return
          </CharString>
          <CharString index="137">
            22 3 0 21 99 -54 97 77 callgsubr
            -92 -103 -125 -130 98 -95 111 -6 hvcurveto
            -35 -30 -31 -37 -43 93 callsubr
            return
          </CharString>
          <CharString index="138">
            50 -23 44 -21 44 -23 50 36 50 137 44 -23 50 hintmask 0101000100000000
            return
          </CharString>
          <CharString index="139">
            hvcurveto
            -263 -79 -31 79 -29 callsubr
            211 146 callsubr
            return
          </CharString>
          <CharString index="140">
            6 callgsubr
            45 31 return
          </CharString>
          <CharString index="141">
            32 77 207 69 73 25 return
          </CharString>
          <CharString index="142">
            134 -93 callgsubr
          </CharString>
          <CharString index="143">
            -34 -31 6 37 hvcurveto
            484 vlineto
            8 -3 8 -11 -13 -13 -15 -6 -12 vhcurveto
            -26 -44 -52 -7 -50 hhcurveto
            -31 vlineto
            41 45 3 18 37 hvcurveto
            -436 vlineto
            -38 -36 -5 -36 vhcurveto
            return
          </CharString>
          <CharString index="144">
            1511 vlineto
            12 -6 14 -14 vhcurveto
            0 -3 0 -2 -1 vhcurveto
            -12 -2 -3 -12 -10 vvcurveto
            -1506 vlineto
            -14 6 -10 13 vhcurveto
            4 hlineto
            9 1 6 8 2 9 rrcurveto
            return
          </CharString>
          <CharString index="145">
            5 callsubr
            44 hlineto
            return
          </CharString>
          <CharString index="146">
            500 -11 25 412 22 return
          </CharString>
          <CharString index="147">
            69 callgsubr
            86 callsubr
            return
          </CharString>
          <CharString index="148">
            56 callsubr
            hstemhm
            return
          </CharString>
          <CharString index="149">
            110 86 callgsubr
            return
          </CharString>
          <CharString index="150">
            111 callgsubr
            805 vlineto
            36 2 11 77 vhcurveto
            24 31 return
          </CharString>
          <CharString index="151">
            31 233 31 679 31 return
          </CharString>
          <CharString index="152">
            -49 callgsubr
            endchar
          </CharString>
          <CharString index="153">
            68 callsubr
            86 103 -25 25 return
          </CharString>
          <CharString index="154">
            104 callsubr
            825 31 43 31 return
          </CharString>
          <CharString index="155">
            568 vlineto
            62 6 52 47 61 vvcurveto
            return
          </CharString>
          <CharString index="156">
            333 187 58 hstem
            276 187 rmoveto
            58 -265 -58 vlineto
            endchar
          </CharString>
          <CharString index="157">
            vvcurveto
            -6 4 -4 return
          </CharString>
          <CharString index="158">
            750 -200 106 94 -39 callgsubr
            -20 return
          </CharString>
          <CharString index="159">
            rlineto
            54 24 47 11 42 hhcurveto
            return
          </CharString>
          <CharString index="160" raw="1">
            f727b91d 120b  
          </CharString>
          <CharString index="161">
            hstemhm
            136 89 return
          </CharString>
          <CharString index="162">
            -39 0 -43 -25 18 -18 25 24 20 15 30 hvcurveto
            return
          </CharString>
          <CharString index="163">
            19 161 19 return
          </CharString>
          <CharString index="164">
            vlineto
            -34 0 -14 -95 vhcurveto
            -33 -31 hlineto
            3 36 92 0 41 hhcurveto
            41 93 0 -3 36 hvcurveto
            31 -33 vlineto
            -95 0 13 35 hvcurveto
            return
          </CharString>
          <CharString index="165">
            hstemhm
            256 83 -75 83 69 83 188 25 109 25 3 25 return
          </CharString>
          <CharString index="166">
            0 1120 46 callgsubr
            hstem
            return
          </CharString>
          <CharString index="167">
            28 184 98 282 22 223 83 -62 83 24 -20 hstemhm
            return
          </CharString>
          <CharString index="168">
            722 10 -21 365 31 15 31 return
          </CharString>
          <CharString index="169">
            25 386 31 184 -20 return
          </CharString>
          <CharString index="170">
            vhcurveto
            31 vlineto
            -109 -3 return
          </CharString>
          <CharString index="171">
            rmoveto
            17 -12 32 -39 -20 -44 -6 -41 -42 vhcurveto
            hintmask 000010000100000000000000
            24 callgsubr
            hvcurveto
            return
          </CharString>
          <CharString index="172">
            6 6 1 6 hhcurveto
            355 hlineto
            14 12 6 14 hvcurveto
            endchar
          </CharString>
          <CharString index="173">
            hlineto
            93 572 rlineto
            1 3 1 10 0 vvcurveto
            11 -9 9 -11 -16 -2 -12 -16 -3 vhcurveto
            -94 -577 rlineto
            return
          </CharString>
          <CharString index="174">
            -152 hlineto
            114 449 rlineto
            38 -2 0 -27 -15 vvcurveto
            return
          </CharString>
          <CharString index="175">
            9 callsubr
            hstemhm
            35 103 return
          </CharString>
          <CharString index="176">
            1029 -53 callgsubr
          </CharString>
          <CharString index="177">
            62 callsubr
            hstemhm
            104 69 return
          </CharString>
          <CharString index="178">
            415 119 rmoveto
            10 return
          </CharString>
          <CharString index="179">
            4 67 0 11 47 hvcurveto
            return
          </CharString>
          <CharString index="180">
            vstem
            444 250 rmoveto
            107 -87 87 -107 -107 -87 -87 -107 -107 87 -87 107 107 87 87 107 vhcurveto
            return
          </CharString>
          <CharString index="181">
            16 75 callsubr
            return
          </CharString>
          <CharString index="182">
            hvcurveto
            25 hlineto
            54 callgsubr
            return
          </CharString>
          <CharString index="183">
            22 415 22 return
          </CharString>
          <CharString index="184">
            rmoveto
            8 -4 8 -9 -6 -6 -3 -6 -1 vhcurveto
            -13 vlineto
            -104 -12 -44 -121 -121 hhcurveto
            return
          </CharString>
          <CharString index="185">
            44 hlineto
            72 callsubr
            74 callgsubr
            return
          </CharString>
          <CharString index="186">
            70 callsubr
            -25 25 return
          </CharString>
          <CharString index="187">
            22 -22 42 389 22 488 42 hstemhm
            34 83 return
          </CharString>
          <CharString index="188">
            -25 callgsubr
            77 -21 return
          </CharString>
          <CharString index="189">
            hstem
            -400 22 255 22 vstem
            -101 return
          </CharString>
          <CharString index="190">
            74 84 callsubr
            hstemhm
            return
          </CharString>
          <CharString index="191">
            -21 196 -20 return
          </CharString>
          <CharString index="192" raw="1">
            7b0a068e 0b  
          </CharString>
          <CharString index="193">
            31 899 31 return
          </CharString>
          <CharString index="194">
            hintmask 10000100
            -18 callsubr
            return
          </CharString>
          <CharString index="195">
            10 -20 -23 6 -22 hhcurveto
            -67 -54 -55 -67 hvcurveto
            -10 vlineto
            -46 5 39 -27 41 hhcurveto
            return
          </CharString>
          <CharString index="196">
            778 -34 -21 33 22 961 22 33 -20 return
          </CharString>
          <CharString index="197">
            722 0 150 callgsubr
            return
          </CharString>
          <CharString index="198">
            -1 14 1 14 -2 14 rrcurveto
            return
          </CharString>
          <CharString index="199">
            45 -6 45 hstemhm
            return
          </CharString>
          <CharString index="200">
            -36 callgsubr
            3 12 -15 5 -5 -10 rrcurveto
            return
          </CharString>
          <CharString index="201">
            -507 -21 1556 -20 hstem
            return
          </CharString>
          <CharString index="202">
            500 134 callgsubr
            return
          </CharString>
          <CharString index="203">
            -211 47 164 31 return
          </CharString>
          <CharString index="204">
            521 216 rmoveto
            127 -97 99 -112 -78 -42 -44 -22 -20 vhcurveto
            return
          </CharString>
          <CharString index="205">
            104 callsubr
            453 31 415 31 return
          </CharString>
          <CharString index="206">
            306 -205 22 12 92 479 42 return
          </CharString>
          <CharString index="207">
            0 -3 41 hvcurveto
            31 return
          </CharString>
          <CharString index="208">
            103 459 103 return
          </CharString>
          <CharString index="209">
            130 callsubr
            29 38 21 hvcurveto
            return
          </CharString>
          <CharString index="210">
            14 callgsubr
            141 46 callgsubr
            hstemhm
            28 83 return
          </CharString>
          <CharString index="211">
            750 0 31 return
          </CharString>
          <CharString index="212">
            3 35 78 0 39 hhcurveto
            41 91 0 -3 36 hvcurveto
            31 -33 vlineto
            return
          </CharString>
          <CharString index="213">
            56 callsubr
            hstem
            152 36 callgsubr
            vstem
            346 return
          </CharString>
          <CharString index="214">
            1 -40 -38 23 -40 hhcurveto
            -22 -17 -13 -21 -20 14 -16 24 hvcurveto
            return
          </CharString>
          <CharString index="215">
            -63 vlineto
            5 callsubr
            return
          </CharString>
          <CharString index="216">
            14 callgsubr
            hstemhm
            28 return
          </CharString>
          <CharString index="217">
            -11 callgsubr
            52 -21 return
          </CharString>
          <CharString index="218">
            hstemhm
            136 88 358 30 return
          </CharString>
          <CharString index="219">
            100 callgsubr
            -40 89 return
          </CharString>
          <CharString index="220">
            45 -6 45 54 callsubr
            return
          </CharString>
          <CharString index="221">
            106 hstem
            85 107 vstem
            192 return
          </CharString>
          <CharString index="222">
            -21 867 77 32 -20 hstem
            return
          </CharString>
          <CharString index="223">
            rmoveto
            27 -23 26 -30 vhcurveto
            return
          </CharString>
          <CharString index="224">
            -119 3 rlineto
            -31 vlineto
            return
          </CharString>
          <CharString index="225">
            415 -54 rmoveto
            31 -99 385 vlineto
            3 1 5 4 vvcurveto
            return
          </CharString>
          <CharString index="226">
            28 159 112 -56 25 446 101 126 25 hstemhm
            return
          </CharString>
          <CharString index="227">
            23 316 23 hstem
            -346 26 140 26 vstem
            -180 return
          </CharString>
          <CharString index="228">
            31 vlineto
            -3 -36 return
          </CharString>
          <CharString index="229">
            681 0 31 424 26 449 31 hstem
            35 103 return
          </CharString>
          <CharString index="230">
            54 callsubr
            61 107 30 20 callgsubr
            return
          </CharString>
          <CharString index="231">
            9 hlineto
            131 11 71 133 118 vvcurveto
            endchar
          </CharString>
          <CharString index="232">
            31 hstem
            136 89 299 89 return
          </CharString>
          <CharString index="233">
            140 callsubr
            103 return
          </CharString>
          <CharString index="234">
            18 14 16 hvcurveto
            return
          </CharString>
          <CharString index="235">
            -506 -21 1555 -20 21 -20 hstemhm
            hintmask 00100000
            return
          </CharString>
          <CharString index="236">
            hstemhm
            32 77 -48 48 142 48 17 69 73 25 return
          </CharString>
          <CharString index="237">
            -36 -17 -28 -20 -32 hhcurveto
            -36 -51 23 46 40 38 return
          </CharString>
          <CharString index="238">
            31 callgsubr
            -11 22 return
          </CharString>
          <CharString index="239">
            -13 -13 1 -11 hhcurveto
            -31 return
          </CharString>
          <CharString index="240">
            -11 9 -9 11 return
          </CharString>
          <CharString index="241">
            22 172 22 return
          </CharString>
          <CharString index="242">
            1000 -78 -21 330 40 330 -20 hstem
            return
          </CharString>
          <CharString index="243">
            -145 -11 rlineto
            -31 19 vlineto
            32 27 -4 -51 return
          </CharString>
          <CharString index="244">
            778 -211 47 142 25 955 25 return
          </CharString>
          <CharString index="245">
            722 -22 31 943 31 return
          </CharString>
          <CharString index="246">
            hstemhm
            35 103 86 103 -25 25 return
          </CharString>
          <CharString index="247">
            62 84 callsubr
            hstemhm
            56 return
          </CharString>
          <CharString index="248">
            hstemhm
            42 callsubr
            return
          </CharString>
          <CharString index="249">
            vvcurveto
            133 callsubr
            return
          </CharString>
          <CharString index="250">
            32 54 callsubr
            return
          </CharString>
          <CharString index="251">
            500 504 -21 return
          </CharString>
          <CharString index="252">
            -194 31 163 31 719 -20 hstem
            return
          </CharString>
          <CharString index="253">
            -324 -89 callsubr
            return
          </CharString>
          <CharString index="254">
            hlineto
            -14 117 callgsubr
            15 hvcurveto
            return
          </CharString>
          <CharString index="255">
            778 -19 -21 580 -20 hstem
            694 return
          </CharString>
          <CharString index="256">
            40 rmoveto
            -84 1476 84 hlineto
            endchar
          </CharString>
        <CharString name=".notdef">
          280 endchar
        </CharString>
        <CharString name="A">
          -48 callsubr
          hstemhm
          hintmask 11001000
          718 hmoveto
          -105 callgsubr
          hintmask 10110000
          -102 callgsubr
          endchar
        </CharString>
        <CharString name="AE">
          149 callgsubr
          58 callsubr
          hintmask 1110111110000000
          -50 callgsubr
          hintmask 1101010010000000
          33 callgsubr
          hintmask 0100110000000000
          67 callsubr
          endchar
        </CharString>
        <CharString name="AE.dup">
          149 callgsubr
          58 callsubr
          hintmask 1110111110000000
          -50 callgsubr
          hintmask 1101010010000000
          33 callgsubr
          hintmask 0100110000000000
          67 callsubr
          endchar
        </CharString>
        <CharString name="AEacute">
          149 callgsubr
          84 -21 196 -20 58 callsubr
          hintmask 1110001111100000
          -50 callgsubr
          hintmask 1100010100100000
          33 callgsubr
          hintmask 0100001100000000
          67 callsubr
          hintmask 0001100000000000
          224 286 -104 callsubr
        </CharString>
        <CharString name="Aacute">
          -48 callsubr
          71 -54 callgsubr
          218 354 -104 callsubr
        </CharString>
        <CharString name="Abreve">
          -48 callsubr
          50 35 161 -20 hstemhm
          225 85 callgsubr
          hintmask 1100100100000000
          718 hmoveto
          -105 callgsubr
          hintmask 1011000000000000
          -102 callgsubr
          hintmask 0000011110000000
          179 406 -94 callsubr
          endchar
        </CharString>
        <CharString name="Abreveacute">
          -48 callsubr
          50 35 397 -20 hstemhm
          225 85 callgsubr
          hintmask 1100100100000000
          718 hmoveto
          -105 callgsubr
          hintmask 1011000000000000
          -102 callgsubr
          hintmask 0000011110000000
          179 406 -94 callsubr
          -9 184 -104 callsubr
        </CharString>
        <CharString name="Abrevedotbelow">
          51 callsubr
          50 35 161 -20 hstemhm
          225 22 74 107 75 22 hintmask 0110010010000000
          718 hmoveto
          -105 callgsubr
          hintmask 0101101110100000
          -102 callgsubr
          179 406 -94 callsubr
          hintmask 1000000001000000
          -97 -1367 rmoveto
          -101 callgsubr
        </CharString>
        <CharString name="Abrevegrave">
          -48 callsubr
          50 35 161 -20 hstemhm
          225 85 callgsubr
          hintmask 1100100100000000
          718 hmoveto
          -105 callgsubr
          hintmask 1011000000000000
          -102 callgsubr
          hintmask 0000011110000000
          179 406 -15 callsubr
        </CharString>
        <CharString name="Abrevehookabove">
          -48 callsubr
          50 35 171 19 113 35 13 19 hstemhm
          225 82 callgsubr
          31 22 hintmask 1100100001000000
          718 hmoveto
          -105 callgsubr
          hintmask 1011000000000000
          -102 callgsubr
          hintmask 0000010111101010
          179 406 -94 callsubr
          -53 142 rmoveto
          21 -11 19 -18 11 vhcurveto
          12 -21 -25 4 -29 hhcurveto
          -47 -43 -25 -41 -19 14 -11 16 15 14 11 18 17 -11 11 -14 2 hvcurveto
          11 13 20 7 23 hhcurveto
          45 8 -13 0 hvcurveto
          hintmask 0000001100010100
          -25 callsubr
        </CharString>
        <CharString name="Abrevetilde">
          -48 callsubr
          50 35 221 92 callsubr
          225 85 callgsubr
          hintmask 1100100010000000
          718 hmoveto
          -105 callgsubr
          hintmask 1011000000000000
          -102 callgsubr
          hintmask 0000010111000000
          179 406 -94 callsubr
          45 129 rmoveto
          -16 15 rlineto
          hintmask 0000001000000000
          -19 -26 -14 -20 -42 hhcurveto
          hintmask 0000000100000000
          -59 callgsubr
          hintmask 0000001000000000
          17 -15 rlineto
          hintmask 0000000100000000
          23 23 25 16 33 hhcurveto
          hintmask 0000001000000000
          -77 callgsubr
        </CharString>
        <CharString name="Acaron">
          750 0 31 41 31 -27 31 218 31 638 -20 61 -54 callgsubr
          195 381 -64 callgsubr
        </CharString>
        <CharString name="Acircumflex">
          750 0 31 41 31 -27 31 218 31 638 -20 61 -54 callgsubr
          195 215 -53 callgsubr
        </CharString>
        <CharString name="Acircumflexacute">
          58 callgsubr
          412 -20 hstemhm
          hintmask 11001000
          718 hmoveto
          -105 callgsubr
          hintmask 10110000
          -102 callgsubr
          hintmask 00000110
          195 215 -97 callgsubr
          -4 360 -104 callsubr
        </CharString>
        <CharString name="Acircumflexdotbelow">
          51 callsubr
          61 84 callsubr
          hstemhm
          321 107 hintmask 0110010000000000
          718 hmoveto
          -105 callgsubr
          hintmask 0101101100000000
          -102 callgsubr
          195 215 -97 callgsubr
          hintmask 1000000010000000
          -91 -1161 rmoveto
          -101 callgsubr
        </CharString>
        <CharString name="Acircumflexgrave">
          750 0 31 41 31 -27 31 218 31 638 -20 61 -54 callgsubr
          195 215 -71 callgsubr
        </CharString>
        <CharString name="Acircumflexhookabove">
          58 callgsubr
          206 41 callsubr
          375 36 callgsubr
          hintmask 1100100010000000
          718 hmoveto
          -105 callgsubr
          hintmask 1011000000000000
          -102 callgsubr
          hintmask 0000011111100000
          195 215 -97 callgsubr
          50 338 -107 callsubr
        </CharString>
        <CharString name="Acircumflextilde">
          58 callgsubr
          236 92 callsubr
          hintmask 11001000
          718 hmoveto
          -105 callgsubr
          hintmask 10110000
          -102 callgsubr
          hintmask 00000101
          195 215 24 callsubr
          hintmask 00000010
          -19 -26 -14 -20 -42 hhcurveto
          hintmask 00000001
          -59 callgsubr
          hintmask 00000010
          17 -15 rlineto
          hintmask 00000001
          23 23 25 16 33 hhcurveto
          hintmask 00000010
          -77 callgsubr
        </CharString>
        <CharString name="Adblgrave">
          -48 callsubr
          71 -21 hstemhm
          hintmask 11001000
          718 hmoveto
          -105 callgsubr
          hintmask 10110000
          -102 callgsubr
          hintmask 00000100
          22 232 -75 callgsubr
        </CharString>
        <CharString name="Adieresis">
          -48 callsubr
          40 100 hstemhm
          228 100 93 100 hintmask 11001000
          718 hmoveto
          -105 callgsubr
          hintmask 10110000
          -102 callgsubr
          hintmask 00000111
          -18 250 -93 callgsubr
        </CharString>
        <CharString name="Adotbelow">
          51 callsubr
          hstemhm
          321 107 hintmask 01100100
          718 hmoveto
          -105 callgsubr
          hintmask 01011000
          -102 callgsubr
          hintmask 10000010
          82 -961 rmoveto
          -101 callgsubr
        </CharString>
        <CharString name="Agrave">
          -48 callsubr
          71 -54 callgsubr
          126 232 -76 callsubr
        </CharString>
        <CharString name="Ahookabove">
          -48 callsubr
          72 41 callsubr
          277 36 callgsubr
          hintmask 1100100000000000
          718 hmoveto
          -105 callgsubr
          hintmask 1011000000000000
          -102 callgsubr
          hintmask 0000011111000000
          125 364 -107 callsubr
        </CharString>
        <CharString name="Alpha">
          -48 callsubr
          hstemhm
          hintmask 11001000
          718 hmoveto
          -105 callgsubr
          hintmask 10110000
          -102 callgsubr
          endchar
        </CharString>
        <CharString name="Amacron">
          -48 callsubr
          60 32 hstemhm
          hintmask 11001000
          718 hmoveto
          -105 callgsubr
          hintmask 10110000
          -102 callgsubr
          hintmask 00000100
          209 220 -24 callsubr
        </CharString>
        <CharString name="Aogonek">
          750 -211 47 164 -26 callsubr
          hstemhm
          490 48 hintmask 11100100
          719 -5 callsubr
          40 36 34 35 24 hvcurveto
          37 36 -1 -2 36 hvcurveto
          -105 callgsubr
          hintmask 11011100
          11 callsubr
          endchar
        </CharString>
        <CharString name="Aogonekacute">
          750 -211 47 164 -26 callsubr
          689 84 callsubr
          hstemhm
          490 48 hintmask 11100001
          719 -5 callsubr
          40 36 34 35 24 hvcurveto
          37 36 -1 -2 36 hvcurveto
          -105 callgsubr
          hintmask 11011001
          11 callsubr
          hintmask 00000110
          218 354 -104 callsubr
        </CharString>
        <CharString name="Aring">
          -54 callsubr
          23 130 23 hstemhm
          279 26 140 26 hintmask 11001000
          718 hmoveto
          -105 callgsubr
          hintmask 10110001
          -102 callgsubr
          hintmask 00001111
          99 268 -50 callsubr
          endchar
        </CharString>
        <CharString name="Aringacute">
          -54 callsubr
          23 130 23 216 -20 hstemhm
          279 26 140 26 hintmask 1100100000000000
          718 hmoveto
          -105 callgsubr
          hintmask 1011000010000000
          -102 callgsubr
          hintmask 0000111110000000
          99 268 -50 callsubr
          45 251 -104 callsubr
        </CharString>
        <CharString name="Atilde">
          -48 callsubr
          40 92 callsubr
          hintmask 11001000
          718 hmoveto
          -105 callgsubr
          hintmask 10110000
          -102 callgsubr
          hintmask 00000010
          223 269 rmoveto
          -16 15 rlineto
          hintmask 00000100
          -19 -26 -14 -20 -42 hhcurveto
          hintmask 00000010
          -59 callgsubr
          hintmask 00000100
          17 -15 rlineto
          hintmask 00000010
          23 23 25 16 33 hhcurveto
          hintmask 00000100
          -77 callgsubr
        </CharString>
        <CharString name="B">
          -27 callgsubr
        </CharString>
        <CharString name="Beta">
          -27 callgsubr
        </CharString>
        <CharString name="C">
          138 callsubr
          hstem
          56 103 476 30 vstem
          665 -87 callsubr
          -295 168 -208 181 193 67 228 137 hvcurveto
          endchar
        </CharString>
        <CharString name="Cacute">
          138 callsubr
          126 callsubr
          476 30 hintmask 11001100
          665 -87 callsubr
          -295 168 -208 181 193 67 228 137 hvcurveto
          hintmask 00110000
          -79 825 -104 callsubr
        </CharString>
        <CharString name="Ccaron">
          138 callsubr
          52 84 callsubr
          hstemhm
          56 103 476 30 hintmask 11001100
          665 -87 callsubr
          -295 168 -208 181 193 67 228 137 hvcurveto
          hintmask 00110000
          -102 852 -64 callgsubr
        </CharString>
        <CharString name="Ccedilla">
          722 -203 22 159 31 334 22 587 31 hstemhm
          56 103 212 69 14 69 0 69 43 30 hintmask 0111110110000000
          665 -87 callsubr
          -276 147 -200 168 -24 hvcurveto
          -52 vlineto
          hintmask 1010011010000000
          4 callgsubr
          72 callgsubr
          -1 36 rlineto
          167 25 59 209 128 vvcurveto
          endchar
        </CharString>
        <CharString name="Ccircumflex">
          138 callsubr
          52 84 callsubr
          hstemhm
          56 103 476 30 hintmask 11001100
          665 -87 callsubr
          -295 168 -208 181 193 67 228 137 hvcurveto
          hintmask 00110000
          -102 686 -53 callgsubr
        </CharString>
        <CharString name="Cdotaccent">
          138 callsubr
          53 106 hstemhm
          56 103 184 107 185 30 hintmask 11010100
          665 -87 callsubr
          -295 168 -208 181 193 67 228 137 hvcurveto
          hintmask 00101000
          -215 746 rmoveto
          -101 callgsubr
        </CharString>
        <CharString name="Chi">
          -45 callsubr
        </CharString>
        <CharString name="D">
          764 116 callgsubr
          138 86 383 100 vstem
          -61 callgsubr
          endchar
        </CharString>
        <CharString name="Dcaron">
          764 28 callgsubr
          83 callsubr
          138 86 383 100 hintmask 11001100
          -61 callgsubr
          hintmask 00110000
          -118 722 -64 callgsubr
        </CharString>
        <CharString name="Dcroat">
          -39 callsubr
        </CharString>
        <CharString name="Ddotbelow">
          764 40 callsubr
          hstemhm
          138 86 45 107 231 100 hintmask 01110100
          -61 callgsubr
          hintmask 10001000
          -231 -620 rmoveto
          -101 callgsubr
        </CharString>
        <CharString name="Delta">
          833 9 67 918 -20 hstem
          786 9 rmoveto
          3 -2 6 -1 3 vhcurveto
          -343 952 rlineto
          16 -6 -2 5 -16 hhcurveto
          -13 -5 -2 -18 -6 hvcurveto
          -343 -953 rlineto
          -1 -3 -2 -6 -3 vvcurveto
          -9 7 0 16 vhcurveto
          694 hlineto
          16 7 0 9 hvcurveto
          -118 67 rmoveto
          -566 hlineto
          283 787 rlineto
          endchar
        </CharString>
        <CharString name="Dlinebelow">
          764 -163 32 131 86 callsubr
          hstemhm
          138 86 383 100 hintmask 01111000
          -61 callgsubr
          hintmask 10000000
          -104 -636 -24 callsubr
        </CharString>
        <CharString name="E">
          -25 callgsubr
          hstem
          137 callgsubr
          vstem
          -106 callsubr
          endchar
        </CharString>
        <CharString name="Eacute">
          -25 callgsubr
          87 -52 callsubr
          -81 1168 -104 callsubr
        </CharString>
        <CharString name="Ebreve">
          -25 callgsubr
          66 35 161 -20 54 callsubr
          -35 22 211 25 20 22 109 25 3 25 hintmask 1110010101100000
          -106 callsubr
          hintmask 0001101010000000
          -120 1220 -94 callsubr
          endchar
        </CharString>
        <CharString name="Ecaron">
          681 0 31 451 31 414 31 77 -52 callsubr
          -104 1195 -64 callgsubr
        </CharString>
        <CharString name="Ecircumflex">
          681 0 31 451 31 414 31 77 -52 callsubr
          -104 69 callsubr
        </CharString>
        <CharString name="Ecircumflexacute">
          81 callsubr
          412 -20 -3 callgsubr
          hintmask 1110011110000000
          -106 callsubr
          hintmask 0001100000000000
          -104 1029 -97 callgsubr
          -4 360 -104 callsubr
        </CharString>
        <CharString name="Ecircumflexdotbelow">
          681 69 callgsubr
          5 callgsubr
          77 84 callsubr
          123 callsubr
          hintmask 0111111011100000
          -106 callsubr
          -104 1029 -97 callgsubr
          hintmask 1000000100000000
          -91 -1161 rmoveto
          -101 callgsubr
        </CharString>
        <CharString name="Ecircumflexgrave">
          681 0 31 451 31 414 31 77 -52 callsubr
          -104 1029 -71 callgsubr
        </CharString>
        <CharString name="Ecircumflexhookabove">
          81 callsubr
          206 41 callsubr
          136 89 115 59 21 19 -16 25 43 43 65 25 3 25 hintmask 1110001001011000
          -106 callsubr
          hintmask 0001110110100000
          -104 1029 -97 callgsubr
          50 338 -107 callsubr
        </CharString>
        <CharString name="Ecircumflextilde">
          81 callsubr
          236 45 -6 45 -3 callgsubr
          hintmask 1110001111000000
          -106 callsubr
          hintmask 0001010000000000
          -104 1029 24 callsubr
          hintmask 0000100000000000
          -19 -26 -14 -20 -42 hhcurveto
          hintmask 0000010000000000
          -59 callgsubr
          hintmask 0000100000000000
          17 -15 rlineto
          hintmask 0000010000000000
          23 23 25 16 33 hhcurveto
          hintmask 0000100100000000
          -77 callgsubr
        </CharString>
        <CharString name="Edblgrave">
          -25 callgsubr
          87 -21 -3 callgsubr
          hintmask 11101111
          -106 callsubr
          hintmask 00010000
          -249 1046 -75 callgsubr
        </CharString>
        <CharString name="Edieresis">
          -25 callgsubr
          56 100 54 callsubr
          -32 100 93 100 -63 20 callgsubr
          hintmask 1110100111000000
          -106 callsubr
          hintmask 0001011000000000
          -317 1064 -93 callgsubr
        </CharString>
        <CharString name="Edotaccent">
          -25 callgsubr
          78 106 123 callsubr
          hintmask 1110101110000000
          -106 callsubr
          hintmask 0001010000000000
          -217 1089 rmoveto
          -101 callgsubr
        </CharString>
        <CharString name="Edotbelow">
          681 69 callgsubr
          5 callgsubr
          123 callsubr
          hintmask 0111101110000000
          -106 callsubr
          hintmask 1000010000000000
          -217 -147 rmoveto
          -101 callgsubr
        </CharString>
        <CharString name="Egrave">
          -25 callgsubr
          87 -52 callsubr
          -173 1046 -76 callsubr
        </CharString>
        <CharString name="Ehookabove">
          -25 callgsubr
          88 41 callsubr
          136 89 17 36 callgsubr
          -13 20 callgsubr
          hintmask 1110010001110000
          -106 callsubr
          hintmask 0001101110000000
          -174 1178 -107 callsubr
        </CharString>
        <CharString name="Emacron">
          -25 callgsubr
          76 32 -3 callgsubr
          hintmask 11101111
          -106 callsubr
          hintmask 00010000
          -90 1034 -24 callsubr
        </CharString>
        <CharString name="Eng">
          792 -21 22 0 30 -30 31 8 31 860 31 -5 143 callsubr
          163 111 147 89 hintmask 0000010010000000
          735 223 rmoveto
          403 vlineto
          143 -60 157 -145 49 vhcurveto
          9 -26 -28 5 -27 hhcurveto
          -86 -102 -53 -77 -35 hvcurveto
          hintmask 0101101000000000
          103 -193 104 callgsubr
          hintmask 0010000000000000
          132 callsubr
          295 31 vlineto
          hintmask 0101011110000000
          -11 -12 -1 -12 hhcurveto
          -35 -33 5 35 hvcurveto
          718 vlineto
          34 39 53 32 30 vhcurveto
          33 36 46 18 47 hhcurveto
          163 58 -191 -131 hvcurveto
          -409 vlineto
          -63 -4 -69 -37 -54 vhcurveto
          -21 -15 -20 -18 -26 hhcurveto
          -63 -34 53 54 -21 hvcurveto
          -1 6 6 -1 6 hhcurveto
          30 25 24 31 29 -21 26 -34 -34 -22 -22 -42 hvcurveto
          hintmask 1000000010000000
          -82 1 63 -91 92 hhcurveto
          96 68 76 86 20 hvcurveto
          6 27 1 27 28 vvcurveto
          endchar
        </CharString>
        <CharString name="Eogonek">
          681 96 callsubr
          0 47 404 31 367 47 0 100 callgsubr
          146 48 4 20 callgsubr
          hintmask 0011101011100000
          3 callsubr
          hintmask 0010101000000000
          -60 callgsubr
          hlineto
          hintmask 1100000110100000
          -31 415 vlineto
          -49 -34 -28 -35 -52 93 callsubr
          -36 -17 -28 -20 -32 hhcurveto
          -36 -51 23 46 40 31 31 35 24 hvcurveto
          125 hlineto
          endchar
        </CharString>
        <CharString name="Eogonekacute">
          681 96 callsubr
          0 47 404 31 367 47 0 31 87 84 callsubr
          54 callsubr
          146 48 4 20 callgsubr
          hintmask 0011100010111000
          3 callsubr
          hintmask 0010100010000000
          -60 callgsubr
          hlineto
          hintmask 1100000001101000
          -31 415 vlineto
          -49 -34 -28 -35 -52 93 callsubr
          -36 -17 -28 -20 -32 hhcurveto
          -36 -51 23 46 40 31 31 35 24 hvcurveto
          125 hlineto
          hintmask 0000001100000000
          -81 1168 -104 callsubr
        </CharString>
        <CharString name="Epsilon">
          -25 callgsubr
          hstem
          137 callgsubr
          vstem
          -106 callsubr
          endchar
        </CharString>
        <CharString name="Ereversed">
          -25 callgsubr
          hstem
          33 25 3 25 151 25 198 89 vstem
          652 89 callgsubr
          -563 hlineto
          -28 -225 rlineto
          25 hlineto
          139 16 27 55 153 hhcurveto
          129 hlineto
          47 2 -7 -33 hvcurveto
          -374 -90 vlineto
          -97 -11 31 86 hvcurveto
          -25 -265 25 hlineto
          85 11 32 97 vhcurveto
          90 -411 hlineto
          -33 -2 -7 -47 vhcurveto
          -133 hlineto
          -172 -23 73 154 -25 hvcurveto
          -25 hlineto
          42 -258 rlineto
          endchar
        </CharString>
        <CharString name="Eta">
          98 callsubr
          hstem
          136 89 299 89 vstem
          -96 callsubr
          endchar
        </CharString>
        <CharString name="Eth">
          -39 callsubr
        </CharString>
        <CharString name="Etilde">
          -25 callgsubr
          56 45 -6 45 -3 callgsubr
          hintmask 1110011110000000
          -106 callsubr
          hintmask 0000100000000000
          -76 1083 -1 callgsubr
          hintmask 0001001000000000
          -77 callgsubr
        </CharString>
        <CharString name="Euro">
          627 -22 30 0 30 372 30 82 30 401 30 hstemhm
          112 102 hintmask 01111100
          571 -12 rmoveto
          218 vlineto
          6 -4 4 -6 vhcurveto
          -10 hlineto
          -5 -5 -4 -5 hvcurveto
          -98 -7 -39 -101 -88 hhcurveto
          -71 -45 66 68 -28 hvcurveto
          -36 85 -10 91 -2 92 rrcurveto
          262 hlineto
          108 callgsubr
          -265 41 hlineto
          41 286 vlineto
          108 callgsubr
          -287 hlineto
          2 91 10 92 36 84 rrcurveto
          68 28 45 66 71 hhcurveto
          88 39 -101 -98 7 hvcurveto
          -5 5 -4 5 vhcurveto
          10 hlineto
          6 4 4 6 hvcurveto
          218 vlineto
          6 -4 4 -6 vhcurveto
          -3 hlineto
          -4 -3 -2 -2 -1 hvcurveto
          -36 -55 rlineto
          36 -28 -38 23 -48 hhcurveto
          -90 -70 -69 -80 -45 hvcurveto
          -49 -87 -24 -97 -7 -98 rrcurveto
          -48 103 callgsubr
          48 hlineto
          -1 -41 1 -41 rlineto
          -46 103 callgsubr
          50 hlineto
          7 -99 24 -97 49 -87 rrcurveto
          hintmask 10000000
          -80 45 70 -69 90 hhcurveto
          hintmask 01000000
          48 38 23 37 28 hvcurveto
          36 -55 rlineto
          hintmask 10000000
          -3 1 3 -2 4 hhcurveto
          3 hlineto
          6 4 4 6 hvcurveto
          endchar
        </CharString>
        <CharString name="F">
          653 0 31 433 31 432 112 callsubr
          79 89 -25 25 143 25 hintmask 10110000
          610 733 rmoveto
          54 callgsubr
          -549 88 callgsubr
          hintmask 10001100
          105 callsubr
          hintmask 01010010
          -95 0 13 35 hvcurveto
          385 86 vlineto
          96 10 -32 -85 139 callgsubr
          -10 -33 -96 vhcurveto
          -86 392 hlineto
          hintmask 00101001
          33 2 7 47 vhcurveto
          120 hlineto
          150 25 -56 -138 16 hvcurveto
          endchar
        </CharString>
        <CharString name="G">
          785 -22 44 callsubr
          hstem
          56 103 418 89 vstem
          -99 callsubr
          endchar
        </CharString>
        <CharString name="Gacute">
          785 -22 44 callsubr
          126 callsubr
          418 89 hintmask 11100110
          -99 callsubr
          hintmask 00011000
          -154 926 -104 callsubr
        </CharString>
        <CharString name="Gamma">
          625 0 31 896 112 callsubr
          hintmask 11100000
          582 733 rmoveto
          54 callgsubr
          -521 88 callgsubr
          hintmask 10010000
          105 callsubr
          hintmask 00100000
          -95 0 13 35 hvcurveto
          808 vlineto
          hintmask 01010000
          33 2 7 47 vhcurveto
          103 hlineto
          143 21 -59 -135 16 hvcurveto
          endchar
        </CharString>
        <CharString name="Gbreve">
          785 -22 44 callsubr
          41 35 161 -20 hstemhm
          56 103 83 85 callgsubr
          35 89 hintmask 1110010010000000
          -99 callsubr
          hintmask 0001101100000000
          -193 978 -94 callsubr
          endchar
        </CharString>
        <CharString name="Gcaron">
          785 -22 44 callsubr
          52 84 callsubr
          hstemhm
          56 103 418 89 hintmask 11100110
          -99 callsubr
          hintmask 00011000
          -177 953 -64 callgsubr
        </CharString>
        <CharString name="Gcedilla">
          785 112 callgsubr
          44 callsubr
          hstem
          56 103 257 20 141 89 vstem
          -99 callsubr
          -299 -381 -99 callgsubr
        </CharString>
        <CharString name="Gcircumflex">
          785 -22 44 callsubr
          52 84 callsubr
          hstemhm
          56 103 418 89 hintmask 11100110
          -99 callsubr
          hintmask 00011000
          -177 787 -53 callgsubr
        </CharString>
        <CharString name="Gcommaaccent">
          785 112 callgsubr
          44 callsubr
          hstemhm
          56 103 257 20 141 89 hintmask 00111101
          -99 callsubr
          hintmask 11000010
          -299 -381 -99 callgsubr
        </CharString>
        <CharString name="Gdotaccent">
          785 -22 44 callsubr
          53 106 hstemhm
          56 103 179 107 132 89 hintmask 11101010
          -99 callsubr
          hintmask 00010100
          -290 847 rmoveto
          -101 callgsubr
        </CharString>
        <CharString name="H">
          98 callsubr
          hstem
          136 89 299 89 vstem
          -96 callsubr
          endchar
        </CharString>
        <CharString name="H_uni0303">
          98 callsubr
          53 113 callsubr
          299 89 hintmask 11100110
          -96 callsubr
          hintmask 00001000
          -147 1083 -68 callsubr
        </CharString>
        <CharString name="Hbar">
          750 484 31 192 31 192 125 callsubr
          cntrmask 11100000
          136 callgsubr
          629 103 31 -103 145 -101 callsubr
          -145 -299 145 -101 callsubr
          -145 -103 -31 103 -629 -69 callsubr
          406 299 -406 -78 callsubr
          -192 515 rmoveto
          -299 192 299 hlineto
          endchar
        </CharString>
        <CharString name="Hbrevebelow">
          750 -245 35 161 -20 69 31 453 31 415 100 callgsubr
          0 85 callgsubr
          -1 89 hintmask 0011110010000000
          -96 callsubr
          hintmask 1100001100000000
          -191 -49 -94 callsubr
          endchar
        </CharString>
        <CharString name="Hcircumflex">
          98 callsubr
          83 callsubr
          136 89 299 89 hintmask 11100110
          -96 callsubr
          hintmask 00011000
          -175 69 callsubr
        </CharString>
        <CharString name="Hdieresis">
          98 callsubr
          53 100 54 callsubr
          3 100 93 100 3 89 hintmask 11101111
          -96 callsubr
          hintmask 00010110
          -388 1064 -93 callgsubr
        </CharString>
        <CharString name="Hdotbelow">
          91 callgsubr
          453 31 415 100 callgsubr
          96 107 96 89 hintmask 01111010
          -96 callsubr
          hintmask 10000100
          -288 -147 rmoveto
          -101 callgsubr
        </CharString>
        <CharString name="I">
          26 callgsubr
          hstem
          136 89 vstem
          -100 callsubr
          endchar
        </CharString>
        <CharString name="I_J">
          861 -21 31 -9 31 899 100 callgsubr
          108 111 -56 111 -72 89 133 86 -85 86 hintmask 0010001100000000
          812 931 rmoveto
          31 -296 -31 59 vlineto
          37 37 -4 -42 hvcurveto
          -582 vlineto
          hintmask 1000000010000000
          1 -75 rlineto
          -74 -10 -106 -63 -38 vhcurveto
          hintmask 0100001000000000
          -6 -10 -11 -3 -11 hhcurveto
          -60 -45 54 53 -13 hvcurveto
          hintmask 0000100000000000
          -1 6 5 -1 6 hhcurveto
          hintmask 0000010000000000
          31 24 23 32 hvcurveto
          hintmask 0000100000000000
          32 -23 24 -32 vhcurveto
          hintmask 1000010010000000
          -31 -25 -23 -35 -85 62 -95 97 96 75 87 90 13 hvcurveto
          4 23 1 24 24 vvcurveto
          hintmask 0111100100000000
          20 -1 20 20 vvcurveto
          605 vlineto
          36 23 3 54 vhcurveto
          -479 -930 rmoveto
          31 -33 vlineto
          -46 -29 3 44 hvcurveto
          805 vlineto
          43 30 4 32 vhcurveto
          46 31 -305 -31 33 hlineto
          46 29 -3 -44 hvcurveto
          -805 vlineto
          -43 -30 -4 -32 vhcurveto
          -46 -31 hlineto
          endchar
        </CharString>
        <CharString name="Iacute">
          26 callgsubr
          131 callgsubr
          136 89 hintmask 11001000
          -100 callsubr
          hintmask 00110000
          37 1168 -104 callsubr
        </CharString>
        <CharString name="Ibreve">
          26 callgsubr
          63 35 161 -20 hstemhm
          31 22 83 89 84 22 hintmask 11000100
          -100 callsubr
          hintmask 00111010
          -2 1220 -94 callsubr
          endchar
        </CharString>
        <CharString name="Icaron">
          26 callgsubr
          83 callsubr
          136 89 hintmask 11001000
          -100 callsubr
          hintmask 00110000
          14 1195 -64 callgsubr
        </CharString>
        <CharString name="Icircumflex">
          26 callgsubr
          83 callsubr
          136 89 hintmask 11001000
          -100 callsubr
          hintmask 00110000
          14 69 callsubr
        </CharString>
        <CharString name="Idblgrave">
          26 callgsubr
          84 -21 54 callsubr
          hintmask 11010000
          -100 callsubr
          hintmask 00100000
          -131 1046 -75 callgsubr
        </CharString>
        <CharString name="Idieresis">
          26 callgsubr
          53 100 hstemhm
          34 100 2 89 2 100 hintmask 11001000
          -100 callsubr
          hintmask 00110100
          -199 1064 -93 callgsubr
        </CharString>
        <CharString name="Idieresisacute">
          26 callgsubr
          53 100 83 84 callsubr
          hstemhm
          34 100 2 89 2 100 hintmask 11000010
          -100 callsubr
          hintmask 00111101
          -199 1064 -103 callgsubr
          43 256 -104 callsubr
        </CharString>
        <CharString name="Idotaccent">
          26 callgsubr
          75 106 hstemhm
          127 107 -98 89 hintmask 11001000
          -100 callsubr
          hintmask 00110000
          -99 1089 rmoveto
          -101 callgsubr
        </CharString>
        <CharString name="Idotbelow">
          361 40 callsubr
          hstemhm
          127 107 -98 89 hintmask 01101000
          -100 callsubr
          hintmask 10010000
          -99 -147 rmoveto
          -101 callgsubr
        </CharString>
        <CharString name="Igrave">
          26 callgsubr
          131 callgsubr
          136 89 hintmask 11001000
          -100 callsubr
          hintmask 00110000
          -55 1046 -76 callsubr
        </CharString>
        <CharString name="Ihookabove">
          26 callgsubr
          85 41 callsubr
          83 59 -6 89 -62 19 52 43 hintmask 11000100
          -100 callsubr
          hintmask 00111011
          -56 1178 -107 callsubr
        </CharString>
        <CharString name="Imacron">
          26 callgsubr
          73 143 callsubr
          hintmask 11010000
          -100 callsubr
          hintmask 00100000
          28 1034 -24 callsubr
        </CharString>
        <CharString name="Imacron.alt">
          26 callgsubr
          73 143 callsubr
          hintmask 11010000
          -100 callsubr
          hintmask 00100000
          -55 1034 41 callgsubr
        </CharString>
        <CharString name="Iogonek">
          361 96 callsubr
          0 47 805 47 0 100 callgsubr
          hintmask 11000000
          333 19 callsubr
          9 127 callsubr
          16 18 19 15 21 11 rrcurveto
          37 42 -1 -2 23 hvcurveto
          31 -26 vlineto
          hintmask 00110100
          45 callgsubr
          hintmask 00110100
          79 3 -32 callgsubr
          -3 -11 -79 vhcurveto
          -26 hlineto
          hintmask 11000000
          -31 vlineto
          3 35 79 0 38 hhcurveto
          6 hlineto
          -43 -31 -39 -47 -46 125 callgsubr
        </CharString>
        <CharString name="Iogonekacute">
          361 96 callsubr
          0 47 805 47 0 31 131 callgsubr
          136 89 hintmask 11000000
          333 19 callsubr
          9 127 callsubr
          16 18 19 15 21 11 rrcurveto
          37 42 -1 -2 23 hvcurveto
          31 -26 vlineto
          hintmask 00110001
          45 callgsubr
          hintmask 00110001
          79 3 -32 callgsubr
          -3 -11 -79 vhcurveto
          -26 hlineto
          hintmask 11000000
          -31 vlineto
          3 35 79 0 38 hhcurveto
          6 hlineto
          -43 -31 -39 -47 -46 -36 callgsubr
          hintmask 00000110
          37 1283 -104 callsubr
        </CharString>
        <CharString name="Iota">
          26 callgsubr
          hstem
          136 89 vstem
          -100 callsubr
          endchar
        </CharString>
        <CharString name="Itilde">
          26 callgsubr
          53 113 callsubr
          hintmask 11001000
          -100 callsubr
          hintmask 00010000
          42 1083 -61 callsubr
        </CharString>
        <CharString name="J">
          80 callgsubr
          hstemhm
          41 112 149 86 hintmask 11011100
          -51 callgsubr
          hintmask 00100000
          56 callgsubr
          endchar
        </CharString>
        <CharString name="J_uni030C.cap">
          513.88889 -22 22 104 112 497 -21 174 95 -53 22 0 31 hstemhm
          41 112 149 86 200 20 hintmask 1100011100000000
          -51 callgsubr
          hintmask 0000100000000000
          56 callgsubr
          143 -63 rmoveto
          hintmask 0000010000000000
          57 -22 37 -36 -31 -17 -24 -23 vhcurveto
          hintmask 0011000010000000
          -24 16 -24 32 14 11 5 9 11 vhcurveto
          0 2 -1 -12 vvcurveto
          -58 -25 -55 -40 -42 vhcurveto
          50 callgsubr
          -4 50 callsubr
          5 11 71 71 104 vhcurveto
          endchar
        </CharString>
        <CharString name="Jacute">
          80 callgsubr
          131 callgsubr
          41 112 149 86 hintmask 11010011
          -51 callgsubr
          hintmask 00100000
          56 callgsubr
          hintmask 00001100
          41 238 -104 callsubr
        </CharString>
        <CharString name="Jcircumflex">
          80 callgsubr
          83 callsubr
          41 112 149 86 hintmask 11010011
          -51 callgsubr
          hintmask 00100000
          56 callgsubr
          hintmask 00001100
          18 99 -53 callgsubr
        </CharString>
        <CharString name="K">
          778 116 callgsubr
          136 89 vstem
          -84 callsubr
          endchar
        </CharString>
        <CharString name="Kappa">
          778 116 callgsubr
          136 89 vstem
          -84 callsubr
          endchar
        </CharString>
        <CharString name="Kcedilla">
          778 33 callsubr
          899 31 hstem
          136 89 188 20 vstem
          -84 callsubr
          -191 -142 -99 callgsubr
        </CharString>
        <CharString name="Kcommaaccent">
          778 33 callsubr
          899 100 callgsubr
          188 20 hintmask 00111000
          -84 callsubr
          hintmask 11000100
          -191 -142 -99 callgsubr
        </CharString>
        <CharString name="L">
          625 0 31 899 112 callsubr
          hintmask 10010000
          -18 callsubr
          hintmask 01100000
          -15 callgsubr
          hintmask 01010000
          -10 callgsubr
          hintmask 10100000
          -40 callgsubr
          521 hlineto
          endchar
        </CharString>
        <CharString name="L_uni0303">
          625 28 callgsubr
          53 113 callsubr
          -40 89 87 callsubr
          hintmask 01001000
          -15 callgsubr
          hintmask 01000100
          -10 callgsubr
          hintmask 10001000
          -40 callgsubr
          521 hlineto
          hintmask 00010000
          -175 1083 -61 callsubr
        </CharString>
        <CharString name="Lacute">
          625 28 callgsubr
          131 callgsubr
          136 89 -40 89 87 callsubr
          hintmask 01001000
          -15 callgsubr
          hintmask 01000100
          -10 callgsubr
          hintmask 10001000
          -40 callgsubr
          521 hlineto
          hintmask 00110000
          -180 1168 -104 callsubr
        </CharString>
        <CharString name="Lambda">
          694 0 31 0 31 932 -20 hstemhm
          hintmask 10100000
          662 hmoveto
          31 vlineto
          -59 -17 0 41 -10 hvcurveto
          -209 900 rlineto
          17 -4 -1 5 -15 hhcurveto
          -16 -1 -5 -17 -4 hvcurveto
          -203 -873 rlineto
          -51 -12 -34 -17 -46 hhcurveto
          -31 vlineto
          93 3 113 -34 callsubr
          -53 1 -31 25 30 vvcurveto
          4 0 2 4 16 vhcurveto
          159 686 rlineto
          1 hlineto
          167 -718 rlineto
          hintmask 01000000
          1 -6 2 -5 -4 vvcurveto
          -31 -66 0 -24 vhcurveto
          hintmask 10000000
          -31 vlineto
          3 35 70 0 38 hhcurveto
          endchar
        </CharString>
        <CharString name="Lcaron">
          625 0 31 682 -21 174 95 -31 112 callsubr
          221 20 87 callsubr
          hintmask 00011000
          -15 callgsubr
          hintmask 00010100
          -10 callgsubr
          hintmask 10011000
          -40 callgsubr
          521 hlineto
          -39 867 rmoveto
          27 callsubr
        </CharString>
        <CharString name="Lcedilla">
          625 33 callsubr
          899 112 callsubr
          63 20 hintmask 00100100
          -18 callsubr
          hintmask 00011000
          -15 callgsubr
          hintmask 00010100
          -10 callgsubr
          hintmask 11101010
          -40 callgsubr
          521 hlineto
          -197 -139 -99 callgsubr
        </CharString>
        <CharString name="Lcommaaccent">
          625 33 callsubr
          899 112 callsubr
          63 20 hintmask 00100100
          -18 callsubr
          hintmask 00011000
          -15 callgsubr
          hintmask 00010100
          -10 callgsubr
          hintmask 00101000
          -40 callgsubr
          521 hlineto
          hintmask 11000010
          -197 -139 -99 callgsubr
        </CharString>
        <CharString name="Ldot">
          625 0 31 478 106 315 112 callsubr
          165 107 hintmask 10001000
          -18 callsubr
          hintmask 00110000
          -15 callgsubr
          hintmask 00101000
          -10 callgsubr
          hintmask 11010100
          -40 callgsubr
          521 hlineto
          -8 562 rmoveto
          -101 callgsubr
        </CharString>
        <CharString name="Ldotbelow">
          625 40 callsubr
          hstemhm
          136 89 -40 89 -15 107 hintmask 01001000
          -18 callsubr
          hintmask 00110000
          -15 callgsubr
          hintmask 00101000
          -10 callgsubr
          hintmask 01010000
          -40 callgsubr
          521 hlineto
          hintmask 10000100
          -188 -147 rmoveto
          -101 callgsubr
        </CharString>
        <CharString name="Ldotbelowmacron">
          625 40 callsubr
          73 143 callsubr
          -40 89 -15 107 hintmask 01000100
          -18 callsubr
          hintmask 00101000
          -15 callgsubr
          hintmask 00100100
          -10 callgsubr
          hintmask 11001010
          -40 callgsubr
          521 hlineto
          -188 -147 rmoveto
          -98 callsubr
          hintmask 00010000
          7 1181 -24 callsubr
        </CharString>
        <CharString name="Lslash">
          625 0 31 410 28 461 28 -28 31 hstemhm
          57 89 0 89 -40 89 hintmask 10000010
          592 258 rmoveto
          -25 hlineto
          -102 -11 -14 -125 -176 hhcurveto
          -82 hlineto
          hintmask 01100100
          -47 -2 7 33 hvcurveto
          398 vlineto
          179 142 -20 26 -159 -126 rlineto
          371 vlineto
          34 0 14 95 vhcurveto
          33 hlineto
          hintmask 00010000
          31 vlineto
          hintmask 00100010
          -3 -36 -91 0 -41 hhcurveto
          hintmask 01010100
          -39 -78 -45 callgsubr
          -53 callsubr
          -442 vlineto
          hintmask 10001000
          -89 -71 22 -25 67 54 rlineto
          -321 vlineto
          17 callgsubr
          521 hlineto
          endchar
        </CharString>
        <CharString name="M">
          917 116 callgsubr
          140 28 262 28 237 81 vstem
          -57 callgsubr
          endchar
        </CharString>
        <CharString name="Mdotbelow">
          917 40 callsubr
          hstemhm
          140 28 236 107 -81 28 237 81 hintmask 01110110
          -57 callgsubr
          hintmask 10000100
          -368 -147 116 callsubr
          hintmask 10001000
          -34 -20 -28 -25 -27 23 -26 30 34 20 28 25 hvcurveto
          endchar
        </CharString>
        <CharString name="Mu">
          917 116 callgsubr
          140 28 262 28 237 81 vstem
          -57 callgsubr
          endchar
        </CharString>
        <CharString name="N">
          47 callsubr
          hstem
          109 callgsubr
          vstem
          -95 callgsubr
          endchar
        </CharString>
        <CharString name="Nacute">
          47 callsubr
          84 -21 196 -20 hstemhm
          109 callgsubr
          hintmask 1110011110000000
          -95 callgsubr
          hintmask 0001100000000000
          -152 238 -104 callsubr
        </CharString>
        <CharString name="Ncaron">
          47 callsubr
          74 -21 196 -20 hstemhm
          109 callgsubr
          hintmask 1110011110000000
          -95 callgsubr
          hintmask 0001100000000000
          -175 265 -64 callgsubr
        </CharString>
        <CharString name="Ncedilla">
          750 33 callsubr
          825 31 43 31 hstem
          63 callgsubr
          173 20 166 28 vstem
          -95 callgsubr
          -297 -1069 -99 callgsubr
        </CharString>
        <CharString name="Ncommaaccent">
          750 33 callsubr
          825 31 43 31 141 callgsubr
          173 20 166 28 hintmask 0011111101000000
          -95 callgsubr
          hintmask 1100000010000000
          -297 -1069 -99 callgsubr
        </CharString>
        <CharString name="Ndotaccent">
          47 callsubr
          53 106 141 callgsubr
          95 107 157 28 hintmask 1110111010000000
          -95 callgsubr
          hintmask 0001000100000000
          -288 137 rmoveto
          -101 callgsubr
        </CharString>
        <CharString name="Ndotbelow">
          91 callgsubr
          825 31 43 31 141 callgsubr
          95 107 157 28 hintmask 0111111010000000
          -95 callgsubr
          hintmask 1000000100000000
          -288 -1077 rmoveto
          -101 callgsubr
        </CharString>
        <CharString name="Ntilde">
          47 callsubr
          53 45 -6 45 hstemhm
          109 callgsubr
          hintmask 1110011110000000
          -95 callgsubr
          hintmask 0000100000000000
          -147 153 -1 callgsubr
          hintmask 0001000000000000
          -77 callgsubr
        </CharString>
        <CharString name="Nu">
          47 callsubr
          hstem
          109 callgsubr
          vstem
          -95 callgsubr
          endchar
        </CharString>
        <CharString name="O">
          -11 callgsubr
          hstem
          76 callgsubr
          vstem
          -103 callsubr
          endchar
        </CharString>
        <CharString name="OE">
          -44 callsubr
        </CharString>
        <CharString name="OE.dup">
          -44 callsubr
        </CharString>
        <CharString name="Oacute">
          -11 callgsubr
          62 -38 callgsubr
          -40 671 -104 callsubr
        </CharString>
        <CharString name="Obreve">
          -11 callgsubr
          41 35 161 -20 hstemhm
          56 103 80 85 callgsubr
          79 103 hintmask 11001001
          -103 callsubr
          hintmask 00110110
          -79 723 -94 callsubr
          endchar
        </CharString>
        <CharString name="Ocaron">
          778 -22 26 954 25 52 -38 callgsubr
          -63 698 -64 callgsubr
        </CharString>
        <CharString name="Ocircumflex">
          778 -22 26 954 25 52 -38 callgsubr
          -63 532 -53 callgsubr
        </CharString>
        <CharString name="Ocircumflexacute">
          110 callsubr
          412 -20 64 callgsubr
          hintmask 11001100
          -103 callsubr
          hintmask 00110000
          -63 532 -97 callgsubr
          -4 360 -104 callsubr
        </CharString>
        <CharString name="Ocircumflexdotbelow">
          99 callgsubr
          52 84 callsubr
          hstemhm
          56 103 176 107 176 103 hintmask 01111101
          -103 callsubr
          -63 532 -97 callgsubr
          hintmask 10000010
          -91 -1161 rmoveto
          -101 callgsubr
        </CharString>
        <CharString name="Ocircumflexgrave">
          778 -22 26 954 25 52 -38 callgsubr
          -63 532 -71 callgsubr
        </CharString>
        <CharString name="Ocircumflexhookabove">
          110 callsubr
          206 41 callsubr
          56 103 230 36 callgsubr
          35 103 hintmask 1100011001000000
          -103 callsubr
          hintmask 0011101110000000
          -63 532 -97 callgsubr
          50 338 -107 callsubr
        </CharString>
        <CharString name="Ocircumflextilde">
          110 callsubr
          236 45 -6 45 64 callgsubr
          hintmask 11000110
          -103 callsubr
          hintmask 00101000
          -63 532 rmoveto
          -166 181 -167 -181 22 -15 145 129 144 -129 rlineto
          50 305 -68 callsubr
        </CharString>
        <CharString name="Odblgrave">
          -11 callgsubr
          62 -21 64 callgsubr
          hintmask 11011000
          -103 callsubr
          hintmask 00100000
          -208 549 -75 callgsubr
        </CharString>
        <CharString name="Odieresis">
          -11 callgsubr
          31 100 hstemhm
          56 103 83 100 93 100 83 103 hintmask 11010010
          -103 callsubr
          hintmask 00101100
          -276 567 -93 callgsubr
        </CharString>
        <CharString name="Odotbelow">
          99 callgsubr
          hstemhm
          56 103 176 107 176 103 hintmask 01110100
          -103 callsubr
          hintmask 10001000
          -176 -644 rmoveto
          -101 callgsubr
        </CharString>
        <CharString name="Ograve">
          -11 callgsubr
          62 -38 callgsubr
          -132 549 -76 callsubr
        </CharString>
        <CharString name="Ohookabove">
          -11 callgsubr
          63 41 callsubr
          56 103 132 36 callgsubr
          133 103 hintmask 1100100010000000
          -103 callsubr
          hintmask 0011011100000000
          -133 681 -107 callsubr
        </CharString>
        <CharString name="Ohorn">
          -11 callgsubr
          -25 108 hstemhm
          55 101 callsubr
          hintmask 00100000
          -46 callsubr
          hintmask 11011000
          -87 callgsubr
          endchar
        </CharString>
        <CharString name="Ohornacute">
          -11 callgsubr
          -25 108 154 -20 hstemhm
          55 101 callsubr
          hintmask 00100000
          -46 callsubr
          hintmask 11001100
          -87 callgsubr
          hintmask 00010000
          -67 668 -104 callsubr
        </CharString>
        <CharString name="Ohorndotbelow">
          99 callgsubr
          -25 108 hstemhm
          55 103 177 107 175 103 hintmask 00010000
          -46 callsubr
          hintmask 01101010
          -87 callgsubr
          hintmask 10000100
          -175 -647 rmoveto
          -101 callgsubr
        </CharString>
        <CharString name="Ohorngrave">
          -11 callgsubr
          -25 108 154 -20 hstemhm
          55 101 callsubr
          hintmask 00100000
          -46 callsubr
          hintmask 11001100
          -87 callgsubr
          hintmask 00010000
          -131 546 -76 callsubr
        </CharString>
        <CharString name="Ohornhookabove">
          -11 callgsubr
          -25 108 -20 41 callsubr
          55 103 133 36 callgsubr
          132 103 hintmask 0010000000000000
          -46 callsubr
          hintmask 1100010001000000
          -87 callgsubr
          hintmask 0001101110000000
          -132 678 -107 callsubr
        </CharString>
        <CharString name="Ohorntilde">
          -11 callgsubr
          -25 108 -52 92 callsubr
          55 101 callsubr
          hintmask 00100000
          720 478 rmoveto
          126 -28 126 -69 105 vhcurveto
          -16 23 -17 22 -20 20 rrcurveto
          43 10 30 45 49 vvcurveto
          33 -22 29 -31 vhcurveto
          hintmask 11010110
          18 callsubr
          5 4 0 1 4 hvcurveto
          -11 -21 -20 -16 -24 -5 rrcurveto
          -87 callgsubr
          hintmask 00001000
          -34 583 -68 callsubr
        </CharString>
        <CharString name="Ohungarumlaut">
          -11 callgsubr
          62 -21 64 callgsubr
          hintmask 11011000
          -103 callsubr
          hintmask 00100000
          36 671 -21 callsubr
        </CharString>
        <CharString name="Omacron">
          -11 callgsubr
          51 32 64 callgsubr
          hintmask 11011000
          -103 callsubr
          hintmask 00100000
          -49 537 -24 callsubr
        </CharString>
        <CharString name="Omega">
          -40 callsubr
        </CharString>
        <CharString name="Omicron">
          -11 callgsubr
          hstem
          76 callgsubr
          vstem
          -103 callsubr
          endchar
        </CharString>
        <CharString name="Oogonek">
          137 callsubr
          hstem
          56 103 136 48 275 103 vstem
          -17 callgsubr
          endchar
        </CharString>
        <CharString name="Oogonekacute">
          137 callsubr
          126 callsubr
          136 48 275 103 hintmask 11100111
          -17 callgsubr
          hintmask 00011000
          -40 671 -104 callsubr
        </CharString>
        <CharString name="Orogate">
          778 56 103 219 22 218 103 vstem
          721 478 rmoveto
          289 -153 207 -168 9 vhcurveto
          173 -22 -173 vlineto
          -171 -9 -151 -210 -286 vvcurveto
          -288 154 -204 168 -8 vhcurveto
          -172 22 172 vlineto
          170 10 151 206 284 vvcurveto
          -88 callsubr
          endchar
        </CharString>
        <CharString name="Oslash">
          89 callsubr
          hstem
          56 89 487 89 vstem
          -63 callsubr
          endchar
        </CharString>
        <CharString name="Oslash.dup">
          89 callsubr
          hstem
          56 89 487 89 vstem
          -63 callsubr
          endchar
        </CharString>
        <CharString name="Oslashacute">
          89 callsubr
          49 84 callsubr
          hstemhm
          56 89 487 89 hintmask 11110011
          -63 callsubr
          hintmask 00001100
          -54 690 -104 callsubr
        </CharString>
        <CharString name="Otilde">
          -11 callgsubr
          31 45 -6 45 64 callgsubr
          hintmask 11001100
          -103 callsubr
          hintmask 00010000
          -35 586 -61 callsubr
        </CharString>
        <CharString name="P">
          122 callsubr
          0 89 0 103 cntrmask 00011100
          -14 callgsubr
        </CharString>
        <CharString name="Phi">
          722 0 31 149 22 558 22 148 31 hstem
          56 100 160 83 166 100 vstem
          665 480 rmoveto
          160 -120 126 -146 17 vhcurveto
          99 57 callgsubr
          -99 vlineto
          -152 -24 -108 -129 -149 vvcurveto
          -152 110 -128 150 -23 vhcurveto
          -99 57 callsubr
          99 vlineto
          148 17 118 129 156 vvcurveto
          -349 -278 rmoveto
          -160 41 0 174 63 vvcurveto
          64 0 174 160 41 vhcurveto
          249 -278 rmoveto
          -61 0 -184 -166 -35 vhcurveto
          559 vlineto
          166 -35 0 -184 -60 vvcurveto
          endchar
        </CharString>
        <CharString name="Pi">
          104 callsubr
          896 125 callsubr
          vstem
          716 89 callgsubr
          -683 -31 24 hlineto
          77 2 -11 -36 hvcurveto
          -802 -69 callsubr
          849 299 -849 -78 callsubr
          endchar
        </CharString>
        <CharString name="Psi">
          778 0 31 150 24 552 30 143 31 hstem
          125 83 136 83 142 83 vstem
          720 776 rmoveto
          11 -8 0 -16 vhcurveto
          -38 hlineto
          -89 0 -93 -129 -93 -11 -220 -131 -47 hvcurveto
          677 57 callgsubr
          -677 vlineto
          -135 53 -1 241 105 vvcurveto
          156 -34 27 -55 vhcurveto
          -37 hlineto
          -15 -10 0 -11 -5 3 -5 6 -1 hvcurveto
          29 -3 30 -4 -168 vvcurveto
          -86 1 -284 218 -41 vhcurveto
          -100 57 callsubr
          100 vlineto
          224 38 1 293 69 vvcurveto
          107 5 72 49 7 vhcurveto
          8 1 6 1 9 vvcurveto
          endchar
        </CharString>
        <CharString name="Q">
          778 -194 103 69 22 -22 25 36 25 117 22 755 25 hstemhm
          56 100 152 22 291 100 -16 22 hintmask 1000000001000000
          727 -10 rmoveto
          10 0 11 -11 -9 -1 -8 -10 -1 vhcurveto
          -54 -6 -42 -30 -43 hhcurveto
          -47 -27 27 83 -21 hvcurveto
          hintmask 1100011010000000
          81 48 121 151 260 vvcurveto
          295 -160 210 -172 -176 -157 -213 -292 -291 158 -209 175 37 36 11 11 25 vhcurveto
          -83 5 7 -111 107 hhcurveto
          hintmask 0001111101000000
          102 19 133 51 hvcurveto
          -106 488 rmoveto
          -142 -22 -174 -91 -98 vhcurveto
          69 -17 -25 70 -76 hhcurveto
          -54 -28 -55 -57 -33 9 -25 8 -14 hvcurveto
          -81 43 -40 102 -16 55 rrcurveto
          -23 75 -9 81 103 vvcurveto
          351 131 129 101 vhcurveto
          hintmask 0011100110000000
          106 127 -134 -346 hvcurveto
          -137 -439 rmoveto
          -31 -39 -35 -5 -21 hhcurveto
          -59 0 85 3 20 7 70 54 75 12 -71 -71 6 hvcurveto
          endchar
        </CharString>
        <CharString name="R">
          736 -22 68 callsubr
          0 86 0 103 cntrmask 00000111
          hintmask 10101111
          -88 callgsubr
          hintmask 01010111
          -78 callgsubr
          hintmask 10011111
          -66 callsubr
          -28 callgsubr
          endchar
        </CharString>
        <CharString name="Racute">
          736 -22 9 callsubr
          84 -21 196 -20 139 callsubr
          180 103 97 25 hintmask 1010100100110000
          -88 callgsubr
          hintmask 0101000110100000
          -78 callgsubr
          hintmask 1001000010010000
          -66 callsubr
          hintmask 0000100001100000
          -28 callgsubr
          hintmask 0000011000000000
          50 457 -104 callsubr
        </CharString>
        <CharString name="Rcaron">
          736 -22 9 callsubr
          74 -21 196 -20 139 callsubr
          180 103 97 25 hintmask 1010100100110000
          -88 callgsubr
          hintmask 0101000110100000
          -78 callgsubr
          hintmask 1001000010010000
          -66 callsubr
          hintmask 0000100001100000
          -28 callgsubr
          hintmask 0000011000000000
          27 484 -64 callgsubr
        </CharString>
        <CharString name="Rcedilla">
          736 112 callgsubr
          46 callsubr
          65 20 95 103 97 25 hintmask 0010101100011000
          -88 callgsubr
          hintmask 0001010110010000
          -78 callgsubr
          hintmask 0010010010001000
          -66 callsubr
          hintmask 1100001001110000
          -28 callgsubr
          -95 -850 -99 callgsubr
        </CharString>
        <CharString name="Rcommaaccent">
          736 112 callgsubr
          46 callsubr
          65 20 95 103 97 25 hintmask 0010101100011000
          -88 callgsubr
          hintmask 0001010110010000
          -78 callgsubr
          hintmask 0010010010001000
          -66 callsubr
          hintmask 0000001001010000
          -28 callgsubr
          hintmask 1100000010100000
          -95 -850 -99 callgsubr
        </CharString>
        <CharString name="Rdblgrave">
          736 -22 9 callsubr
          84 -21 139 callsubr
          180 103 97 25 hintmask 1010101001100000
          -88 callgsubr
          hintmask 0101001101000000
          -78 callgsubr
          hintmask 1001000100100000
          -66 callsubr
          hintmask 0000100011000000
          -28 callgsubr
          hintmask 0000010000000000
          -146 335 -75 callgsubr
        </CharString>
        <CharString name="Rdotaccent">
          736 -22 9 callsubr
          75 106 122 callgsubr
          hintmask 1010101000110000
          -88 callgsubr
          hintmask 0101001100100000
          -78 callgsubr
          hintmask 1001000100010000
          -66 callsubr
          hintmask 0000100010100000
          -28 callgsubr
          hintmask 0000010001000000
          -86 378 rmoveto
          -101 callgsubr
        </CharString>
        <CharString name="Rdotbelow">
          736 -200 106 72 46 callsubr
          -13 107 86 103 97 25 hintmask 0101011000110000
          -88 callgsubr
          hintmask 0010101100100000
          -78 callgsubr
          hintmask 0100100100010000
          -66 callsubr
          hintmask 0000010010100000
          -28 callgsubr
          hintmask 1000000001000000
          -86 -858 rmoveto
          -101 callgsubr
        </CharString>
        <CharString name="Rdotbelowmacron">
          736 -200 106 72 9 callsubr
          73 32 122 callgsubr
          hintmask 0101010100011000
          -88 callgsubr
          hintmask 0010100110010000
          -78 callgsubr
          hintmask 0100100010001000
          -66 callsubr
          hintmask 1000010001010000
          -28 callgsubr
          -86 -858 116 callsubr
          hintmask 1000000000100000
          -34 -20 -28 -25 -27 23 -26 30 34 20 28 25 hvcurveto
          hintmask 0000001000000000
          127 1181 -24 callsubr
        </CharString>
        <CharString name="Rho">
          122 callsubr
          89 103 191 103 vstem
          -14 callgsubr
        </CharString>
        <CharString name="S">
          556 -22 62 callgsubr
          hstem
          56 64 315 64 vstem
          499 256 rmoveto
          -102 callsubr
          endchar
        </CharString>
        <CharString name="S_S">
          1111 -22 62 callgsubr
          hstem
          56 64 315 64 112 64 315 64 vstem
          499 256 rmoveto
          -102 callsubr
          555 hmoveto
          -102 callsubr
          endchar
        </CharString>
        <CharString name="Sacute">
          556 -22 62 callgsubr
          140 callsubr
          64 315 64 hintmask 11100110
          499 256 rmoveto
          -102 callsubr
          hintmask 00011000
          -32 912 -104 callsubr
        </CharString>
        <CharString name="Scaron">
          556 -22 62 callgsubr
          52 84 callsubr
          hstemhm
          56 64 315 64 hintmask 11100110
          499 256 rmoveto
          -102 callsubr
          hintmask 00011000
          -55 939 -64 callgsubr
        </CharString>
        <CharString name="Scedilla">
          556 -203 22 159 31 -29 22 530 31 392 28 hstemhm
          56 64 0 64 0 69 15 64 -64 69 14 69 15 64 hintmask 0101110110010000
          499 256 rmoveto
          89 -23 53 -18 35 vhcurveto
          -36 68 -56 20 -32 11 -92 31 rcurveline
          -37 13 -25 9 -26 40 rrcurveto
          -27 41 -7 56 38 vvcurveto
          104 54 91 79 150 33 -158 -131 10 vhcurveto
          -20 1 1 -4 11 hhcurveto
          13 0 5 19 hvcurveto
          293 vlineto
          17 0 7 -11 -9 -1 -4 -11 -5 vhcurveto
          -32 -74 rlineto
          78 -50 -69 11 -43 hhcurveto
          -110 -86 -114 -145 -48 7 -52 32 -59 hvcurveto
          36 -66 54 -19 43 -15 104 -36 rcurveline
          92 -32 11 -119 -55 vvcurveto
          -115 -54 -99 -80 -215 -4 252 47 -1 vhcurveto
          9 -6 2 -6 -13 0 -7 -18 vhcurveto
          hintmask 0010010000000000
          -292 vlineto
          hintmask 0100000000000000
          -17 0 -7 11 8 1 2 14 6 vhcurveto
          7 14 3 11 25 52 rrcurveto
          hintmask 1010001010100000
          30 -42 48 -39 73 -10 rrcurveto
          -51 -11 callsubr
          hintmask 0000000001010000
          72 callgsubr
          -1 37 rlineto
          96 22 67 116 136 vvcurveto
          endchar
        </CharString>
        <CharString name="Scircumflex">
          556 -22 62 callgsubr
          52 84 callsubr
          hstemhm
          56 64 315 64 hintmask 11100110
          499 256 rmoveto
          -102 callsubr
          hintmask 00011000
          -55 773 -53 callgsubr
        </CharString>
        <CharString name="Sdotbelow">
          556 -200 106 72 62 callgsubr
          hstemhm
          56 64 104 107 104 64 hintmask 01111010
          499 256 rmoveto
          -102 callsubr
          hintmask 10000100
          -168 -403 rmoveto
          -101 callgsubr
        </CharString>
        <CharString name="Sigma">
          722 0 42 -31 31 888 31 hstemhm
          hintmask 01100000
          665 236 rmoveto
          -25 hlineto
          -164 -20 -60 -30 -167 hhcurveto
          -284 hlineto
          258 424 rlineto
          7 10 0 2 3 vvcurveto
          4 -6 11 0 vhcurveto
          -209 434 rlineto
          240 hlineto
          159 63 -29 -165 19 75 callsubr
          -555 hlineto
          -24 -2 0 -23 hvcurveto
          249 -515 -242 -398 rlineto
          -6 -10 0 -4 0 vvcurveto
          hintmask 10000000
          -11 10 0 15 vhcurveto
          555 hlineto
          endchar
        </CharString>
        <CharString name="T">
          90 callsubr
          hstem
          316 89 vstem
          -91 callsubr
          endchar
        </CharString>
        <CharString name="T_uni0303">
          90 callsubr
          59 92 callsubr
          316 89 hintmask 11001000
          -91 callsubr
          hintmask 00010000
          -105 353 -61 callsubr
        </CharString>
        <CharString name="T_uni0308">
          90 callsubr
          59 100 hstemhm
          214 100 2 89 2 100 hintmask 11001000
          -91 callsubr
          hintmask 00110100
          -346 334 -93 callgsubr
        </CharString>
        <CharString name="Tau">
          90 callsubr
          hstem
          316 89 vstem
          -91 callsubr
          endchar
        </CharString>
        <CharString name="Tcaron">
          90 callsubr
          80 84 callsubr
          hstemhm
          316 89 hintmask 11001000
          -91 callsubr
          hintmask 00110000
          -133 465 -64 callgsubr
        </CharString>
        <CharString name="Tcedilla">
          722 -203 22 181 150 callgsubr
          hstemhm
          316 89 -79 69 14 69 hintmask 01110000
          685 730 rmoveto
          -19 225 rlineto
          -611 hlineto
          -19 -225 rlineto
          25 hlineto
          161 14 15 33 151 hhcurveto
          18 26 0 -2 10 hvcurveto
          21 -4 0 -11 -23 vvcurveto
          -805 vlineto
          -34 0 -14 -105 vhcurveto
          -40 -31 hlineto
          hintmask 11001100
          2 33 71 1 51 hhcurveto
          -74 -11 callsubr
          72 callgsubr
          58 vlineto
          51 72 -1 -2 32 hvcurveto
          31 -40 vlineto
          hintmask 00110000
          -105 0 14 34 hvcurveto
          805 vlineto
          20 0 14 18 4 vhcurveto
          2 11 27 0 19 hhcurveto
          151 15 -33 -161 14 hvcurveto
          endchar
        </CharString>
        <CharString name="Tdotbelow">
          722 69 callgsubr
          150 callgsubr
          hstemhm
          307 107 -98 89 hintmask 01101000
          -91 callsubr
          hintmask 10010000
          -246 -877 rmoveto
          -101 callgsubr
        </CharString>
        <CharString name="Theta">
          778 -22 23 442 76 442 22 hstem
          56 97 57 25 307 25 57 97 vstem
          -72 callgsubr
          -294 160 -206 172 175 158 209 291 vhcurveto
          -97 hmoveto
          -347 -132 -130 -103 -107 -129 135 342 341 126 142 110 105 130 -136 -347 vhcurveto
          -57 -83 rmoveto
          172 -25 -48 -307 48 -25 -172 25 48 307 -48 vlineto
          endchar
        </CharString>
        <CharString name="Thorn">
          625 0 31 219 31 458 31 160 31 hstem
          139 83 247 100 vstem
          569 510 rmoveto
          55 -13 68 -48 61 vhcurveto
          76 -61 -74 0 -27 hhcurveto
          -124 111 hlineto
          29 1 13 31 4 vhcurveto
          3 19 26 0 26 hhcurveto
          31 vlineto
          -144 -3 -145 3 rlineto
          -31 vlineto
          29 25 0 -3 21 hvcurveto
          28 -5 0 -17 -24 vvcurveto
          -801 vlineto
          -29 -1 -13 -31 -4 vhcurveto
          -3 -19 -26 0 -26 hhcurveto
          -31 vlineto
          144 3 145 -34 callsubr
          -29 -25 0 3 -21 hvcurveto
          -28 5 0 17 24 vvcurveto
          170 133 vlineto
          131 83 126 134 hvcurveto
          -100 hmoveto
          -45 -8 -55 -24 -48 vhcurveto
          -81 -41 -51 0 -22 hhcurveto
          -101 458 108 hlineto
          29 40 0 -71 36 hvcurveto
          18 -36 16 -52 -70 vvcurveto
          endchar
        </CharString>
        <CharString name="Tlinebelow">
          722 -163 32 131 150 callgsubr
          hstemhm
          316 89 hintmask 01110000
          -91 callsubr
          hintmask 10000000
          -119 -893 -24 callsubr
        </CharString>
        <CharString name="U">
          21 callgsubr
          hstem
          136 89 165 89 103 31 vstem
          -106 callgsubr
          endchar
        </CharString>
        <CharString name="U_uni032F">
          750 132 callgsubr
          27 31 921 31 123 callgsubr
          hintmask 0011101010000000
          -106 callgsubr
          hintmask 1100010100000000
          -168 -1175 -6 callgsubr
        </CharString>
        <CharString name="Uacute">
          21 callgsubr
          131 callgsubr
          136 89 165 89 103 31 hintmask 11001110
          -106 callgsubr
          hintmask 00110000
          -129 238 -104 callsubr
        </CharString>
        <CharString name="Ubreve">
          21 callgsubr
          63 35 161 -20 123 callgsubr
          hintmask 1100101010000000
          -106 callgsubr
          hintmask 0011010100000000
          -168 290 -94 callsubr
          endchar
        </CharString>
        <CharString name="Ucaron">
          21 callgsubr
          83 callsubr
          136 89 165 89 103 31 hintmask 11001110
          -106 callgsubr
          hintmask 00110000
          -152 265 -64 callgsubr
        </CharString>
        <CharString name="Ucircumflex">
          21 callgsubr
          83 callsubr
          136 89 165 89 103 31 hintmask 11001110
          -106 callgsubr
          hintmask 00110000
          -152 99 -53 callgsubr
        </CharString>
        <CharString name="Udblgrave">
          21 callgsubr
          84 -21 54 callsubr
          165 89 103 31 hintmask 11011100
          -106 callgsubr
          hintmask 00100000
          -297 116 -75 callgsubr
        </CharString>
        <CharString name="Udieresis">
          21 callgsubr
          53 100 54 callsubr
          26 100 39 89 -35 100 38 31 hintmask 11010101
          -106 callgsubr
          hintmask 00101010
          35 callgsubr
          endchar
        </CharString>
        <CharString name="Udieresisacute">
          21 callgsubr
          53 100 83 84 callsubr
          54 callsubr
          26 100 39 89 -35 100 38 31 hintmask 1100010101000000
          -106 callgsubr
          hintmask 0011101010000000
          35 callgsubr
          43 256 -104 callsubr
        </CharString>
        <CharString name="Udieresiscaron">
          21 callgsubr
          53 100 73 84 callsubr
          54 callsubr
          26 100 39 89 -35 100 38 31 hintmask 1100010101000000
          -106 callgsubr
          hintmask 0011101010000000
          35 callgsubr
          20 283 -64 callgsubr
        </CharString>
        <CharString name="Udieresisgrave">
          21 callgsubr
          53 100 83 84 callsubr
          54 callsubr
          26 100 39 89 -35 100 38 31 hintmask 1100010101000000
          -106 callgsubr
          hintmask 0011101010000000
          35 callgsubr
          -49 134 -76 callsubr
        </CharString>
        <CharString name="Udotbelow">
          750 -200 106 72 31 921 100 callgsubr
          119 107 -61 89 103 31 hintmask 01110110
          -106 callgsubr
          hintmask 10001000
          -265 -1077 rmoveto
          -101 callgsubr
        </CharString>
        <CharString name="Ugrave">
          21 callgsubr
          131 callgsubr
          136 89 165 89 103 31 hintmask 11001110
          -106 callgsubr
          hintmask 00110000
          -221 116 -76 callsubr
        </CharString>
        <CharString name="Uhookabove">
          21 callgsubr
          85 41 callsubr
          136 89 75 59 21 19 -9 89 -28 43 88 31 hintmask 1100100101000000
          -106 callgsubr
          hintmask 0001010100000000
          -222 248 rmoveto
          21 -11 19 -18 11 vhcurveto
          12 -21 -25 4 -29 hhcurveto
          -47 -43 -25 -41 -19 14 -11 16 15 14 11 18 17 -11 11 -14 2 hvcurveto
          11 13 20 7 23 hhcurveto
          45 8 -13 0 hvcurveto
          hintmask 0010001010000000
          7 -6 1 -10 -19 vvcurveto
          -11 -15 -10 -8 -6 vhcurveto
          -28 -23 -20 -30 -33 vvcurveto
          -19 vlineto
          hintmask 0000000100000000
          -6 5 -4 5 vhcurveto
          hintmask 0010001010000000
          6 4 4 6 -1 hvcurveto
          19 vlineto
          -33 callsubr
          -33 callgsubr
        </CharString>
        <CharString name="Uhorn">
          25 callsubr
          111 callsubr
          hintmask 00100010
          -18 callgsubr
          hintmask 11001110
          -58 callgsubr
          hintmask 10011110
          -66 callgsubr
          hintmask 00100010
          48 callsubr
          endchar
        </CharString>
        <CharString name="Uhornacute">
          25 callsubr
          262 -20 111 callsubr
          hintmask 00100001
          -18 callgsubr
          hintmask 11001011
          -58 callgsubr
          hintmask 10011011
          -66 callgsubr
          hintmask 00100001
          48 callsubr
          hintmask 00000100
          -167 166 -104 callsubr
        </CharString>
        <CharString name="Uhorndotbelow">
          750 -200 106 72 30 858 28 -6 178 -172 30 6 28 hstemhm
          136 88 97 107 154 30 hintmask 0001000010000000
          -18 callgsubr
          hintmask 0110011010000000
          -58 callgsubr
          hintmask 0100111010000000
          -66 callgsubr
          hintmask 0001000010000000
          48 callsubr
          hintmask 1000000100000000
          -298 -1149 rmoveto
          -101 callgsubr
        </CharString>
        <CharString name="Uhorngrave">
          25 callsubr
          262 -20 111 callsubr
          hintmask 00100001
          -18 callgsubr
          hintmask 11001011
          -58 callgsubr
          hintmask 10011011
          -66 callgsubr
          hintmask 00100001
          48 callsubr
          hintmask 00000100
          -231 44 -76 callsubr
        </CharString>
        <CharString name="Uhornhookabove">
          25 callsubr
          88 41 callsubr
          136 88 76 36 callgsubr
          88 30 hintmask 0010000000010000
          -18 callgsubr
          hintmask 1100100100010000
          -58 callgsubr
          hintmask 1001100100010000
          -66 callgsubr
          hintmask 0010000000010000
          48 callsubr
          hintmask 0000011011100000
          -232 176 -107 callsubr
        </CharString>
        <CharString name="Uhorntilde">
          25 callsubr
          56 45 -6 45 111 callsubr
          hintmask 0010000000000000
          726 1002 rmoveto
          34 -22 30 -31 vhcurveto
          hintmask 1100110110000000
          18 callsubr
          7 6 1 1 5 hvcurveto
          -15 -27 -30 -19 -34 -4 rrcurveto
          48 vlineto
          -58 callgsubr
          hintmask 1001100110000000
          -66 callgsubr
          hintmask 0010000010000000
          48 callsubr
          hintmask 0000001000000000
          -134 81 rmoveto
          -16 15 rlineto
          hintmask 0000010000000000
          -19 -26 -14 -20 -42 hhcurveto
          hintmask 0000001000000000
          -59 callgsubr
          hintmask 0000010000000000
          17 -15 rlineto
          hintmask 0000001000000000
          23 23 25 16 33 hhcurveto
          hintmask 0000010000000000
          -77 callgsubr
        </CharString>
        <CharString name="Uhungarumlaut">
          21 callgsubr
          84 -21 54 callsubr
          165 89 103 31 hintmask 11011100
          -106 callgsubr
          hintmask 00100000
          -53 238 -21 callsubr
        </CharString>
        <CharString name="Umacron">
          21 callgsubr
          73 143 callsubr
          165 89 103 31 hintmask 11011100
          -106 callgsubr
          hintmask 00100000
          -138 104 -24 callsubr
        </CharString>
        <CharString name="Uogonek">
          750 -211 47 142 101 callgsubr
          hstem
          136 89 357 31 vstem
          716 930 rmoveto
          31 vlineto
          -118 -3 117 callsubr
          103 0 -47 -27 hvcurveto
          -625 vlineto
          -142 -97 -80 -95 -47 -118 25 190 vhcurveto
          659 -101 callsubr
          -655 vlineto
          -125 91 -100 116 -21 vhcurveto
          -32 -29 -25 -38 -36 93 callsubr
          -36 -17 -28 -20 -32 hhcurveto
          -36 -51 23 46 20 10 127 callsubr
          6 7 7 6 7 6 rrcurveto
          10 hlineto
          115 90 93 114 17 hvcurveto
          3 20 0 9 40 vvcurveto
          598 vlineto
          33 0 45 103 vhcurveto
          endchar
        </CharString>
        <CharString name="Upsilon">
          778 0 31 875 77 hstem
          56 36 252 89 252 36 cntrmask 00111000
          721 779 rmoveto
          5 0 199 -132 -144 -44 -148 -124 -12 vhcurveto
          -1 hlineto
          125 -14 -41 147 -145 hhcurveto
          -131 -1 -195 -9 -15 0 -6 16 13 1 6 10 1 hvcurveto
          89 5 44 43 51 hhcurveto
          116 41 -127 -229 hvcurveto
          -471 vlineto
          -34 0 -14 -95 vhcurveto
          -33 -31 hlineto
          3 36 95 0 41 hhcurveto
          41 96 0 -3 36 hvcurveto
          31 -33 vlineto
          -95 0 13 35 hvcurveto
          471 vlineto
          235 44 121 113 63 33 -61 -67 4 vhcurveto
          -15 1 0 -5 14 hhcurveto
          16 0 6 15 hvcurveto
          endchar
        </CharString>
        <CharString name="Uring">
          21 callgsubr
          33 23 130 23 54 callsubr
          77 26 62 89 -11 26 88 31 hintmask 1100111010000000
          -106 callgsubr
          hintmask 0011010100000000
          -248 152 -50 callsubr
          endchar
        </CharString>
        <CharString name="Utilde">
          21 callgsubr
          53 113 callsubr
          165 89 103 31 hintmask 11001110
          -106 callgsubr
          hintmask 00010000
          -124 153 -61 callsubr
        </CharString>
        <CharString name="V">
          750 -1 -21 921 31 0 31 hstemhm
          hintmask 00100000
          732 930 105 callgsubr
          -30 -41 -1 -26 hhcurveto
          -114 3 rlineto
          -31 vlineto
          57 -2 23 -27 -25 vvcurveto
          -4 0 -4 -4 -14 vhcurveto
          -194 -712 -201 739 rlineto
          hintmask 01000000
          0 -4 14 4 vvcurveto
          31 61 0 27 vhcurveto
          hintmask 10100000
          31 vlineto
          -3 -35 -70 0 -38 hhcurveto
          -126 3 rlineto
          -31 vlineto
          68 15 0 -42 11 hvcurveto
          242 -889 rlineto
          -16 4 2 -5 15 hhcurveto
          16 2 5 16 4 hvcurveto
          235 862 rlineto
          25 7 14 44 80 hhcurveto
          endchar
        </CharString>
        <CharString name="W">
          110 callgsubr
          hstem
          -93 callsubr
          endchar
        </CharString>
        <CharString name="Wacute">
          110 callgsubr
          131 callgsubr
          hintmask 11100000
          -93 callsubr
          hintmask 00011000
          -307 238 -104 callsubr
        </CharString>
        <CharString name="Wcircumflex">
          110 callgsubr
          83 callsubr
          hintmask 11100000
          -93 callsubr
          hintmask 00011000
          -330 99 -53 callgsubr
        </CharString>
        <CharString name="Wdieresis">
          110 callgsubr
          53 100 hstemhm
          367 100 93 100 hintmask 11100100
          -93 callsubr
          hintmask 00011100
          -543 35 callsubr
        </CharString>
        <CharString name="Wgrave">
          110 callgsubr
          131 callgsubr
          hintmask 11100000
          -93 callsubr
          hintmask 00011000
          -399 116 -76 callsubr
        </CharString>
        <CharString name="X">
          -45 callsubr
        </CharString>
        <CharString name="Xi">
          667 0 70 97 -20 285 -21 51 70 51 -20 236 78 0 78 -70 70 hstemhm
          42 25 -20 25 67 25 338 25 67 25 -20 25 hintmask 0000001000000000
          619 799 rmoveto
          -8 156 rlineto
          -556 hlineto
          hintmask 0000010101001000
          -8 -156 rlineto
          25 hlineto
          2 41 3 26 7 11 rrcurveto
          8 6 61 0 9 hhcurveto
          346 hlineto
          11 59 0 -8 6 hvcurveto
          7 -11 3 -26 2 -41 rrcurveto
          30 -632 rmoveto
          hintmask 1111100010110100
          -25 hlineto
          -3 -46 -1 -26 -8 -14 rrcurveto
          -11 -6 -52 0 -22 hhcurveto
          -348 hlineto
          -18 -55 0 10 -7 hvcurveto
          -8 13 -2 30 -2 44 rrcurveto
          -25 hlineto
          8 -167 rlineto
          566 hlineto
          -89 411 rmoveto
          172 -25 -51 -338 51 -25 -172 25 51 338 -51 vlineto
          endchar
        </CharString>
        <CharString name="Y">
          750 116 callgsubr
          331 86 vstem
          -96 callgsubr
          endchar
        </CharString>
        <CharString name="Yacute">
          750 28 callgsubr
          131 callgsubr
          331 86 hintmask 11001000
          -96 callgsubr
          hintmask 00110000
          -176 238 -104 callsubr
        </CharString>
        <CharString name="Ycircumflex">
          750 28 callgsubr
          83 callsubr
          331 86 hintmask 11001000
          -96 callgsubr
          hintmask 00110000
          -199 99 -53 callgsubr
        </CharString>
        <CharString name="Ydieresis">
          750 28 callgsubr
          53 100 hstemhm
          228 100 3 86 4 100 hintmask 11011000
          -96 callgsubr
          hintmask 00110100
          -412 35 callsubr
        </CharString>
        <CharString name="Ydotbelow">
          750 40 callsubr
          hstemhm
          321 107 -97 86 hintmask 01101000
          -96 callgsubr
          hintmask 10010000
          -312 -1077 rmoveto
          -101 callgsubr
        </CharString>
        <CharString name="Ygrave">
          750 28 callgsubr
          131 callgsubr
          331 86 hintmask 11001000
          -96 callgsubr
          hintmask 00110000
          -268 116 -76 callsubr
        </CharString>
        <CharString name="Yhookabove">
          750 28 callgsubr
          85 41 callsubr
          277 59 -5 86 -60 19 52 43 hintmask 11000100
          -96 callgsubr
          hintmask 00111011
          -269 248 -107 callsubr
        </CharString>
        <CharString name="Ytilde">
          750 28 callgsubr
          53 92 callsubr
          331 86 hintmask 11001000
          -96 callgsubr
          hintmask 00010000
          -171 153 -61 callsubr
        </CharString>
        <CharString name="Z">
          90 callgsubr
          hstem
          -74 callgsubr
          endchar
        </CharString>
        <CharString name="Zacute">
          90 callgsubr
          131 callgsubr
          hintmask 11000000
          -74 callgsubr
          hintmask 00110000
          -48 1168 -104 callsubr
        </CharString>
        <CharString name="Zcaron">
          90 callgsubr
          83 callsubr
          hintmask 11000000
          -74 callgsubr
          hintmask 00110000
          -71 1195 -64 callgsubr
        </CharString>
        <CharString name="Zdotaccent">
          90 callgsubr
          75 106 hstemhm
          252 107 hintmask 11000000
          -74 callgsubr
          hintmask 00110000
          -184 1089 rmoveto
          -101 callgsubr
        </CharString>
        <CharString name="Zdotbelow">
          611 69 callgsubr
          34 896 31 hstemhm
          252 107 hintmask 01100000
          -74 callgsubr
          hintmask 10010000
          -184 -147 rmoveto
          -101 callgsubr
        </CharString>
        <CharString name="Zeta">
          90 callgsubr
          hstem
          -74 callgsubr
          endchar
        </CharString>
        <CharString name="a">
          -2 callsubr
          hstem
          34 callsubr
          vstem
          -107 callgsubr
          endchar
        </CharString>
        <CharString name="aacute">
          -2 callsubr
          141 -21 296 -92 callsubr
          58 590 -23 callsubr
          endchar
        </CharString>
        <CharString name="abreve">
          -2 callsubr
          126 128 callgsubr
          hstemhm
          32 77 -9 22 194 69 -8 22 59 25 hintmask 1100101010000000
          -107 callgsubr
          hintmask 0011010100000000
          83 618 rmoveto
          -52 callgsubr
          endchar
        </CharString>
        <CharString name="abreveacute">
          -2 callsubr
          129 35 397 -20 hstemhm
          32 77 -9 22 194 69 -7 22 58 25 hintmask 1100101010000000
          -107 callgsubr
          hintmask 0011010100000000
          84 533 -94 callsubr
          -9 184 -104 callsubr
        </CharString>
        <CharString name="abrevedotbelow">
          95 callsubr
          76 callsubr
          126 128 callgsubr
          hstemhm
          32 77 -9 22 74 107 13 69 -8 22 59 25 hintmask 0110010010100000
          -107 callgsubr
          83 618 rmoveto
          hintmask 0001101001000000
          -52 callgsubr
          hintmask 1000000100000000
          -96 -1005 rmoveto
          -101 callgsubr
        </CharString>
        <CharString name="abrevegrave">
          -2 callsubr
          129 35 161 -20 hstemhm
          32 77 -9 22 194 69 -7 22 58 25 hintmask 1100101010000000
          -107 callgsubr
          hintmask 0011010100000000
          84 533 -94 callsubr
          -5 62 rmoveto
          -12 -22 -251 126 rlineto
          hintmask 0000100000000000
          -12 7 -6 3 -5 8 rrcurveto
          23 -13 16 29 27 hhcurveto
          11 8 -6 -6 10 hvcurveto
          endchar
        </CharString>
        <CharString name="abrevehookabove">
          -2 callsubr
          129 35 171 19 113 35 13 19 hstemhm
          32 77 -9 82 callgsubr
          -31 69 -7 22 58 25 hintmask 1100001010001010
          -107 callgsubr
          hintmask 0010110110100100
          84 533 -94 callsubr
          -53 142 rmoveto
          21 -11 19 -18 11 vhcurveto
          12 -21 -25 4 -29 hhcurveto
          -47 -43 -25 -41 -19 14 -11 16 15 14 11 18 17 -11 11 -14 2 hvcurveto
          11 13 20 7 23 hhcurveto
          45 8 -13 0 hvcurveto
          hintmask 0001100001010000
          -25 callsubr
        </CharString>
        <CharString name="abrevetilde">
          -2 callsubr
          129 35 221 92 callsubr
          32 77 -9 22 194 69 -7 22 58 25 hintmask 1100010101000000
          -107 callgsubr
          hintmask 0010101010000000
          84 533 -94 callsubr
          45 129 -1 callgsubr
          hintmask 0001000000000000
          -77 callgsubr
        </CharString>
        <CharString name="acaron">
          -2 callsubr
          141 -21 296 -92 callsubr
          90 609 -55 callsubr
        </CharString>
        <CharString name="acircumflex">
          -2 callsubr
          141 -21 296 -92 callsubr
          90 343 -67 callgsubr
          endchar
        </CharString>
        <CharString name="acircumflexacute">
          -2 callsubr
          141 -21 412 -92 callsubr
          100 343 -97 callgsubr
          -4 360 -104 callsubr
        </CharString>
        <CharString name="acircumflexdotbelow">
          95 callsubr
          76 callsubr
          141 46 callgsubr
          hstemhm
          32 77 87 107 13 69 73 25 hintmask 0111110110000000
          -107 callgsubr
          90 343 -67 callgsubr
          hintmask 1000001000000000
          -81 -715 rmoveto
          -101 callgsubr
        </CharString>
        <CharString name="acircumflexgrave">
          -2 callsubr
          141 84 callsubr
          -90 callgsubr
          hintmask 00111000
          100 343 -71 callgsubr
        </CharString>
        <CharString name="acircumflexhookabove">
          -2 callsubr
          141 -21 206 41 callsubr
          32 77 141 59 7 69 -55 19 52 43 14 25 hintmask 0000000100100000
          483 89 rmoveto
          56 -25 -56 vlineto
          -58 -25 -6 -11 -33 -4 45 5 vhcurveto
          200 vlineto
          hintmask 0100000010000000
          42 0 39 -36 37 vhcurveto
          39 -39 -50 16 -48 hhcurveto
          -82 -69 -47 -66 -30 20 -17 26 28 18 20 26 12 -5 33 -46 1 hvcurveto
          35 27 49 11 32 hhcurveto
          hintmask 1000010101100000
          49 57 -39 -89 hvcurveto
          -37 vlineto
          -51 -3 -70 -3 -63 -30 rrcurveto
          -73 callgsubr
          -40 4 27 -42 47 -47 callsubr
          -71 callsubr
          hintmask 0011101011000000
          100 343 -97 callgsubr
          50 338 -107 callsubr
        </CharString>
        <CharString name="acircumflextilde">
          -2 callsubr
          141 -21 236 45 -6 45 40 callgsubr
          hintmask 11000111
          -107 callgsubr
          hintmask 00101000
          100 343 rmoveto
          -166 181 -167 -181 22 -15 145 129 144 -129 rlineto
          50 305 -68 callsubr
        </CharString>
        <CharString name="acute">
          500 6 callsubr
          374 830 -23 callsubr
          endchar
        </CharString>
        <CharString name="acute.cap">
          142 callgsubr
          196 -20 hstem
          439 637 -104 callsubr
        </CharString>
        <CharString name="acute.dup">
          500 6 callsubr
          374 830 -23 callsubr
          endchar
        </CharString>
        <CharString name="acute.ts1">
          500 6 callsubr
          390 830 -23 callsubr
          endchar
        </CharString>
        <CharString name="adblgrave">
          -2 callsubr
          141 -21 296 -92 callsubr
          -100 341 -95 callsubr
          181 13 -95 callsubr
          endchar
        </CharString>
        <CharString name="adieresis">
          -2 callsubr
          218 100 hstemhm
          32 77 -6 100 93 100 -80 69 73 25 hintmask 11010011
          -107 callgsubr
          hintmask 00101100
          -113 476 -93 callgsubr
        </CharString>
        <CharString name="adotbelow">
          95 callsubr
          76 callsubr
          hstemhm
          32 77 87 107 13 69 73 25 hintmask 01110110
          -107 callgsubr
          hintmask 10001000
          -13 -387 rmoveto
          -101 callgsubr
        </CharString>
        <CharString name="ae">
          -49 callsubr
        </CharString>
        <CharString name="ae.dup">
          -49 callsubr
        </CharString>
        <CharString name="aeacute">
          722 -11 22 -22 25 97 21 0 22 75 21 -19 21 174 22 141 46 callgsubr
          hstemhm
          45 77 41 57 118 57 232 66 hintmask 0110011000111000
          693 119 rmoveto
          10 -8 2 -5 -9 -1 -4 -16 -5 vhcurveto
          -50 -15 -46 -47 -62 hhcurveto
          -10 -137 0 217 hvcurveto
          273 143 callgsubr
          111 -58 85 -109 -44 -56 -16 -61 -51 hvcurveto
          48 -29 -60 29 -64 hhcurveto
          -80 -71 -46 -67 -30 20 -17 26 28 18 20 26 12 -5 33 -46 1 hvcurveto
          32 25 47 14 36 hhcurveto
          51 55 -41 -87 hvcurveto
          hintmask 1000100001001000
          -48 vlineto
          -162 -119 -62 -96 -79 92 -24 67 81 62 40 49 24 hvcurveto
          -81 59 78 -8 30 hhcurveto
          113 42 75 callgsubr
          hintmask 1000011001001000
          -231 hlineto
          146 10 83 28 36 hhcurveto
          95 5 -135 -39 2 hvcurveto
          -289 -120 rmoveto
          -64 -57 -57 -72 -47 -40 34 47 vhcurveto
          hintmask 0001100000010000
          54 42 77 162 6 vhcurveto
          -24 0 -20 9 -31 vhcurveto
          3 -11 0 -8 -3 vvcurveto
          hintmask 0000000110000000
          147 698 -23 callsubr
          endchar
        </CharString>
        <CharString name="agrave">
          -2 callsubr
          141 -21 296 -92 callsubr
          -4 341 -95 callsubr
          endchar
        </CharString>
        <CharString name="ahookabove">
          -2 callsubr
          174 41 callsubr
          32 77 43 36 callgsubr
          -30 69 73 25 hintmask 1100100011000000
          -107 callgsubr
          hintmask 0011011100000000
          30 514 rmoveto
          21 -11 19 -18 11 vhcurveto
          12 -21 -25 4 -29 hhcurveto
          -47 -43 -25 -41 -19 14 -11 16 15 14 11 18 17 -11 11 -14 2 hvcurveto
          11 13 20 7 23 hhcurveto
          45 8 -13 0 hvcurveto
          7 -6 1 -10 -19 vvcurveto
          -11 -15 -10 -8 -6 vhcurveto
          -28 -23 -20 -30 -33 vvcurveto
          -19 vlineto
          -6 5 -4 5 6 4 4 6 -1 vhcurveto
          19 vlineto
          hintmask 0000000010000000
          -33 callsubr
          hintmask 0000000100000000
          -33 callgsubr
        </CharString>
        <CharString name="amacron">
          -2 callsubr
          252 32 40 callgsubr
          hintmask 11011100
          -107 callgsubr
          hintmask 00100000
          114 460 -24 callsubr
        </CharString>
        <CharString name="ampersand">
          778 -22 31 391 31 541 22 hstemhm
          42 83 38 63 -8 83 60 25 310 25 hintmask 11111011
          727 400 rmoveto
          31 vlineto
          -97 -3 rlineto
          -11 -84 1 2 -27 hvcurveto
          -31 vlineto
          46 25 -19 -25 -10 -5 -7 -1 -3 hvcurveto
          -37 -66 -39 -65 -46 -61 -26 39 -122 225 -37 139 rrcurveto
          120 185 0 65 32 vvcurveto
          85 -14 80 -72 -70 -67 -67 -138 -59 7 -107 39 -124 vhcurveto
          -133 -205 rlineto
          -23 -36 -11 -40 -41 vvcurveto
          -102 72 -97 110 106 69 70 25 24 vhcurveto
          -41 35 54 -54 70 hhcurveto
          68 69 53 90 2 hvcurveto
          -25 hlineto
          -81 -3 -66 -31 -42 hhcurveto
          -53 -59 98 13 -8 hvcurveto
          41 57 10 17 66 110 37 61 20 34 88 1 rrcurveto
          -366 431 rmoveto
          -30 0 -64 -103 -161 vhcurveto
          -17 63 -15 87 88 vvcurveto
          hintmask 10110110
          32 0 126 75 34 26 -26 -115 vhcurveto
          46 -737 rmoveto
          -36 -32 -65 -49 -79 hhcurveto
          -19 -46 1 76 -24 hvcurveto
          -11 35 -6 47 52 vvcurveto
          108 26 41 31 48 vhcurveto
          36 54 35 -104 91 -185 63 -88 rlinecurve
          endchar
        </CharString>
        <CharString name="anglearc">
          778 -112 -21 766 -20 hstem
          563 40 vstem
          748 20 rmoveto
          9 -6 7 -8 3 vhcurveto
          -154 54 rlineto
          15 50 8 53 54 vvcurveto
          54 -8 53 -15 50 vhcurveto
          154 54 rlineto
          8 3 6 7 9 vvcurveto
          11 -9 9 -11 -3 -2 0 -1 -2 vhcurveto
          -155 -54 -26 67 -40 63 -53 52 rlinecurve
          4 -3 -5 2 -6 hhcurveto
          -11 -9 -9 -11 -6 2 -5 4 -3 hvcurveto
          48 -48 37 -57 25 -62 -466 -163 rcurveline
          -7 -3 -6 -7 -9 vvcurveto
          -9 6 -7 7 -3 vhcurveto
          466 -163 -25 -62 -37 -57 -48 -48 rlinecurve
          -4 -3 -2 -5 -6 142 callsubr
          6 5 2 4 3 vhcurveto
          53 52 40 63 26 67 155 -54 rcurveline
          -1 2 2 0 3 hhcurveto
          11 9 9 11 hvcurveto
          -185 230 rmoveto
          -49 -7 -49 -14 -46 vhcurveto
          -411 144 411 144 rlineto
          14 -46 7 -49 -49 vvcurveto
          endchar
        </CharString>
        <CharString name="angleleft">
          389 -506 -21 1556 -20 hstem
          333 -505 rmoveto
          -3 21 4 -23 -5 21 -178 737 rcurveline
          179 742 rlineto
          15 3 2 21 -22 hhcurveto
          -13 -1 -7 -15 -5 -22 -178 -740 rcurveline
          179 -745 rlineto
          -15 4 3 -18 16 hhcurveto
          13 8 10 12 hvcurveto
          endchar
        </CharString>
        <CharString name="angleright">
          389 -506 -21 hstem
          279 251 rmoveto
          -178 740 -5 22 -7 15 -13 1 rlinecurve
          -22 2 -21 -15 3 hvcurveto
          179 -742 -178 -737 -5 -21 4 23 -3 -21 rlinecurve
          -12 8 -10 13 16 3 18 15 4 vhcurveto
          endchar
        </CharString>
        <CharString name="aogonek">
          500 118 callgsubr
          22 -17 31 401 22 129 callsubr
          hintmask 0011010110000000
          483 89 rmoveto
          56 -25 -56 vlineto
          -58 -25 -6 -11 -33 -4 45 5 vhcurveto
          200 vlineto
          42 0 39 -36 37 vhcurveto
          39 -39 -50 16 -48 hhcurveto
          -82 -69 -47 -66 -30 20 -17 26 28 18 20 26 12 -5 33 -46 1 hvcurveto
          35 27 49 11 32 hhcurveto
          49 57 -39 -89 hvcurveto
          -37 vlineto
          -51 -3 -70 -3 -63 -30 rrcurveto
          hintmask 1100101000000000
          -73 callgsubr
          2 -22 10 -23 16 -16 rrcurveto
          -49 -30 -51 -54 -52 93 callsubr
          130 callsubr
          31 35 24 hvcurveto
          hintmask 0010000010000000
          -4 8 10 -2 11 -47 callsubr
          hintmask 0100010100000000
          -71 callsubr
          endchar
        </CharString>
        <CharString name="aogonekacute">
          500 118 callgsubr
          22 -17 31 401 22 141 46 callgsubr
          129 callsubr
          hintmask 0011000101100000
          483 89 rmoveto
          56 -25 -56 vlineto
          -58 -25 -6 -11 -33 -4 45 5 vhcurveto
          200 vlineto
          42 0 39 -36 37 vhcurveto
          39 -39 -50 16 -48 hhcurveto
          -82 -69 -47 -66 -30 20 -17 26 28 18 20 26 12 -5 33 -46 1 hvcurveto
          35 27 49 11 32 hhcurveto
          49 57 -39 -89 hvcurveto
          -37 vlineto
          -51 -3 -70 -3 -63 -30 rrcurveto
          hintmask 1100001010000000
          -73 callgsubr
          2 -22 10 -23 16 -16 rrcurveto
          -49 -30 -51 -54 -52 93 callsubr
          130 callsubr
          31 35 24 hvcurveto
          hintmask 0010000000100000
          -4 8 10 -2 11 -47 callsubr
          hintmask 0100000101000000
          -71 callsubr
          hintmask 0000110000000000
          58 590 -23 callsubr
          endchar
        </CharString>
        <CharString name="aring">
          -2 callsubr
          173 23 316 23 hstemhm
          32 77 45 26 136 69 -65 26 112 25 hintmask 1100101010000000
          -107 callgsubr
          hintmask 0011010100000000
          4 562 -37 callgsubr
        </CharString>
        <CharString name="aringacute">
          -2 callsubr
          173 23 130 23 216 -20 hstemhm
          32 77 45 26 136 69 -65 26 112 25 hintmask 1100010101000000
          -107 callgsubr
          hintmask 0011101010000000
          4 469 -50 callsubr
          45 251 -104 callsubr
        </CharString>
        <CharString name="asciicircum">
          611 583 -21 182 -20 hstem
          591 584 rmoveto
          -283 160 -283 -160 11 -22 271 123 272 -123 rlineto
          endchar
        </CharString>
        <CharString name="asciitilde">
          611 193 43 -25 43 -8 43 -25 43 hstemhm
          hintmask 10010000
          575 290 rmoveto
          -14 17 rlineto
          -41 -49 -53 -30 -51 hhcurveto
          -40 -29 17 20 -35 hvcurveto
          17 -29 -31 17 -40 hhcurveto
          hintmask 00100000
          -25 -26 -8 -10 -22 hvcurveto
          hintmask 01000000
          -20 -10 -20 -11 -17 -14 -54 -44 rcurveline
          hintmask 10010000
          14 -17 rlineto
          41 49 53 30 51 hhcurveto
          40 29 -17 -20 35 hvcurveto
          -17 29 31 -17 40 hhcurveto
          hintmask 01000000
          25 26 8 10 22 hvcurveto
          hintmask 00100000
          20 10 20 11 17 14 rrcurveto
          endchar
        </CharString>
        <CharString name="asciitilde.low">
          611 1 45 33 45 hstem
          527 109 rmoveto
          -16 15 rlineto
          -31 -37 -31 -47 -54 -62 -33 78 -64 hhcurveto
          -5 hlineto
          -58 -5 -46 -59 -38 -44 17 -15 rcurveline
          33 30 42 45 47 63 34 -78 64 hhcurveto
          1 hlineto
          57 50 63 45 39 hvcurveto
          endchar
        </CharString>
        <CharString name="asterisk">
          500 618 -21 431 -20 hstem
          223 53 vstem
          434 719 rmoveto
          17 -11 5 -9 4 vhcurveto
          -142 67 140 67 rlineto
          12 6 10 4 17 vvcurveto
          13 -11 15 -16 -4 -5 0 -9 -12 vhcurveto
          -125 -92 15 170 rlineto
          15 -13 10 -13 -16 -11 -12 -13 vhcurveto
          15 -170 -125 91 rlineto
          10 -12 -2 0 -7 hhcurveto
          -16 -11 -15 -13 -17 11 -5 9 -4 hvcurveto
          142 -67 -140 -67 rlineto
          -12 -6 -10 -4 -17 vvcurveto
          -13 11 -15 16 4 5 0 9 12 vhcurveto
          125 92 -15 -170 rlineto
          -13 11 -12 16 13 13 10 15 vhcurveto
          -1 14 -14 156 125 -91 rlineto
          -10 12 2 0 7 hhcurveto
          16 11 15 13 hvcurveto
          endchar
        </CharString>
        <CharString name="asterisk.math">
          500 57 -21 430 -20 hstemhm
          222 30 -30 53 -38 30 -30 197 hintmask 00000100
          434 158 rmoveto
          20 -22 7 -14 7 vhcurveto
          -39 18 -27 13 -29 18 -29 9 rlinecurve
          2 vlineto
          29 9 29 18 27 13 39 18 rcurveline
          14 7 22 7 20 vvcurveto
          15 -13 13 -15 -14 -12 -12 -8 -11 vhcurveto
          -107 -79 rlineto
          hintmask 00001000
          18 3 19 2 18 vhcurveto
          hintmask 00010000
          8 91 rlineto
          1 6 1 6 6 vvcurveto
          hintmask 01100000
          11 -8 18 -17 vhcurveto
          -2 hlineto
          -15 -13 -12 -16 hvcurveto
          hintmask 00000100
          -56 15 -54 -55 vvcurveto
          -107 79 rlineto
          8 -11 -12 12 -14 hhcurveto
          -16 -11 -14 -14 -21 20 -6 15 -7 hvcurveto
          39 -18 27 -13 29 -18 29 -9 rlinecurve
          -2 vlineto
          -29 -9 -29 -18 -27 -13 -39 -18 rcurveline
          -15 -7 -20 -6 -21 vvcurveto
          -14 11 -14 16 14 12 12 8 11 vhcurveto
          107 79 rlineto
          hintmask 10010000
          -54 -15 -57 -54 vvcurveto
          -16 13 -12 15 vhcurveto
          hintmask 10100000
          2 hlineto
          15 10 16 13 hvcurveto
          hintmask 00010000
          6 -1 6 -1 6 vhcurveto
          hintmask 00001000
          -8 91 rlineto
          -2 18 -3 19 18 vvcurveto
          107 -79 rlineto
          -8 11 12 -12 14 hhcurveto
          hintmask 00000100
          15 13 13 15 hvcurveto
          endchar
        </CharString>
        <CharString name="at">
          778 -11 134 callsubr
          259 22 281 134 callsubr
          hstem
          56 25 108 69 261 69 108 25 vstem
          721 464 rmoveto
          67 0 148 -85 140 vhcurveto
          105 -64 -89 59 -94 hhcurveto
          -177 -156 -210 -287 -271 143 -226 195 39 71 5 28 79 hvcurveto
          49 17 88 44 13 vvcurveto
          10 -7 0 -16 vhcurveto
          -27 hlineto
          -60 -81 -97 -35 -100 hhcurveto
          -172 -139 208 267 280 150 195 157 98 80 -69 -97 56 hvcurveto
          74 -128 0 -144 -59 vvcurveto
          -32 0 -71 -8 -52 vhcurveto
          -28 -4 -12 -76 -50 hhcurveto
          -19 -15 13 68 hvcurveto
          360 vlineto
          24 -1 1 -25 vhcurveto
          -33 hlineto
          86 -38 -55 32 -48 hhcurveto
          -105 -94 -127 -176 -176 94 -127 105 51 45 33 64 35 hvcurveto
          -55 7 42 -42 52 hhcurveto
          96 5 150 131 hvcurveto
          -202 -107 rmoveto
          -45 -41 -53 -4 -4 vhcurveto
          -27 -20 -29 -23 -36 hhcurveto
          -72 -59 125 156 156 59 125 72 44 30 -34 -21 15 hvcurveto
          5 -7 36 -49 -41 vvcurveto
          endchar
        </CharString>
        <CharString name="atilde">
          -2 callsubr
          222 45 3 45 -91 callgsubr
          100 508 -89 callgsubr
        </CharString>
        <CharString name="b">
          66 callgsubr
          61 42 306 22 488 42 hstemhm
          106 66 -66 83 249 83 hintmask 10111010
          521 216 rmoveto
          127 -98 99 -114 -78 -43 -47 -18 -16 vhcurveto
          595 28 callsubr
          -874 25 vlineto
          36 62 rlineto
          -23 15 42 -50 74 hhcurveto
          119 104 98 129 hvcurveto
          -83 1 rmoveto
          -37 -2 -60 -29 -45 vhcurveto
          -31 -21 -38 -33 -54 hhcurveto
          hintmask 01100110
          -45 -36 24 37 -24 hvcurveto
          -14 21 0 3 18 vvcurveto
          206 vlineto
          19 0 1 11 16 vhcurveto
          56 39 55 8 24 hhcurveto
          45 36 -26 -38 24 hvcurveto
          26 -41 3 -57 -41 vvcurveto
          endchar
        </CharString>
        <CharString name="backslash">
          500 -489 -21 1530 -20 hstem
          443 -490 rmoveto
          0 0 5 -5 13 vhcurveto
          -340 1470 rlineto
          11 -4 -4 11 -14 hhcurveto
          -11 -9 -9 -11 0 0 -5 5 -13 hvcurveto
          340 -1470 rlineto
          -11 4 4 -11 14 hhcurveto
          11 9 9 11 hvcurveto
          endchar
        </CharString>
        <CharString name="baht">
          708 -34 -21 56 31 458 22 419 31 67 -20 hstemhm
          139 83 149 31 119 31 -26 98 -72 100 hintmask 0000000100000000
          652 256 rmoveto
          92 -44 88 -87 46 vhcurveto
          11 -22 -25 9 -25 hhcurveto
          1 vlineto
          hintmask 1101111010000000
          105 25 70 93 105 vvcurveto
          112 -82 124 -140 vhcurveto
          67 -31 -67 -335 104 callgsubr
          132 callsubr
          335 -56 31 56 vlineto
          31 29 0 10 30 hvcurveto
          hintmask 0111011001000000
          102 34 58 107 104 vvcurveto
          -281 -224 rmoveto
          -112 hlineto
          -23 -14 7 25 hvcurveto
          426 149 vlineto
          22 vmoveto
          -149 385 hlineto
          23 9 11 28 vhcurveto
          112 hlineto
          181 -677 rmoveto
          -89 -46 -131 -104 -2 vhcurveto
          458 vlineto
          120 30 -152 -84 hvcurveto
          -26 474 rmoveto
          -88 -32 -88 -92 -37 vhcurveto
          416 vlineto
          hintmask 0000000010000000
          90 -3 31 -124 3 -66 rrcurveto
          endchar
        </CharString>
        <CharString name="bar">
          278 94 callsubr
          118 40 vstem
          158 -508 rmoveto
          1515 vlineto
          12 -9 9 -11 -11 -9 -9 -12 vhcurveto
          -1515 vlineto
          133 callsubr
          11 9 9 11 vhcurveto
          endchar
        </CharString>
        <CharString name="bigcircle">
          144 callgsubr
          1520 40 1 -20 hstemhm
          55 39 -39 40 920 40 hintmask 00100000
          -4 callgsubr
          hintmask 11010100
          -80 callsubr
          rrcurveto
          hintmask 00001000
          91 callsubr
          hintmask 01010100
          -35 callgsubr
          endchar
        </CharString>
        <CharString name="blanksymbol">
          556 -10 22 408 22 322 22 187 -20 hstemhm
          45 84 -24 67 265 84 hintmask 01110100
          521 217 rmoveto
          115 -88 110 -128 -52 -46 -25 -39 -35 vhcurveto
          222 vlineto
          168 164 -22 22 -146 -141 rlineto
          328 vlineto
          -145 -11 rlineto
          -31 vlineto
          hintmask 00001000
          18 hlineto
          hintmask 00000100
          32 28 -3 -48 hvcurveto
          -298 vlineto
          -71 -70 21 -23 50 47 rlineto
          -535 vlineto
          hintmask 10001010
          24 2 13 17 24 42 rlineto
          2 hlineto
          -48 24 59 -24 50 hhcurveto
          124 96 108 119 hvcurveto
          -84 -2 rmoveto
          -53 -7 -56 -33 -41 vhcurveto
          -32 -25 -38 -21 -40 hhcurveto
          hintmask 01000110
          -44 -78 44 52 hvcurveto
          -1 206 rlineto
          60 76 46 56 108 26 -126 -79 vhcurveto
          endchar
        </CharString>
        <CharString name="braceleft">
          87 callgsubr
          -518 rmoveto
          3 vlineto
          5 -4 5 -6 -78 -54 81 98 vhcurveto
          383 vlineto
          90 -58 77 -80 26 vhcurveto
          80 26 58 77 90 vvcurveto
          383 vlineto
          98 54 81 78 6 4 5 5 vhcurveto
          3 vlineto
          5 -4 5 -6 vhcurveto
          -2 hlineto
          -111 -89 -91 -111 hvcurveto
          -383 vlineto
          -99 -54 -83 -78 -6 -4 -4 -6 vhcurveto
          -2 vlineto
          -6 4 -4 6 78 54 -83 -99 vhcurveto
          -383 vlineto
          -111 89 -91 111 vhcurveto
          2 hlineto
          6 4 5 5 hvcurveto
          endchar
        </CharString>
        <CharString name="braceright">
          87 callgsubr
          249 rmoveto
          2 vlineto
          6 -4 4 -6 -78 -54 83 99 vhcurveto
          383 vlineto
          111 -89 91 -111 vhcurveto
          -2 hlineto
          -6 -4 -5 -5 hvcurveto
          -3 vlineto
          -5 4 -5 6 78 54 -81 -98 vhcurveto
          -383 vlineto
          -90 58 -77 80 -26 vhcurveto
          -80 -26 -58 -77 -90 vvcurveto
          -383 vlineto
          -98 -54 -81 -78 -6 -4 -5 -5 vhcurveto
          -3 vlineto
          -5 4 -5 6 vhcurveto
          2 hlineto
          111 89 91 111 hvcurveto
          383 vlineto
          99 54 83 78 6 4 4 6 vhcurveto
          endchar
        </CharString>
        <CharString name="bracketleft">
          278 -528 133 callgsubr
          118 40 vstem
          255 -528 rmoveto
          40 -97 1476 97 40 -137 -1556 vlineto
          endchar
        </CharString>
        <CharString name="bracketright">
          278 -528 133 callgsubr
          119 40 vstem
          159 -528 rmoveto
          1556 -137 -40 97 -1476 -97 -40 vlineto
          endchar
        </CharString>
        <CharString name="breve">
          500 574 128 callgsubr
          hstem
          100 22 255 22 vstem
          399 858 rmoveto
          -52 callgsubr
          endchar
        </CharString>
        <CharString name="breve.cap">
          500 493 35 161 -20 hstem
          100 85 callgsubr
          vstem
          400 689 -94 callsubr
          endchar
        </CharString>
        <CharString name="breve.ts1">
          500 578 128 callgsubr
          hstem
          45 22 366 22 vstem
          455 862 rmoveto
          -22 hlineto
          -106 -52 -140 -133 -125 -56 143 103 vhcurveto
          -22 hlineto
          -116 53 -168 151 135 71 147 137 vhcurveto
          endchar
        </CharString>
        <CharString name="brokenbar">
          167 -505 -21 1554 -20 21 -20 hstemhm
          63 40 hintmask 10110000
          103 -497 rmoveto
          651 vlineto
          11 -1 -7 9 -11 hhcurveto
          -5 -1 rlineto
          -16 -3 0 -17 -13 vvcurveto
          -640 vlineto
          -16 7 -10 13 vhcurveto
          4 hlineto
          15 2 1 14 13 vvcurveto
          858 vmoveto
          649 vlineto
          10 -1 -8 9 -10 hhcurveto
          hintmask 01010000
          -5 -1 rlineto
          -16 -3 0 -17 -13 vvcurveto
          -638 vlineto
          -15 4 -13 15 vhcurveto
          4 hlineto
          16 3 1 16 13 vvcurveto
          endchar
        </CharString>
        <CharString name="bullet">
          500 56 388 hstem
          56 388 73 callsubr
          endchar
        </CharString>
        <CharString name="c">
          61 callgsubr
          hstem
          34 83 195 92 vstem
          -67 callsubr
          -128 99 -99 116 134 32 120 10 vhcurveto
          endchar
        </CharString>
        <CharString name="cacute">
          61 callgsubr
          141 46 callgsubr
          hstemhm
          34 83 195 92 hintmask 11100110
          -67 callsubr
          -128 99 -99 116 134 32 120 10 vhcurveto
          hintmask 00011000
          -47 711 -23 callsubr
          endchar
        </CharString>
        <CharString name="caron">
          500 6 callsubr
          406 849 -55 callsubr
        </CharString>
        <CharString name="caron.cap">
          144 callsubr
          196 -20 hstem
          416 664 -64 callgsubr
        </CharString>
        <CharString name="caron.ts1">
          611 657 -21 231 -20 hstem
          494 850 rmoveto
          -20 17 -169 -177 -169 177 -20 -17 189 -214 rlineto
          endchar
        </CharString>
        <CharString name="ccaron">
          61 callgsubr
          141 46 callgsubr
          hstemhm
          34 83 195 92 hintmask 11100110
          -67 callsubr
          -128 99 -99 116 134 32 120 10 vhcurveto
          hintmask 00011000
          -15 730 -55 callsubr
        </CharString>
        <CharString name="ccedilla">
          444 -203 22 173 22 280 92 37 25 hstemhm
          34 83 58 83 -43 83 -14 83 -55 92 hintmask 0111110010000000
          -67 callsubr
          vhcurveto
          hintmask 1100001000000000
          -115 80 -92 101 -17 vhcurveto
          108 callsubr
          hlineto
          hintmask 1100010100000000
          78 callsubr
          47 rlineto
          106 18 26 100 9 vvcurveto
          endchar
        </CharString>
        <CharString name="ccircumflex">
          61 callgsubr
          141 46 callgsubr
          hstemhm
          34 83 195 92 hintmask 11100110
          -67 callsubr
          -128 99 -99 116 134 32 120 10 vhcurveto
          hintmask 00011000
          -15 464 -67 callgsubr
          endchar
        </CharString>
        <CharString name="cdotaccent">
          61 callgsubr
          215 106 hstemhm
          34 83 73 107 15 92 hintmask 11101010
          -67 callsubr
          -128 99 -99 116 134 32 120 10 vhcurveto
          hintmask 00010100
          -118 597 rmoveto
          -101 callgsubr
        </CharString>
        <CharString name="cedilla">
          444 -203 22 hstem
          215 69 14 69 vstem
          367 -126 rmoveto
          72 callgsubr
          60 -69 -76 -11 callsubr
          endchar
        </CharString>
        <CharString name="cedilla.dup">
          444 -203 22 hstem
          215 69 14 69 vstem
          367 -126 rmoveto
          72 callgsubr
          60 -69 -76 -11 callsubr
          endchar
        </CharString>
        <CharString name="cent">
          444 -75 -21 390 92 36 26 86 -20 hstemhm
          34 83 120 31 44 92 -46 31 hintmask 01100101
          71 callsubr
          -10 0 -3 -9 -2 -4 -6 -2 vhcurveto
          -27 -85 -56 -17 -38 -3 rrcurveto
          408 vlineto
          23 -2 42 -7 26 -27 rrcurveto
          hintmask 00000010
          -41 -3 -6 -30 -13 vvcurveto
          hintmask 01000001
          -26 18 -20 28 vhcurveto
          hintmask 10111110
          26 20 17 30 63 -65 38 -71 6 hvcurveto
          86 -31 -86 vlineto
          -118 -8 -85 -105 -119 vvcurveto
          -124 92 -96 111 -7 vhcurveto
          -85 31 86 vlineto
          118 11 29 108 10 vvcurveto
          -178 -103 rmoveto
          -52 10 -68 51 141 vvcurveto
          148 68 48 52 8 vhcurveto
          endchar
        </CharString>
        <CharString name="cent.oldstyle">
          444 -80 -21 90 25 280 92 -46 92 -9 25 -16 92 10 -20 hstemhm
          34 83 132 83 -20 92 -83 83 -72 83 hintmask 0110000000100000
          71 callsubr
          -10 0 -3 -9 -2 -4 -6 -2 vhcurveto
          -93 -29 -65 -12 -37 hhcurveto
          -32 -45 16 47 -30 hvcurveto
          170 333 14 -5 13 -8 11 -11 rlinecurve
          hintmask 0001000001000000
          -41 -3 -6 -30 -13 vvcurveto
          hintmask 0010000001000000
          -26 18 -20 28 26 20 17 30 vhcurveto
          hintmask 0001000000010000
          43 -30 31 -42 17 vhcurveto
          hintmask 0000010000000000
          47 92 rlineto
          hintmask 1100101110000000
          -20 10 -48 -94 rlineto
          5 -19 -20 3 -21 hhcurveto
          -125 -92 -108 -124 -70 29 -61 46 -41 hvcurveto
          -69 -135 20 -10 67 131 rlineto
          -26 35 42 -15 45 hhcurveto
          hintmask 0000100100010000
          134 32 120 10 hvcurveto
          -116 298 rmoveto
          -161 -316 rlineto
          -13 30 -8 38 49 vvcurveto
          163 82 42 53 5 20 0 -6 22 vhcurveto
          endchar
        </CharString>
        <CharString name="centigrade">
          944 -22 31 731 40 142 40 -10 31 hstemhm
          31 40 141 40 25 103 476 30 hintmask 10010011
          886 -87 callsubr
          -295 168 -208 181 193 67 228 137 hvcurveto
          -634 508 rmoveto
          hintmask 01101100
          61 -49 50 -61 -62 -49 -50 -61 -61 49 -50 62 61 49 50 61 vhcurveto
          -40 hmoveto
          -39 -31 -32 -39 -40 -31 32 39 39 31 32 40 39 31 -32 -39 vhcurveto
          endchar
        </CharString>
        <CharString name="circumflex">
          500 6 callsubr
          406 583 -67 callgsubr
          endchar
        </CharString>
        <CharString name="circumflex.cap">
          144 callsubr
          196 -20 hstem
          416 498 -53 callgsubr
        </CharString>
        <CharString name="circumflex.dup">
          500 6 callsubr
          406 583 -67 callgsubr
          endchar
        </CharString>
        <CharString name="colon">
          278 0 106 219 106 hstem
          86 106 vstem
          192 378 -22 callsubr
          -325 vmoveto
          45 callsubr
        </CharString>
        <CharString name="colonmonetary">
          722 -34 -21 34 31 942 31 46 -20 hstem
          56 103 231 31 214 30 vstem
          665 343 rmoveto
          16 0 6 -13 -12 0 -7 -8 vhcurveto
          -4 -198 -86 -138 -129 -4 rrcurveto
          942 vlineto
          158 -6 44 -212 10 -133 rrcurveto
          -21 2 0 -3 14 hhcurveto
          16 0 3 21 hvcurveto
          358 vlineto
          17 0 7 -11 -7 -1 -1 -13 -6 vhcurveto
          -48 -101 -47 74 -56 36 -68 5 rlinecurve
          46 -31 -46 vlineto
          -177 -12 -157 -206 -284 vvcurveto
          -287 159 -203 175 -12 vhcurveto
          -34 31 34 vlineto
          181 12 63 219 133 vvcurveto
          -275 -333 rmoveto
          -76 14 -155 77 379 vvcurveto
          120 10 95 41 94 vhcurveto
          25 56 61 92 94 15 rrcurveto
          endchar
        </CharString>
        <CharString name="comma">
          278 -172 -21 193 106 hstem
          181 22 vstem
          203 1 rmoveto
          64 -24 41 -40 -35 -18 -27 -26 -26 17 -27 36 16 12 6 10 12 vhcurveto
          0 2 -1 -14 vvcurveto
          -64 -28 -61 -44 -47 vhcurveto
          -6 -6 -1 -1 -4 vvcurveto
          -7 5 -4 5 12 79 79 115 vhcurveto
          endchar
        </CharString>
        <CharString name="copyleft">
          144 callgsubr
          488 31 655 30 -30 31 315 40 1 -20 hstemhm
          333 23 -23 39 -23 23 cntrmask 0000001110000000
          hintmask 0000011110000000
          -4 callgsubr
          hintmask 1010101110000000
          -80 callsubr
          91 callsubr
          -35 callgsubr
          -181 91 rmoveto
          175 -142 180 -149 -83 -79 -67 -92 -23 vhcurveto
          -1 5 0 5 6 vvcurveto
          17 vlineto
          14 -1 14 14 vvcurveto
          74 vlineto
          hintmask 0101001110000000
          7 -1 -5 4 -6 hhcurveto
          -9 -2 -7 -8 hvcurveto
          -261 vlineto
          -10 3 -5 13 23 -5 46 22 5 vhcurveto
          76 13 46 116 101 hhcurveto
          2 hlineto
          143 53 -212 -116 -74 -14 -75 -35 -67 hvcurveto
          -54 -29 -51 -57 -66 hhcurveto
          -7 hlineto
          -112 9 -50 112 -8 102 rrcurveto
          8 vlineto
          8 -3 8 -9 -6 -5 -3 -6 -2 vhcurveto
          -7 vlineto
          -110 68 -152 140 170 123 200 161 vhcurveto
          endchar
        </CharString>
        <CharString name="copyright">
          144 callgsubr
          488 31 394 31 230 31 315 40 1 -20 hstemhm
          55 39 -39 40 182 103 92 103 -39 39 -39 40 149 40 250 40 hintmask 0000010000000000
          -4 callgsubr
          hintmask 1000101000100100
          -80 callsubr
          rrcurveto
          hintmask 0000000100000000
          91 callsubr
          hintmask 0100101000101100
          -35 callgsubr
          -237 -8 77 callsubr
          hintmask 0111000011001000
          -3 callsubr
          hintmask 0100000000010000
          124 callsubr
        </CharString>
        <CharString name="copyright.alt">
          1111 -221 26 1065 26 hstem
          55 26 671 26 251 26 vstem
          1055 338 rmoveto
          298 -213 260 -287 -287 -213 -260 -298 -299 213 -260 287 287 213 260 299 vhcurveto
          -26 hmoveto
          -285 -201 -248 -273 -273 -201 248 285 284 201 248 273 273 201 -248 -284 vhcurveto
          -251 -97 77 callsubr
          -3 callsubr
          124 callsubr
        </CharString>
        <CharString name="currency">
          737 466 40 0 20 0 40 hstemhm
          80 40 -28 40 7 40 -39 40 376 40 20 40 cntrmask 1110000000000000
          hintmask 1110001110000000
          691 -25 rmoveto
          9 -7 7 -6 6 vhcurveto
          -82 82 -2 3 -4 2 -1 4 rlinecurve
          2 vlineto
          5 9 9 4 6 vhcurveto
          35 49 19 58 62 vvcurveto
          66 -22 59 -40 53 vhcurveto
          -2 3 -3 3 4 vvcurveto
          1 vlineto
          1 4 4 2 2 3 75 75 rcurveline
          8 8 12 11 11 vvcurveto
          10 -10 9 -10 -11 -8 -10 -8 -8 vhcurveto
          -77 -77 -3 -2 -2 -4 -4 -1 rlinecurve
          -1 hlineto
          -5 -4 4 3 -3 hvcurveto
          37 -53 -56 23 -66 hhcurveto
          -61 -62 -19 -36 -49 hvcurveto
          -4 -5 -7 -8 -6 hhcurveto
          hintmask 1110010000000000
          -1 hlineto
          -3 -3 3 2 -2 hvcurveto
          -75 75 rlineto
          9 -9 -9 13 -13 hhcurveto
          -5 -1 rlineto
          -9 -2 -6 -9 -9 vvcurveto
          -9 7 -6 5 -5 vhcurveto
          hintmask 1110101000000000
          83 -83 2 -3 4 -2 1 -4 rlinecurve
          -2 vlineto
          -4 -10 -12 -5 -6 vhcurveto
          hintmask 1111010000000000
          -33 -50 -19 -57 -60 vvcurveto
          -70 25 -53 39 -58 vhcurveto
          2 -2 1 -5 0 vvcurveto
          -2 vlineto
          -2 -4 -3 -2 -3 -3 -74 -74 rcurveline
          -8 -8 -12 -11 -11 vvcurveto
          -9 10 -10 10 vhcurveto
          hintmask 1110110100000000
          11 8 10 8 8 hvcurveto
          77 77 3 2 2 4 4 1 rlinecurve
          1 hlineto
          5 4 -4 -3 3 hvcurveto
          -37 53 56 -23 66 hhcurveto
          61 62 19 36 49 hvcurveto
          4 5 7 8 6 hhcurveto
          1 hlineto
          3 3 -3 -2 2 hvcurveto
          75 -75 rlineto
          -9 9 9 -13 13 hhcurveto
          12 8 10 10 hvcurveto
          -75 305 rmoveto
          -130 -105 -119 -141 vhcurveto
          hintmask 1111000010000000
          -125 -111 89 144 -14 hvcurveto
          13 vlineto
          130 107 119 140 128 121 -104 -142 vhcurveto
          endchar
        </CharString>
        <CharString name="cwm">
          0 endchar
        </CharString>
        <CharString name="cwmascender">
          0 endchar
        </CharString>
        <CharString name="cwmcapital">
          0 endchar
        </CharString>
        <CharString name="d">
          556 -11 80 callsubr
          266 66 hintmask 01111100
          -43 callsubr
          hintmask 10101000
          -19 callsubr
          endchar
        </CharString>
        <CharString name="dagger">
          444 -194 -21 611 70 -46 22 542 -20 hstemhm
          186 71 -70 71 -46 20 cntrmask 00001110
          hintmask 01001110
          389 430 rmoveto
          20 -14 16 -24 vhcurveto
          hintmask 00111110
          -41 -37 -23 -1 -41 hvcurveto
          162 25 162 162 vvcurveto
          14 vlineto
          24 -12 18 -23 -23 -12 -18 -24 vhcurveto
          -14 vlineto
          -163 25 -161 -162 vvcurveto
          hintmask 01001110
          107 callsubr
          hintmask 10101110
          41 37 23 1 41 hvcurveto
          -3 -20 -2 -21 -4 -20 rrcurveto
          -7 -40 -10 -40 -42 vvcurveto
          -26 vlineto
          -92 5 -94 7 -92 vhcurveto
          9 -114 rlineto
          -12 1 -2 -22 16 hhcurveto
          16 -2 22 12 1 hvcurveto
          9 114 rlineto
          7 92 5 94 92 vvcurveto
          26 vlineto
          42 -10 40 -7 40 vhcurveto
          -4 20 -2 21 -3 20 rrcurveto
          hintmask 01001110
          124 callgsubr
        </CharString>
        <CharString name="daggerdbl">
          444 -183 -21 261 71 524 70 -46 22 286 -20 hstemhm
          55 177 -20 20 -20 177 cntrmask 00000111
          hintmask 11100111
          389 92 rmoveto
          20 -15 16 -26 -39 -38 -21 -4 -39 vhcurveto
          82 26 80 82 vvcurveto
          20 -8 22 -28 -27 -9 -21 -21 vhcurveto
          -82 26 -80 -82 vvcurveto
          4 -40 -37 21 -41 hhcurveto
          -25 -14 -15 -20 -20 15 -16 26 39 38 21 4 39 hvcurveto
          -82 -26 -80 -82 vvcurveto
          -20 8 -22 28 27 9 21 21 vhcurveto
          82 -26 80 82 vvcurveto
          -4 40 37 -21 41 hhcurveto
          25 14 15 20 hvcurveto
          594 vmoveto
          20 -14 16 -24 vhcurveto
          hintmask 00011111
          -41 -37 -23 -1 -41 hvcurveto
          1 83 25 80 82 vvcurveto
          19 -8 22 -28 -26 -10 -20 -21 -82 24 -80 2 -83 vhcurveto
          hintmask 00100111
          107 callsubr
          hintmask 00010111
          41 37 23 1 41 hvcurveto
          -1 -83 -25 -80 -82 vvcurveto
          -19 8 -22 28 26 10 20 21 82 -24 80 -2 83 vhcurveto
          hintmask 00100111
          124 callgsubr
        </CharString>
        <CharString name="dblbracketleft">
          403 -527 133 callgsubr
          118 40 84 40 vstem
          380 -527 rmoveto
          40 -98 1476 98 40 -262 -1556 vlineto
          124 149 callsubr
        </CharString>
        <CharString name="dblbracketright">
          403 -527 133 callgsubr
          120 40 84 40 vstem
          284 -527 rmoveto
          1556 -261 -40 97 -1476 -97 -40 vlineto
          221 149 callsubr
        </CharString>
        <CharString name="dblgrave.ts1">
          500 6 callsubr
          375 580 25 callgsubr
          -138 12 25 callgsubr
          endchar
        </CharString>
        <CharString name="dblverticalbar">
          500 -505 -21 1555 -20 hstem
          175 40 70 40 vstem
          215 -508 rmoveto
          37 callsubr
          110 hmoveto
          37 callsubr
          endchar
        </CharString>
        <CharString name="dcaron">
          27 callgsubr
          389 22 282 -21 174 95 -42 42 hstemhm
          34 83 266 66 123 20 hintmask 0110011100000000
          -43 callsubr
          hintmask 1010011000000000
          -19 callsubr
          212 555 -41 callgsubr
          vhcurveto
          hintmask 0001100010000000
          -24 16 -24 32 14 11 5 9 11 vhcurveto
          0 2 -1 -12 vvcurveto
          -58 -25 -55 -40 -42 vhcurveto
          50 callgsubr
          -4 50 callsubr
          5 11 71 71 104 vhcurveto
          endchar
        </CharString>
        <CharString name="dcroat">
          66 callgsubr
          408 23 270 37 223 -20 hstemhm
          33 66 -66 84 265 66 hintmask 11111010
          526 hmoveto
          31 vlineto
          -23 -29 0 9 -13 hvcurveto
          -13 9 0 20 17 vvcurveto
          626 78 37 -78 223 vlineto
          -144 -11 rlineto
          -31 vlineto
          23 29 0 -9 13 hvcurveto
          13 -9 0 -20 -17 vvcurveto
          -126 -119 -37 119 -332 vlineto
          37 -30 -44 25 -50 hhcurveto
          -60 -57 -24 -43 -42 hvcurveto
          -42 -42 -24 -58 -60 vvcurveto
          -59 22 -58 40 -43 vhcurveto
          -42 40 55 -24 57 hhcurveto
          53 47 26 40 32 hvcurveto
          -66 vlineto
          112 vmoveto
          -53 -24 -49 -37 -57 hhcurveto
          -39 -37 23 35 -24 hvcurveto
          hintmask 01000100
          -25 38 -7 47 61 vvcurveto
          61 8 47 27 38 vhcurveto
          36 26 40 22 42 hhcurveto
          52 44 -32 -47 23 hvcurveto
          endchar
        </CharString>
        <CharString name="ddotbelow">
          556 134 callgsubr
          80 callsubr
          107 107 52 66 hintmask 00111101
          -43 callsubr
          hintmask 01010100
          -19 callsubr
          hintmask 10000010
          -49 -470 rmoveto
          -101 callgsubr
        </CharString>
        <CharString name="degree">
          333 743 39 140 39 hstem
          58 39 140 39 vstem
          276 852 rmoveto
          60 -49 49 -60 -61 -48 -49 -60 -60 48 -49 61 60 49 49 60 vhcurveto
          -39 hmoveto
          -39 -32 -31 -38 -39 -31 31 39 39 31 31 39 38 32 -31 -39 vhcurveto
          endchar
        </CharString>
        <CharString name="diameter">
          778 -20 40 -39 -21 60 40 801 40 0 40 20 -20 hstemhm
          40 40 618 40 hintmask 10010111
          758 941 rmoveto
          11 -9 9 -11 -7 -6 -3 -5 -3 vhcurveto
          -110 -151 rlineto
          61 -58 -76 38 -89 hhcurveto
          -212 -137 -212 -228 -117 36 -112 63 -82 hvcurveto
          -115 -158 rlineto
          -3 -4 -1 -4 -4 vvcurveto
          hintmask 01101011
          133 callsubr
          7 6 3 5 3 vhcurveto
          109 151 rlineto
          -61 58 77 -38 89 hhcurveto
          212 137 212 229 116 -36 112 -63 82 hvcurveto
          115 158 rlineto
          2 4 2 4 4 vvcurveto
          -60 -480 rmoveto
          -207 -119 -194 -190 -81 -68 35 56 -51 vhcurveto
          426 587 rlineto
          53 -75 30 -99 -103 vvcurveto
          -109 309 rmoveto
          -426 -587 rlineto
          -53 75 -30 100 103 vvcurveto
          hintmask 00010000
          206 119 194 190 81 67 -35 -56 52 vhcurveto
          endchar
        </CharString>
        <CharString name="died">
          500 -32 -21 494 37 -37 43 299 -20 hstemhm
          217 61 -50 43 hintmask 00100000
          455 455 rmoveto
          11 vlineto
          16 -7 2 -10 vhcurveto
          hintmask 01010100
          -5 -55 -56 -1 -56 hhcurveto
          95 3 94 10 93 vhcurveto
          9 vlineto
          9 -2 5 -12 vhcurveto
          -44 hlineto
          -5 -1 -4 -2 -2 -5 rrcurveto
          -11 vlineto
          -25 5 -25 1 -25 vhcurveto
          4 -70 3 -71 -70 vvcurveto
          -46 -46 4 -45 hhcurveto
          hintmask 00100100
          -10 -10 1 1 -10 hvcurveto
          -10 -7 -2 -17 hvcurveto
          -8 vlineto
          -8 1 -9 9 -2 vhcurveto
          3 hlineto
          17 17 2 1 17 hvcurveto
          120 3 rlineto
          hintmask 10001000
          -146 -2 -149 -9 -145 vhcurveto
          -1 -12 -1 -11 -12 vvcurveto
          -14 130 callgsubr
          5 12 hvcurveto
          5 -1 5 4 vvcurveto
          -4 37 -2 38 37 vvcurveto
          23 vlineto
          hintmask 01000100
          -7 331 120 -3 rlineto
          -1 16 17 -2 16 hhcurveto
          13 2 7 10 hvcurveto
          endchar
        </CharString>
        <CharString name="dieresis">
          -13 callsubr
        </CharString>
        <CharString name="dieresis.cap">
          500 483 100 hstem
          103 100 93 100 vstem
          203 533 -93 callgsubr
        </CharString>
        <CharString name="dieresis.dup">
          -13 callsubr
        </CharString>
        <CharString name="dieresis.ts1">
          -13 callsubr
        </CharString>
        <CharString name="discount">
          500 1 20 34 20 933 20 1 -20 hstemhm
          86 124 79 124 hintmask 00010000
          444 1010 rmoveto
          10 -1 -9 9 -10 hhcurveto
          hintmask 11101100
          -5 -1 -10 -2 -4 -9 -3 -9 rlinecurve
          -61 -175 -218 -617 -59 -166 rlineto
          -3 -9 -6 -10 -10 vvcurveto
          -9 7 -11 16 vhcurveto
          18 3 7 33 5 18 330 934 rcurveline
          3 7 3 7 7 vvcurveto
          -234 -55 65 callgsubr
          203 -882 65 callgsubr
          endchar
        </CharString>
        <CharString name="divide">
          778 -28 127 132 40 132 127 hstem
          325 127 cntrmask 11100000
          51 callgsubr
          -270 -215 rmoveto
          33 -28 30 -35 -35 -29 -29 -34 -33 25 -31 38 35 29 28 36 vhcurveto
          431 vmoveto
          33 -28 30 -35 -36 -28 -29 -35 -33 28 -30 35 35 29 28 36 vhcurveto
          endchar
        </CharString>
        <CharString name="divorced">
          500 -83 -21 139 47 337 47 -47 48 139 -20 hstemhm
          217 55 -55 66 -55 55 cntrmask 00000111
          hintmask 00010111
          688 252 rmoveto
          98 -66 117 -110 vhcurveto
          hintmask 01100111
          -5 -4 -1 -5 hhcurveto
          -102 -12 -58 -105 -99 vvcurveto
          -100 66 -115 105 112 67 114 103 vhcurveto
          -527 hmoveto
          hintmask 00010111
          100 -66 115 -105 vhcurveto
          hintmask 11101111
          -4 -5 -1 -4 hhcurveto
          -105 -13 -61 -99 -103 vvcurveto
          -98 65 -118 111 112 62 119 98 vhcurveto
          -32 3 rmoveto
          -4 0 -4 -1 -4 vhcurveto
          -72 -6 -33 -89 -100 hhcurveto
          -90 -42 87 81 73 32 96 100 88 52 -82 -82 hvcurveto
          513 -5 rmoveto
          -74 -35 -94 -97 -87 -45 76 86 -8 vhcurveto
          7 vlineto
          80 49 88 91 79 53 -71 -98 vhcurveto
          -357 -334 rmoveto
          8 -1 8 -1 7 vhcurveto
          -8 84 -1 84 -2 84 rrcurveto
          44 vlineto
          -1 97 rlineto
          82 5 84 7 82 vhcurveto
          1 4 1 4 4 vvcurveto
          9 -5 4 -7 1 vhcurveto
          -42 hlineto
          -3 -3 0 -1 -3 hvcurveto
          -4 -2 -3 -3 -5 vvcurveto
          -6 vlineto
          -9 1 -9 1 -8 vhcurveto
          7 -77 4 -76 -77 vvcurveto
          -5 -269 rlineto
          -3 -49 -5 -49 -49 vvcurveto
          -13 130 callgsubr
          3 17 hvcurveto
          endchar
        </CharString>
        <CharString name="dlinebelow">
          556 -163 32 120 80 callsubr
          266 66 hintmask 00111110
          -43 callsubr
          hintmask 01010100
          -19 callsubr
          hintmask 10000000
          78 -486 -24 callsubr
        </CharString>
        <CharString name="dollar">
          500 -35 -21 265 92 152 105 132 92 246 -20 hstem
          56 51 127 31 127 51 cntrmask 00000111
          443 267 rmoveto
          50 -8 81 -45 66 vhcurveto
          -37 53 -40 14 -48 16 rrcurveto
          404 vlineto
          104 -8 37 -83 10 -81 rrcurveto
          1 -2 -7 2 -10 hhcurveto
          -30 -16 -21 -25 -30 24 -16 22 25 21 13 41 86 -33 144 -145 8 hvcurveto
          46 -31 -46 vlineto
          -115 -16 -63 -121 -120 vvcurveto
          -27 2 -76 46 -70 vhcurveto
          35 -55 38 -13 57 -20 rrcurveto
          -443 vlineto
          -98 7 -44 80 -9 105 rrcurveto
          -1 3 7 -3 9 hhcurveto
          25 21 17 29 32 -26 14 -20 -46 0 -44 -11 -58 13 -188 165 -10 hvcurveto
          -46 31 46 vlineto
          110 16 68 125 136 vvcurveto
          -209 291 rmoveto
          -38 11 -31 18 -25 39 rrcurveto
          -33 53 0 62 14 vvcurveto
          106 58 78 69 12 vhcurveto
          158 -714 rmoveto
          -117 -58 -86 -69 -13 vhcurveto
          432 vlineto
          33 -10 36 -17 28 -50 rrcurveto
          21 -40 9 -53 -46 vvcurveto
          endchar
        </CharString>
        <CharString name="dollar.oldstyle">
          611 -34 -21 45 31 924 31 -25 31 -29 31 45 -20 hstemhm
          55 51 129 31 79 31 128 51 hintmask 0110010111000000
          504 234 rmoveto
          -101 -60 -66 -68 -30 vhcurveto
          397 vlineto
          75 -36 53 -57 -107 vvcurveto
          -159 -207 rmoveto
          -4 -15 -15 -2 -14 hhcurveto
          -11 -12 1 3 -12 hvcurveto
          447 vlineto
          25 -7 29 -10 25 -8 rrcurveto
          210 -181 rmoveto
          96 -40 114 -139 54 vhcurveto
          415 vlineto
          70 -18 58 -50 23 -97 rrcurveto
          3 -7 -6 0 -7 hhcurveto
          -25 -19 -21 -24 -26 18 -18 27 -3 hvcurveto
          29 18 22 28 146 -89 68 -90 21 hvcurveto
          53 -31 vlineto
          hintmask 0001000010000000
          -47 vlineto
          hintmask 1100111111000000
          1 -12 -12 1 -11 hhcurveto
          -15 -15 -1 -2 -14 hvcurveto
          48 -31 -55 vlineto
          -127 -35 -53 -124 -94 vvcurveto
          -80 33 -97 147 -60 vhcurveto
          -451 vlineto
          -74 24 -78 63 93 vvcurveto
          -2 6 6 -1 6 hhcurveto
          27 19 21 25 26 -20 20 -26 -28 -18 -27 -26 -125 57 -97 123 -28 hvcurveto
          -54 31 48 vlineto
          -2 15 17 -1 17 hhcurveto
          10 10 1 2 10 hvcurveto
          -48 31 55 vlineto
          98 32 81 106 128 vvcurveto
          -210 275 rmoveto
          -24 8 -27 4 -28 10 rrcurveto
          386 vlineto
          3 14 14 1 15 hhcurveto
          hintmask 0001001110000000
          12 12 -1 -1 12 hvcurveto
          -110 -374 rmoveto
          -67 33 -62 62 88 vvcurveto
          79 50 73 79 28 vhcurveto
          endchar
        </CharString>
        <CharString name="dong">
          556 -40 40 -39 40 45 22 -11 31 49 31 308 22 229 31 229 31 11 -20 hstemhm
          33 84 -33 84 213 68 hintmask 0001101010010000
          527 57 rmoveto
          31 -16 vlineto
          -30 -32 3 46 hvcurveto
          590 67 31 -67 271 vlineto
          hintmask 0000011100110000
          136 callsubr
          hvcurveto
          -174 -214 -31 214 vlineto
          -1 -290 rlineto
          40 -24 -57 21 -46 hhcurveto
          hintmask 0010000001000000
          -123 -98 -106 -121 -107 82 -118 132 52 47 25 40 33 hvcurveto
          -65 vlineto
          hintmask 0001100000000000
          1 327 rmoveto
          -13 -1 -13 -13 vvcurveto
          -166 vlineto
          -13 -5 -9 -7 -10 vhcurveto
          hintmask 0110010001000000
          -39 -26 -43 -29 -47 hhcurveto
          -73 -46 67 69 -11 hvcurveto
          -2 14 0 15 -2 14 rrcurveto
          15 vlineto
          74 9 75 69 46 vhcurveto
          12 20 23 7 23 hhcurveto
          49 70 -40 -63 hvcurveto
          155 -392 rmoveto
          13 -12 8 -14 vhcurveto
          -5 -6 -1 -5 hhcurveto
          -383 hlineto
          -7 -7 1 -8 hhcurveto
          hintmask 1000000000100000
          -6 -6 -1 -1 -5 hvcurveto
          -10 -2 -5 -8 -9 vvcurveto
          -14 11 -7 17 vhcurveto
          hintmask 0100000000000000
          7 8 1 6 hhcurveto
          403 hlineto
          14 13 5 15 hvcurveto
          endchar
        </CharString>
        <CharString name="dotaccent">
          278 663 114 callsubr
          716 rmoveto
          -101 callgsubr
        </CharString>
        <CharString name="dotaccent.alt">
          278 643 114 callsubr
          696 rmoveto
          -101 callgsubr
        </CharString>
</ttFont>
